<svg width="534" height="461" viewBox="0 0 534 461" fill="none" xmlns="http://www.w3.org/2000/svg">
<path d="M447.105 456.408C447.105 458.947 356.673 461 245.112 461C133.552 461 86.895 458.947 86.895 456.408C86.895 453.869 133.552 451.816 245.112 451.816C356.673 451.816 447.105 453.869 447.105 456.408Z" fill="#1D4259"/>
<path d="M146.997 406.88C150.391 406.88 153.752 407.548 156.887 408.846C160.023 410.144 162.872 412.046 165.272 414.444C167.672 416.843 169.576 419.69 170.874 422.823C172.173 425.957 172.842 429.315 172.842 432.707C172.842 436.098 172.173 439.457 170.874 442.59C169.576 445.724 167.672 448.571 165.272 450.969C162.872 453.368 160.023 455.27 156.887 456.568C153.752 457.866 150.391 458.534 146.997 458.534H139.8V406.88H146.997Z" fill="#0F222C"/>
<path d="M281.934 406.88C285.328 406.88 288.689 407.548 291.825 408.846C294.96 410.144 297.81 412.046 300.209 414.444C302.609 416.843 304.513 419.69 305.812 422.823C307.111 425.957 307.779 429.315 307.779 432.707C307.779 436.098 307.111 439.457 305.812 442.59C304.513 445.724 302.609 448.571 300.209 450.969C297.81 453.368 294.96 455.27 291.825 456.568C288.689 457.866 285.328 458.534 281.934 458.534H274.738V406.88H281.934Z" fill="#0F222C"/>
<path d="M146.997 406.88C150.391 406.88 153.752 407.548 156.887 408.846C160.023 410.144 162.872 412.046 165.272 414.444C167.672 416.843 169.576 419.69 170.874 422.823C172.173 425.957 172.842 429.315 172.842 432.707C172.842 436.098 172.173 439.457 170.874 442.59C169.576 445.724 167.672 448.571 165.272 450.969C162.872 453.368 160.023 455.27 156.887 456.568C153.752 457.866 150.391 458.534 146.997 458.534H139.8V406.88H146.997Z" fill="#0F222C"/>
<path d="M170.046 427.884C170.043 422.772 171.558 417.775 174.398 413.524C177.239 409.273 181.277 405.959 186.002 404.002C190.727 402.045 195.927 401.532 200.944 402.529C205.961 403.525 210.569 405.986 214.186 409.601C217.803 413.215 220.266 417.82 221.263 422.834C222.261 427.847 221.747 433.044 219.789 437.766C217.83 442.488 214.514 446.523 210.26 449.361C206.006 452.2 201.005 453.713 195.89 453.711C189.036 453.711 182.462 450.99 177.615 446.146C172.769 441.303 170.046 434.734 170.046 427.884Z" fill="#0F222C"/>
<path d="M341.052 402.105C347.906 402.105 354.48 404.827 359.327 409.67C364.173 414.514 366.896 421.083 366.896 427.933C366.896 434.782 364.173 441.352 359.327 446.195C354.48 451.039 347.906 453.76 341.052 453.76H333.891V402.105H341.052Z" fill="#0F222C"/>
<path d="M308.034 427.884C308.032 422.773 309.546 417.776 312.386 413.525C315.226 409.274 319.263 405.961 323.988 404.003C328.712 402.045 333.912 401.532 338.928 402.528C343.945 403.523 348.553 405.983 352.171 409.596C355.788 413.21 358.252 417.814 359.251 422.826C360.249 427.839 359.738 433.035 357.781 437.757C355.825 442.479 352.51 446.516 348.258 449.355C344.006 452.195 339.006 453.711 333.891 453.711C330.496 453.713 327.134 453.046 323.997 451.749C320.86 450.451 318.01 448.549 315.609 446.151C313.207 443.752 311.302 440.905 310.003 437.77C308.703 434.636 308.034 431.277 308.034 427.884Z" fill="#0F222C"/>
<path d="M274.762 309.682H407.329V263.932H274.762V309.682Z" fill="#E8BF7C"/>
<path d="M221.735 415.541H327.789V309.56H221.735V415.541Z" fill="#E8BF7C"/>
<path d="M327.801 370.69V354.412H221.747V370.69H327.801Z" fill="#D0A569"/>
<path d="M263.7 370.69H285.824V354.412H263.7V370.69Z" fill="#AB7A45"/>
<path d="M266.617 415.541H282.907V309.56H266.617V415.541Z" fill="#D0A569"/>
<path d="M327.789 415.541H407.329V309.56H327.789V415.541Z" fill="#D0A56B"/>
<path d="M407.341 370.69V354.412H327.801V370.69H407.341Z" fill="#AB7A45"/>
<path d="M356.174 370.69H378.299V354.412H356.174V370.69Z" fill="#986E3E"/>
<path d="M327.801 309.682H407.341L447.105 270.176H367.565L327.801 309.682Z" fill="#A87944"/>
<path d="M375.394 309.56H359.104V415.541H375.394V309.56Z" fill="#AB7A45"/>
<path d="M359.104 309.56H375.394L414.805 270.176H398.515L359.104 309.56Z" fill="#986E3E"/>
<path d="M327.801 309.56H221.747L181.971 269.812H288.025L327.801 309.56Z" fill="#D0A56B"/>
<path d="M282.919 309.56H266.629L226.853 269.812H243.143L282.919 309.56Z" fill="#AB7A45"/>
<path d="M327.789 432.707L91.9521 432.707C90.598 432.707 89.2993 432.169 88.3418 431.212C87.3843 430.256 86.8464 428.958 86.8464 427.605V420.631C86.8464 419.278 87.3843 417.981 88.3418 417.024C89.2993 416.067 90.598 415.529 91.9521 415.529H327.789V432.707Z" fill="#1D4259"/>
<path d="M91.9885 415.541H221.747V309.56H156.722C150.481 309.567 144.337 311.102 138.827 314.031C133.317 316.96 128.609 321.194 125.115 326.361L98.5409 365.588C94.2733 371.903 91.9915 379.349 91.9885 386.969V415.541Z" fill="#C7CB08"/>
<path d="M190.602 372.269V321.49H156.722C152.421 321.484 148.185 322.534 144.387 324.549C140.588 326.563 137.343 329.48 134.938 333.043L108.436 372.269H190.602Z" fill="#F2F2F2"/>
<path d="M206.126 415.541H221.747V309.56H206.126V415.541Z" fill="#A4A70B"/>
<path d="M273.522 402.105C277.55 402.104 281.539 402.896 285.261 404.435C288.983 405.975 292.365 408.233 295.213 411.079C298.062 413.926 300.321 417.305 301.861 421.024C303.402 424.744 304.194 428.73 304.193 432.755H242.9C242.9 424.635 246.124 416.846 251.866 411.1C257.607 405.353 265.396 402.118 273.522 402.105Z" fill="#0F222C"/>
<path d="M138.645 402.105C146.78 402.105 154.581 405.335 160.333 411.083C166.085 416.831 169.316 424.627 169.316 432.755H107.974C107.973 428.73 108.765 424.744 110.306 421.024C111.847 417.305 114.106 413.926 116.954 411.079C119.802 408.233 123.184 405.975 126.906 404.435C130.628 402.896 134.617 402.104 138.645 402.105Z" fill="#0F222C"/>
<path d="M248.917 432.707C248.915 427.594 250.43 422.596 253.272 418.344C256.113 414.093 260.153 410.779 264.879 408.822C269.606 406.866 274.807 406.355 279.825 407.353C284.842 408.352 289.451 410.815 293.066 414.432C296.682 418.049 299.143 422.656 300.138 427.672C301.132 432.687 300.616 437.884 298.654 442.605C296.691 447.327 293.371 451.361 289.114 454.196C284.857 457.031 279.854 458.541 274.738 458.534C267.887 458.527 261.32 455.804 256.478 450.961C251.637 446.118 248.917 439.552 248.917 432.707Z" fill="#222846"/>
<path d="M287.335 434.758C288.457 427.83 283.746 421.306 276.814 420.185C269.881 419.064 263.352 423.771 262.23 430.699C261.109 437.627 265.819 444.152 272.752 445.273C279.684 446.393 286.214 441.686 287.335 434.758Z" fill="#F2F2F2"/>
<path d="M139.837 458.534C154.11 458.534 165.682 446.971 165.682 432.707C165.682 418.443 154.11 406.88 139.837 406.88C125.563 406.88 113.992 418.443 113.992 432.707C113.992 446.971 125.563 458.534 139.837 458.534Z" fill="#222846"/>
<path d="M152.388 434.752C153.51 427.825 148.799 421.3 141.867 420.179C134.934 419.058 128.405 423.766 127.283 430.693C126.162 437.621 130.872 444.146 137.805 445.267C144.738 446.388 151.267 441.68 152.388 434.752Z" fill="#F2F2F2"/>
<path d="M327.801 407.329H338.875V396.797H327.801V407.329Z" fill="#CE3836"/>
<path d="M316.726 407.329H327.801V396.797H316.726V407.329Z" fill="#FF524F"/>
<path d="M396.267 407.329H407.341V396.797H396.267V407.329Z" fill="#CE3836"/>
<path d="M173.924 376.521H190.602V378.842C190.602 379.699 190.262 380.521 189.655 381.127C189.049 381.733 188.226 382.073 187.369 382.073H177.169C176.309 382.073 175.483 381.731 174.874 381.123C174.266 380.515 173.924 379.69 173.924 378.83V376.509V376.521Z" fill="#CE3836"/>
<path d="M173.924 376.521H190.602V377.469C190.602 378.326 190.262 379.148 189.655 379.754C189.049 380.36 188.226 380.7 187.369 380.7H177.169C176.309 380.7 175.483 380.359 174.874 379.75C174.266 379.142 173.924 378.317 173.924 377.457V376.509V376.521Z" fill="#222846"/>
<path d="M102.115 402.105C102.115 399.435 101.053 396.873 99.1632 394.984C97.2732 393.096 94.7099 392.035 92.0371 392.035V412.164C94.7078 412.164 97.2693 411.105 99.1589 409.219C101.048 407.333 102.112 404.774 102.115 402.105Z" fill="#F2F2F2"/>
<path d="M407.329 415.541H327.801C324.981 415.541 322.695 417.826 322.695 420.644V427.605C322.695 430.422 324.981 432.707 327.801 432.707H407.329C410.149 432.707 412.435 430.422 412.435 427.605V420.644C412.435 417.826 410.149 415.541 407.329 415.541Z" fill="#1B3241"/>
<path d="M336.979 424.118C336.979 423.397 336.765 422.693 336.365 422.093C335.964 421.494 335.394 421.027 334.728 420.751C334.062 420.475 333.328 420.403 332.621 420.544C331.913 420.684 331.264 421.031 330.753 421.541C330.243 422.051 329.896 422.7 329.755 423.407C329.615 424.114 329.687 424.847 329.963 425.513C330.239 426.179 330.706 426.748 331.306 427.148C331.906 427.549 332.611 427.762 333.332 427.762C334.3 427.762 335.227 427.379 335.911 426.695C336.595 426.012 336.979 425.085 336.979 424.118Z" fill="#F2F2F2"/>
<path d="M343.276 424.118C343.279 423.755 343.173 423.399 342.973 423.096C342.773 422.792 342.487 422.555 342.151 422.415C341.816 422.274 341.447 422.236 341.09 422.305C340.733 422.375 340.405 422.548 340.147 422.804C339.889 423.061 339.713 423.387 339.641 423.743C339.569 424.1 339.605 424.469 339.744 424.805C339.882 425.141 340.117 425.428 340.419 425.63C340.722 425.832 341.077 425.94 341.441 425.94C341.925 425.94 342.39 425.749 342.734 425.407C343.078 425.066 343.273 424.602 343.276 424.118Z" fill="#F2F2F2"/>
<path d="M398.151 424.118C398.151 424.839 398.365 425.543 398.766 426.143C399.166 426.742 399.736 427.209 400.402 427.485C401.069 427.761 401.802 427.833 402.509 427.692C403.217 427.552 403.867 427.205 404.377 426.695C404.887 426.185 405.234 425.536 405.375 424.829C405.515 424.122 405.443 423.389 405.167 422.723C404.891 422.057 404.424 421.488 403.824 421.088C403.224 420.687 402.519 420.474 401.798 420.474C400.831 420.474 399.903 420.858 399.219 421.541C398.535 422.224 398.151 423.151 398.151 424.118Z" fill="#F2F2F2"/>
<path d="M391.866 424.118C391.866 424.478 391.973 424.831 392.173 425.13C392.374 425.43 392.658 425.664 392.992 425.802C393.325 425.939 393.691 425.976 394.045 425.905C394.399 425.835 394.724 425.661 394.979 425.407C395.234 425.152 395.407 424.827 395.478 424.473C395.548 424.12 395.512 423.754 395.374 423.421C395.236 423.088 395.002 422.803 394.702 422.603C394.403 422.403 394.05 422.296 393.689 422.296C393.206 422.296 392.742 422.488 392.4 422.829C392.058 423.171 391.866 423.635 391.866 424.118Z" fill="#F2F2F2"/>
<path d="M387.015 243.559V18.1494C387.015 13.497 385.166 9.0351 381.874 5.74534C378.582 2.45558 374.117 0.607407 369.461 0.607407H164.539C159.883 0.607407 155.418 2.45558 152.126 5.74534C148.834 9.0351 146.985 13.497 146.985 18.1494V289.188" stroke="#F2F2F2" stroke-miterlimit="10"/>
<path d="M166.751 289.188V34.2579H367.249V243.559" stroke="#F2F2F2" stroke-miterlimit="10"/>
<path d="M224.397 17.4327C224.401 18.468 224.815 19.4599 225.548 20.1908C226.282 20.9218 227.276 21.3322 228.312 21.3322H305.688C306.723 21.3322 307.716 20.9214 308.448 20.1901C309.179 19.4588 309.59 18.4669 309.59 17.4327V17.4327C309.59 16.3984 309.179 15.4066 308.448 14.6753C307.716 13.9439 306.723 13.5331 305.688 13.5331H228.312C227.276 13.5331 226.282 13.9435 225.548 14.6745C224.815 15.4055 224.401 16.3973 224.397 17.4327Z" stroke="#F2F2F2" stroke-miterlimit="10"/>
<path d="M330.658 17.4327C330.66 18.2068 330.433 18.9643 330.004 19.6092C329.575 20.2541 328.965 20.7573 328.25 21.0553C327.535 21.3532 326.747 21.4324 325.987 21.2829C325.227 21.1333 324.529 20.7617 323.98 20.2151C323.431 19.6685 323.057 18.9716 322.905 18.2124C322.753 17.4533 322.83 16.6662 323.126 15.9507C323.422 15.2352 323.924 14.6236 324.567 14.1932C325.211 13.7628 325.969 13.5331 326.743 13.5331C327.78 13.5331 328.773 13.9435 329.507 14.6745C330.241 15.4055 330.655 16.3973 330.658 17.4327Z" stroke="#F2F2F2" stroke-miterlimit="10"/>
<path d="M533.392 416.89V116.805" stroke="#F2F2F2" stroke-miterlimit="10"/>
<path d="M533.392 342.215V116.805C533.392 112.153 531.543 107.691 528.251 104.401C524.959 101.111 520.494 99.263 515.838 99.263H407.341" stroke="#F2F2F2" stroke-miterlimit="10"/>
<path d="M407.341 132.913H513.626V416.89" stroke="#F2F2F2" stroke-miterlimit="10"/>
<path d="M407.341 119.988H452.065C452.578 119.989 453.087 119.89 453.562 119.694C454.037 119.499 454.468 119.212 454.832 118.85C455.196 118.488 455.484 118.057 455.681 117.583C455.878 117.109 455.979 116.601 455.979 116.088C455.976 115.053 455.562 114.061 454.829 113.33C454.095 112.599 453.101 112.189 452.065 112.189H407.341" stroke="#F2F2F2" stroke-miterlimit="10"/>
<path d="M476.974 116.088C476.976 116.862 476.749 117.62 476.32 118.265C475.891 118.91 475.281 119.413 474.566 119.711C473.851 120.009 473.063 120.088 472.303 119.938C471.543 119.789 470.844 119.417 470.296 118.871C469.747 118.324 469.373 117.627 469.221 116.868C469.069 116.109 469.146 115.322 469.442 114.606C469.738 113.891 470.239 113.279 470.883 112.849C471.527 112.418 472.285 112.189 473.059 112.189C473.573 112.187 474.082 112.287 474.557 112.482C475.031 112.677 475.463 112.964 475.827 113.326C476.19 113.689 476.479 114.119 476.676 114.593C476.873 115.067 476.974 115.575 476.974 116.088V116.088Z" stroke="#F2F2F2" stroke-miterlimit="10"/>
<path d="M0.60791 416.89V143.154" stroke="#F2F2F2" stroke-miterlimit="10"/>
<path d="M0.60791 342.215V143.154C0.60791 138.502 2.45735 134.04 5.74937 130.75C9.04139 127.461 13.5063 125.612 18.1619 125.612H126.659" stroke="#F2F2F2" stroke-miterlimit="10"/>
<path d="M126.659 159.263H20.3745V416.89" stroke="#F2F2F2" stroke-miterlimit="10"/>
<path d="M126.659 146.337H81.9231C80.8881 146.337 79.8956 145.926 79.1638 145.195C78.4319 144.464 78.0208 143.472 78.0208 142.438C78.0144 141.921 78.1106 141.409 78.3038 140.93C78.497 140.452 78.7834 140.016 79.1464 139.649C79.5094 139.282 79.9418 138.99 80.4184 138.791C80.8951 138.592 81.4065 138.489 81.9231 138.49H126.659" stroke="#F2F2F2" stroke-miterlimit="10"/>
<path d="M57.0264 142.438C57.0336 143.21 57.2696 143.963 57.7046 144.602C58.1397 145.241 58.7542 145.737 59.4708 146.027C60.1874 146.317 60.9739 146.388 61.7311 146.232C62.4883 146.076 63.1823 145.7 63.7256 145.15C64.269 144.6 64.6372 143.902 64.7839 143.144C64.9307 142.385 64.8493 141.6 64.5501 140.888C64.251 140.175 63.7474 139.567 63.1029 139.14C62.4584 138.714 61.7018 138.487 60.9287 138.49C60.4121 138.489 59.9007 138.592 59.424 138.791C58.9474 138.99 58.515 139.282 58.152 139.649C57.789 140.016 57.5026 140.452 57.3094 140.93C57.1162 141.409 57.02 141.922 57.0264 142.438Z" stroke="#F2F2F2" stroke-miterlimit="10"/>
<path d="M447.105 220.733C447.105 220.733 446.619 220.028 445.683 218.777" stroke="white" stroke-miterlimit="10"/>
<path d="M442.68 214.926C428.955 198.113 384.827 152.727 330.597 185.892C264.952 226.054 270.532 138.514 231.971 138.514C176.768 138.514 208.618 243.851 78.4097 250.508" stroke="white" stroke-miterlimit="10" stroke-dasharray="4.03 4.03"/>
<path d="M75.9421 250.654L73.5107 250.739" stroke="white" stroke-miterlimit="10"/>
<path d="M452.77 220.733C452.77 219.613 452.438 218.519 451.815 217.588C451.193 216.657 450.308 215.931 449.273 215.503C448.238 215.074 447.099 214.962 446 215.181C444.901 215.399 443.892 215.938 443.099 216.73C442.307 217.522 441.768 218.53 441.549 219.628C441.33 220.727 441.443 221.865 441.871 222.899C442.3 223.934 443.026 224.818 443.958 225.44C444.889 226.062 445.985 226.394 447.105 226.394C447.849 226.394 448.586 226.247 449.273 225.963C449.96 225.678 450.585 225.261 451.111 224.736C451.637 224.21 452.054 223.586 452.339 222.899C452.624 222.212 452.77 221.476 452.77 220.733Z" fill="#1D4259"/>
<path d="M457.876 179.611C455.306 177.103 451.931 175.584 448.349 175.321C444.766 175.058 441.206 176.069 438.297 178.175C435.388 180.281 433.318 183.347 432.452 186.831C431.585 190.315 431.979 193.992 433.563 197.214L433.624 197.323C433.867 197.794 434.135 198.252 434.426 198.696L447.178 220.733L459.93 198.708C460.226 198.263 460.494 197.801 460.733 197.323L460.793 197.214C462.225 194.347 462.713 191.101 462.189 187.94C461.665 184.779 460.156 181.864 457.876 179.611ZM447.105 197.554C445.684 197.554 444.295 197.133 443.114 196.344C441.932 195.555 441.011 194.434 440.468 193.122C439.924 191.81 439.781 190.367 440.059 188.974C440.336 187.581 441.02 186.302 442.025 185.298C443.03 184.294 444.31 183.61 445.704 183.333C447.097 183.056 448.542 183.198 449.855 183.741C451.167 184.285 452.289 185.205 453.079 186.386C453.868 187.566 454.29 188.955 454.29 190.374C454.29 192.279 453.533 194.105 452.185 195.451C450.838 196.798 449.011 197.554 447.105 197.554Z" fill="#E1FF29"/>
<path d="M232.518 138.49C232.518 137.37 232.186 136.275 231.563 135.344C230.941 134.413 230.056 133.688 229.021 133.259C227.986 132.831 226.847 132.719 225.748 132.937C224.649 133.156 223.64 133.695 222.847 134.487C222.055 135.278 221.516 136.287 221.297 137.385C221.079 138.483 221.191 139.621 221.619 140.656C222.048 141.69 222.774 142.574 223.706 143.197C224.638 143.819 225.733 144.151 226.853 144.151C228.356 144.151 229.797 143.554 230.859 142.492C231.921 141.431 232.518 139.991 232.518 138.49Z" fill="#1D4259"/>
<path d="M237.624 97.4164C235.063 94.8679 231.679 93.3122 228.076 93.0274C224.474 92.7425 220.887 93.7471 217.957 95.8616C215.027 97.9761 212.945 101.063 212.083 104.57C211.22 108.077 211.634 111.777 213.25 115.007L213.311 115.104C213.555 115.579 213.822 116.041 214.113 116.489L226.853 138.489L239.605 116.501C239.901 116.056 240.169 115.594 240.408 115.116L240.468 115.019C241.909 112.159 242.409 108.918 241.898 105.758C241.387 102.597 239.892 99.6779 237.624 97.4164ZM226.853 115.408C225.432 115.408 224.043 114.987 222.862 114.198C221.68 113.409 220.759 112.288 220.215 110.976C219.672 109.664 219.529 108.22 219.807 106.828C220.084 105.435 220.768 104.156 221.773 103.152C222.778 102.148 224.058 101.464 225.451 101.187C226.845 100.91 228.29 101.052 229.603 101.595C230.915 102.139 232.037 103.059 232.827 104.24C233.616 105.42 234.038 106.808 234.038 108.228C234.034 110.131 233.276 111.956 231.93 113.302C230.583 114.647 228.758 115.405 226.853 115.408Z" fill="#E1FF29"/>
<path d="M79.1756 250.739C79.1756 249.619 78.8433 248.525 78.2209 247.594C77.5984 246.663 76.7137 245.937 75.6785 245.509C74.6434 245.08 73.5044 244.968 72.4055 245.187C71.3066 245.405 70.2972 245.944 69.5049 246.736C68.7127 247.528 68.1731 248.536 67.9546 249.634C67.736 250.733 67.8482 251.871 68.2769 252.905C68.7057 253.94 69.4318 254.824 70.3634 255.446C71.295 256.068 72.3902 256.4 73.5106 256.4C75.0131 256.4 76.454 255.804 77.5164 254.742C78.5787 253.68 79.1756 252.24 79.1756 250.739Z" fill="#1D4259"/>
<path d="M84.2814 209.617C81.7113 207.115 78.3395 205.599 74.7605 205.338C71.1815 205.077 67.6251 206.087 64.7184 208.19C61.8117 210.293 59.7414 213.354 58.8723 216.833C58.0033 220.312 58.3915 223.987 59.9683 227.208V227.305C60.2122 227.78 60.48 228.242 60.7707 228.69L73.5107 250.739L86.3115 228.702C86.5984 228.254 86.8621 227.792 87.1017 227.317V227.22C88.5467 224.363 89.0521 221.123 88.5456 217.962C88.0392 214.801 86.5468 211.881 84.2814 209.617ZM73.5107 227.56C72.0903 227.558 70.7024 227.135 69.5225 226.344C68.3426 225.554 67.4237 224.432 66.8818 223.12C66.3398 221.808 66.1993 220.364 66.4779 218.972C66.7565 217.581 67.4417 216.302 68.4469 215.3C69.4522 214.297 70.7324 213.614 72.1257 213.338C73.519 213.062 74.963 213.205 76.2751 213.749C77.5872 214.292 78.7085 215.213 79.4974 216.393C80.2863 217.573 80.7074 218.961 80.7074 220.381C80.7042 222.286 79.9445 224.112 78.5952 225.458C77.2459 226.804 75.4173 227.56 73.5107 227.56Z" fill="#E1FF29"/>
<path d="M446.181 34.343V50.7187" stroke="#F2F2F2" stroke-miterlimit="10"/>
<path d="M454.375 42.5309H438" stroke="#F2F2F2" stroke-miterlimit="10"/>
<path d="M476.232 27.6129V41.0852" stroke="#F2F2F2" stroke-miterlimit="10"/>
<path d="M482.967 34.343H469.485" stroke="#F2F2F2" stroke-miterlimit="10"/>
<path d="M465 8.88033V17.8579" stroke="#F2F2F2" stroke-miterlimit="10"/>
<path d="M469.485 13.3752H460.514" stroke="#F2F2F2" stroke-miterlimit="10"/>
<path d="M454.375 60.1579V65.6853" stroke="#F2F2F2" stroke-miterlimit="10"/>
<path d="M457.146 62.9155H451.603" stroke="#F2F2F2" stroke-miterlimit="10"/>
<path d="M475.807 341.243H459.42" stroke="#F2F2F2" stroke-miterlimit="10"/>
<path d="M467.613 349.431V333.067" stroke="#F2F2F2" stroke-miterlimit="10"/>
<path d="M476.585 371.273H467.613" stroke="#F2F2F2" stroke-miterlimit="10"/>
<path d="M472.099 375.756V366.779" stroke="#F2F2F2" stroke-miterlimit="10"/>
<path d="M446.279 352.201H440.735" stroke="#F2F2F2" stroke-miterlimit="10"/>
<path d="M443.507 354.958V349.431" stroke="#F2F2F2" stroke-miterlimit="10"/>
<path d="M71.4563 350.184V333.82" stroke="#F2F2F2" stroke-miterlimit="10"/>
<path d="M63.2627 342.008H79.6497" stroke="#F2F2F2" stroke-miterlimit="10"/>
<path d="M41.4175 350.974V342.008" stroke="#F2F2F2" stroke-miterlimit="10"/>
<path d="M36.9316 346.491H45.9032" stroke="#F2F2F2" stroke-miterlimit="10"/>
<path d="M60.5032 320.688V315.149" stroke="#F2F2F2" stroke-miterlimit="10"/>
<path d="M57.7314 317.918H63.2627" stroke="#F2F2F2" stroke-miterlimit="10"/>
<path d="M60.9286 63.3772H39.9829" stroke="#F2F2F2" stroke-miterlimit="10"/>
<path d="M50.4619 73.8368V52.9054" stroke="#F2F2F2" stroke-miterlimit="10"/>
<path d="M67.2379 92.958H54.6316" stroke="#F2F2F2" stroke-miterlimit="10"/>
<path d="M60.9287 99.263V86.6531" stroke="#F2F2F2" stroke-miterlimit="10"/>
<path d="M86.8949 82.1704H77.9233" stroke="#F2F2F2" stroke-miterlimit="10"/>
<path d="M82.4092 86.6531V77.6878" stroke="#F2F2F2" stroke-miterlimit="10"/>
<path d="M32.8227 82.1704H27.2915" stroke="#F2F2F2" stroke-miterlimit="10"/>
<path d="M30.051 84.9402V79.4006" stroke="#F2F2F2" stroke-miterlimit="10"/>
<path d="M77.9235 54.3996H72.3801" stroke="#F2F2F2" stroke-miterlimit="10"/>
<path d="M75.1519 57.1694V51.642" stroke="#F2F2F2" stroke-miterlimit="10"/>
</svg>
