<svg width="98" height="46" viewBox="0 0 98 46" fill="none" xmlns="http://www.w3.org/2000/svg">
<g clip-path="url(#clip0)">
<path d="M29.5917 16.0303C28.6927 17.5685 27.3523 18.7936 25.7485 19.543C24.1447 20.2924 22.3534 20.5306 20.6125 20.2259C14.2807 19.3219 14.4172 12.0486 8.22864 14.4915C2.0401 16.9343 0 12.2556 0 12.2556C0 12.2556 6.14078 15.285 7.73738 11.9382C9.38174 8.48786 4.42818 8.48786 3.16591 9.62647C3.16591 9.62647 7.212 5.21693 10.9374 5.18243C14.3899 5.18243 16.2867 5.96221 18.8522 8.63277C18.3399 7.14959 17.3231 5.89882 15.9833 5.10375C14.6435 4.30868 13.0679 4.02106 11.5378 4.29224C10.4325 4.43715 7.9489 4.78909 7.0346 3.8644C7.0346 3.8644 9.26575 3.54006 10.1664 2.72578C13.2914 -0.117301 29.5917 -2.0702 29.5917 7.65978V16.0303Z" fill="#B51620"/>
<path d="M29.5849 7.17672C28.2203 4.94779 23.7512 2.19442 14.8811 2.81548C14.8811 2.81548 23.5055 6.12091 18.9136 11.607C18.9136 11.607 13.8372 5.21002 7.86019 7.39064C7.86019 7.39064 11.0602 10.841 7.58044 13.5046C7.58044 13.5046 12.0291 11.255 15.2291 15.1953C18.3405 19.0252 24.877 20.9229 29.5576 14.5398L29.5849 7.17672Z" fill="#DC5D28"/>
<path d="M28.6569 10.6133C28.6569 11.8761 26.4394 14.4225 23.6761 10.5788C20.9127 6.73509 21.5609 4.45786 17.5353 3.31924C17.4739 3.31924 28.3976 3.32614 28.6569 10.6133Z" fill="#F9B233"/>
<path d="M28.657 14.4914C28.657 14.4914 23.7853 19.6186 19.8962 17.3C16.007 14.9814 13.4961 10.4821 9.74341 12.0279C9.74341 12.0279 12.1793 9.35732 15.3725 10.9031C18.5657 12.4488 21.8339 17.024 28.657 14.4914Z" fill="#F9B233"/>
<path d="M10.0162 10.7168C10.0162 10.7168 9.96847 8.0876 8.71985 7.71497C8.71985 7.71497 16.1775 8.0462 18.4496 12.1245C18.4223 12.1245 14.7446 7.94959 10.0162 10.7168Z" fill="#F9B233"/>
<path d="M20.4078 4.31293C20.4078 4.31293 23.1371 6.43834 23.4782 8.57755C23.8194 10.7168 26.2075 12.8491 27.3879 11.0342C28.5682 9.21932 25.6139 4.89259 20.4078 4.31293Z" fill="#FECD65"/>
<path d="M26.1119 15.6508C26.1119 15.6508 21.9362 16.3891 18.9818 14.105C16.0274 11.8209 13.1413 10.8686 11.5992 11.2205C11.5992 11.2205 15.6317 11.8485 17.1259 14.3465C18.6202 16.8446 23.2599 17.7969 26.1119 15.6508Z" fill="#FECD65"/>
<path d="M27.0944 14.0774C27.0944 14.0774 21.636 15.216 19.6777 12.0072C19.6777 12.0072 20.9468 11.3171 20.9946 7.33542C20.9946 7.34232 21.6701 13.7117 27.0944 14.0774Z" fill="#F9B233"/>
<path d="M21.2266 9.97839C21.2266 9.97839 21.1789 11.8278 20.2305 12.228C20.2305 12.228 21.2744 13.7945 24.6791 13.7945C24.6791 13.8014 21.1516 11.9658 21.2266 9.97839Z" fill="#FECD65"/>
<path d="M10.3302 10.1647C10.3302 10.1647 10.4871 8.63276 9.6001 8.16351C11.8901 8.27513 14.114 8.97579 16.0616 10.1992C16.0616 10.1992 12.9639 8.47404 10.3302 10.1647Z" fill="#FECD65"/>
<path d="M29.5917 17.7279C28.6927 16.1897 27.3523 14.9646 25.7485 14.2152C24.1447 13.4658 22.3534 13.2276 20.6125 13.5323C14.2807 14.4915 14.4172 21.7165 8.22864 19.3219C2.0401 16.9274 0 21.5026 0 21.5026C0 21.5026 6.14078 18.4801 7.73738 21.82C9.38174 25.2703 4.42818 25.2703 3.16591 24.1317C3.16591 24.1317 7.212 28.5413 10.9374 28.5827C14.3899 28.5827 16.2867 27.796 18.8522 25.1323C18.3386 26.6142 17.3213 27.8634 15.9816 28.6572C14.642 29.4509 13.0671 29.7375 11.5378 29.466C10.4325 29.321 7.9489 28.9691 7.0346 29.8938C7.0346 29.8938 9.26575 30.2181 10.1664 31.0324C13.2914 33.8824 29.5917 35.8629 29.5917 26.1053V17.7279Z" fill="#B51620"/>
<path d="M29.5849 26.5815C28.2203 28.8104 23.7512 31.5707 14.8811 30.9427C14.8811 30.9427 23.5055 27.6373 18.9136 22.1512C18.9136 22.1512 13.8372 28.5551 7.86019 26.3744C7.86019 26.3744 11.0602 22.9241 7.58044 20.2535C7.58044 20.2535 12.0291 22.5032 15.2291 18.5698C18.4292 14.6364 24.877 12.8353 29.5576 19.2184L29.5849 26.5815Z" fill="#DC5D28"/>
<path d="M28.6569 23.1449C28.6569 21.889 26.4394 19.3357 23.6761 23.1863C20.9127 27.0369 21.5609 29.3003 17.5353 30.4458C17.4739 30.4458 28.3976 30.432 28.6569 23.1449Z" fill="#F9B233"/>
<path d="M28.657 19.2667C28.657 19.2667 23.7853 14.1395 19.8962 16.4582C16.007 18.7768 13.4961 23.276 9.74341 21.7303C9.74341 21.7303 12.1793 24.4008 15.3725 22.8551C18.5657 21.3093 21.8339 16.7411 28.657 19.2667Z" fill="#F9B233"/>
<path d="M10.0162 23.0414C10.0162 23.0414 9.96847 25.6706 8.71985 26.0432C8.71985 26.0432 16.1775 25.7189 18.4496 21.6337C18.4223 21.6337 14.7446 25.8086 10.0162 23.0414Z" fill="#F9B233"/>
<path d="M20.4078 29.4522C20.4078 29.4522 23.1371 27.3198 23.4782 25.1806C23.8194 23.0414 26.2075 20.9091 27.3879 22.724C28.5682 24.5389 25.6139 28.8656 20.4078 29.4522Z" fill="#FECD65"/>
<path d="M26.1119 18.1074C26.1119 18.1074 21.9362 17.369 18.9818 19.6601C16.0274 21.9511 13.1413 22.8896 11.5992 22.5376C11.5992 22.5376 15.6317 21.9097 17.1259 19.4116C18.6202 16.9136 23.2599 15.9682 26.1119 18.1074Z" fill="#FECD65"/>
<path d="M27.0944 19.6808C27.0944 19.6808 21.636 18.5422 19.6777 21.751C19.6777 21.751 20.9468 22.441 20.9946 26.4296C20.9946 26.4227 21.6701 20.0534 27.0944 19.6808Z" fill="#F9B233"/>
<path d="M21.2266 23.7798C21.2266 23.7798 21.1516 21.9304 20.2305 21.5301C20.2305 21.5301 21.2744 19.9637 24.6791 19.9637C24.6791 19.9637 21.1516 21.7924 21.2266 23.7798Z" fill="#FECD65"/>
<path d="M10.3302 23.5934C10.3302 23.5934 10.4871 25.1254 9.6001 25.6015C11.8935 25.4813 14.1181 24.7686 16.0616 23.5313C16.0616 23.5313 12.9639 25.2841 10.3302 23.5934Z" fill="#FECD65"/>
<path d="M95.9871 33.3924C95.988 33.5851 95.9512 33.7761 95.879 33.9544C95.8067 34.1327 95.7003 34.2948 95.5658 34.4314C95.4314 34.5679 95.2717 34.6763 95.0957 34.7503C94.9198 34.8242 94.7311 34.8623 94.5406 34.8623H68.6879C68.3025 34.8623 67.9328 34.7074 67.6603 34.4318C67.3877 34.1561 67.2346 33.7823 67.2346 33.3924V7.51484C67.2346 7.32215 67.2723 7.13134 67.3454 6.9534C67.4185 6.77546 67.5257 6.61388 67.6607 6.47794C67.7957 6.342 67.956 6.23438 68.1323 6.16127C68.3086 6.08816 68.4974 6.05099 68.6879 6.0519H83.0164C83.5688 6.03376 84.1059 6.23715 84.5107 6.61775C85.2544 7.36303 95.9666 19.5842 95.9666 20.4191L95.9871 33.3924Z" fill="#2C1908"/>
<path d="M89.8873 19.4737H73.9213C73.5593 19.4737 73.2122 19.3283 72.9563 19.0695C72.7004 18.8107 72.5566 18.4596 72.5566 18.0936V9.66096C72.5566 9.29493 72.7004 8.94388 72.9563 8.68506C73.2122 8.42623 73.5593 8.28082 73.9213 8.28082H83.1461C83.3781 8.28082 83.726 8.28082 87.506 12.6835C91.286 17.0861 91.2519 17.4311 91.2519 17.6106V18.0936C91.2519 18.4596 91.1081 18.8107 90.8522 19.0695C90.5963 19.3283 90.2492 19.4737 89.8873 19.4737ZM73.9213 9.22622C73.8073 9.22622 73.6979 9.27202 73.6173 9.35355C73.5367 9.43508 73.4914 9.54566 73.4914 9.66096V18.0936C73.4932 18.2077 73.5393 18.3165 73.6197 18.3966C73.7001 18.4766 73.8084 18.5215 73.9213 18.5214H89.8873C89.9428 18.5214 89.9979 18.5104 90.0492 18.4889C90.1005 18.4674 90.1471 18.4359 90.1864 18.3961C90.2257 18.3564 90.2569 18.3092 90.2781 18.2573C90.2994 18.2054 90.3103 18.1498 90.3103 18.0936V17.6934C89.7918 16.6928 83.9717 9.91629 83.0369 9.22622H73.9213Z" fill="#1A0B00"/>
<path d="M28.5751 -7.32799e-06H69.1929C69.4243 -0.00182882 69.6538 0.042699 69.8681 0.131009C70.0825 0.219318 70.2774 0.349663 70.4417 0.514527C70.6059 0.679392 70.7363 0.875514 70.8253 1.09159C70.9143 1.30766 70.9601 1.53941 70.9601 1.77347V33.0888C70.9601 33.5592 70.7753 34.0102 70.4465 34.3428C70.1176 34.6754 69.6716 34.8623 69.2065 34.8623H28.5751C28.1082 34.8623 27.6604 34.6747 27.3303 34.3408C27.0002 34.0069 26.8147 33.5541 26.8147 33.0819V1.77347C26.8147 1.53999 26.8603 1.30881 26.9488 1.09319C27.0374 0.877573 27.1672 0.681759 27.3307 0.516986C27.4943 0.352213 27.6884 0.221724 27.9019 0.133005C28.1154 0.0442861 28.3442 -0.000915803 28.5751 -7.32799e-06Z" fill="#9CB3C1"/>
<path d="M96.4784 31.1635H27.2514C26.4111 31.1635 25.7299 31.8525 25.7299 32.7024V35.6421C25.7299 36.4919 26.4111 37.1809 27.2514 37.1809H96.4784C97.3188 37.1809 98 36.4919 98 35.6421V32.7024C98 31.8525 97.3188 31.1635 96.4784 31.1635Z" fill="#432918"/>
<path d="M90.2286 17.8866C90.2286 18.1142 90.1397 18.3325 89.9812 18.4941C89.8227 18.6557 89.6076 18.7473 89.3825 18.7492H74.1807C73.9545 18.7492 73.7376 18.6583 73.5776 18.4965C73.4177 18.3348 73.3278 18.1154 73.3278 17.8866V9.86108C73.3242 9.7455 73.3435 9.63036 73.3847 9.52249C73.426 9.41463 73.4882 9.31626 73.5678 9.23321C73.6473 9.15017 73.7426 9.08415 73.8479 9.03908C73.9532 8.99402 74.0664 8.97083 74.1807 8.97089H82.962C83.4396 8.97089 90.2286 16.9274 90.2286 17.4035V17.8866Z" fill="#D3D5C4"/>
<path d="M73.9963 18.5352V10.5097C73.9972 10.3974 74.0199 10.2863 74.0633 10.1828C74.1066 10.0793 74.1697 9.98551 74.2489 9.90669C74.3281 9.82787 74.4219 9.76561 74.5249 9.72344C74.6279 9.68128 74.738 9.66005 74.8492 9.66096H83.6305C83.6885 9.67911 83.7421 9.70971 83.7874 9.75066C83.5525 9.44281 83.2662 9.17891 82.9413 8.97089H74.16C73.9338 8.97089 73.7169 9.06177 73.5569 9.22353C73.397 9.3853 73.3071 9.6047 73.3071 9.83347V17.8866C73.3063 18.086 73.3738 18.2796 73.4982 18.4343C73.6226 18.5891 73.7962 18.6955 73.9894 18.7354C73.9847 18.6686 73.9869 18.6015 73.9963 18.5352Z" fill="#A2A497"/>
<path d="M48.7168 37.6571C48.7182 39.3088 48.2351 40.9238 47.3288 42.2979C46.4224 43.6719 45.1335 44.7432 43.625 45.3762C42.1166 46.0093 40.4564 46.1756 38.8544 45.8542C37.2525 45.5328 35.7808 44.7381 34.6255 43.5706C33.4702 42.4032 32.6832 40.9154 32.3641 39.2955C32.045 37.6756 32.2081 35.9963 32.8328 34.4702C33.4574 32.9441 34.5156 31.6396 35.8734 30.7218C37.2313 29.804 38.8277 29.3141 40.4609 29.3141C41.5448 29.3132 42.6182 29.5283 43.6198 29.9472C44.6214 30.3661 45.5316 30.9805 46.2983 31.7553C47.065 32.5301 47.6733 33.4501 48.0883 34.4628C48.5032 35.4754 48.7168 36.5609 48.7168 37.6571Z" fill="#241201"/>
<path d="M40.4609 31.7018C42.0166 31.701 43.5161 32.2903 44.6631 33.3533C45.8101 34.4163 46.5213 35.8756 46.6562 37.4431C46.6562 37.2637 46.6562 37.0843 46.6562 36.898C46.6028 35.2658 45.9241 33.7186 44.7636 32.5832C43.6031 31.4477 42.0517 30.8129 40.437 30.8129C38.8223 30.8129 37.2708 31.4477 36.1104 32.5832C34.9499 33.7186 34.2712 35.2658 34.2177 36.898C34.2074 37.0796 34.2074 37.2616 34.2177 37.4431C34.3533 35.8673 35.0713 34.4011 36.2285 33.3369C37.3856 32.2727 38.8969 31.6889 40.4609 31.7018Z" fill="#4C2F1D"/>
<path d="M45.2098 37.6571C45.2098 38.6124 44.9297 39.5464 44.4049 40.3407C43.8801 41.1351 43.1341 41.7542 42.2614 42.1198C41.3887 42.4854 40.4283 42.5811 39.5019 42.3947C38.5754 42.2083 37.7243 41.7483 37.0564 41.0727C36.3884 40.3972 35.9335 39.5365 35.7492 38.5994C35.565 37.6624 35.6595 36.6912 36.021 35.8085C36.3825 34.9259 36.9947 34.1714 37.7801 33.6407C38.5656 33.1099 39.489 32.8266 40.4336 32.8266C41.0621 32.822 41.6852 32.9438 42.2667 33.1849C42.8483 33.426 43.3766 33.7817 43.821 34.2312C44.2654 34.6806 44.6171 35.215 44.8555 35.8031C45.0939 36.3912 45.2143 37.0214 45.2098 37.6571Z" fill="#D3D5C4"/>
<path d="M36.0054 38.1401C36.0278 37.1327 36.3612 36.1575 36.9588 35.3512C37.5564 34.5449 38.3885 33.9479 39.3383 33.6436C40.2882 33.3394 41.3084 33.3432 42.256 33.6545C43.2036 33.9658 44.0312 34.5691 44.623 35.3798C44.1043 34.4653 43.304 33.7474 42.3443 33.3359C41.3845 32.9243 40.3179 32.8417 39.3074 33.1005C38.2968 33.3593 37.3977 33.9455 36.7473 34.7694C36.0969 35.5934 35.7309 36.61 35.7052 37.664C35.7052 38.6536 36.0105 39.6185 36.5786 40.4243C36.2005 39.7238 36.0033 38.9382 36.0054 38.1401Z" fill="#A2A497"/>
<path d="M44.9232 37.1809C44.9225 38.1992 44.6013 39.1909 44.0062 40.0123C43.411 40.8337 42.5728 41.4422 41.6129 41.7496C40.653 42.0571 39.6213 42.0476 38.6671 41.7224C37.713 41.3973 36.8859 40.7734 36.3057 39.9412C36.6117 40.5188 37.0315 41.0269 37.5391 41.4341C38.0468 41.8413 38.6316 42.1389 39.2575 42.3086C39.8833 42.4783 40.5369 42.5165 41.1779 42.4209C41.8189 42.3252 42.4337 42.0977 42.9844 41.7524C43.5351 41.407 44.01 40.9512 44.3797 40.4131C44.7495 39.875 45.0063 39.2659 45.1342 38.6235C45.2622 37.9811 45.2587 37.319 45.1238 36.678C44.9889 36.037 44.7256 35.4308 44.3501 34.8968C44.729 35.5969 44.9262 36.3828 44.9232 37.1809Z" fill="#EBEDD9"/>
<path d="M42.1599 37.6571C42.1599 37.9972 42.06 38.3297 41.8731 38.6124C41.6861 38.8951 41.4203 39.1153 41.1095 39.2452C40.7986 39.375 40.4567 39.4087 40.1269 39.3418C39.7972 39.2749 39.4945 39.1106 39.2572 38.8696C39.0198 38.6286 38.8586 38.3218 38.7938 37.988C38.729 37.6543 38.7636 37.3086 38.8933 36.9947C39.0229 36.6809 39.2417 36.413 39.522 36.225C39.8023 36.037 40.1314 35.9374 40.4677 35.9388C40.6905 35.9388 40.9111 35.9833 41.1169 36.0697C41.3226 36.1562 41.5095 36.2828 41.6667 36.4425C41.8239 36.6021 41.9484 36.7916 42.033 37C42.1177 37.2085 42.1608 37.4317 42.1599 37.6571Z" fill="#241201"/>
<path d="M41.2319 34.5034C41.2319 34.6563 41.187 34.8057 41.1031 34.9328C41.0191 35.0599 40.8998 35.159 40.7601 35.2175C40.6205 35.276 40.4668 35.2913 40.3186 35.2615C40.1704 35.2316 40.0342 35.158 39.9273 35.0499C39.8204 34.9419 39.7477 34.8041 39.7182 34.6542C39.6887 34.5043 39.7038 34.3489 39.7617 34.2077C39.8195 34.0664 39.9175 33.9457 40.0431 33.8608C40.1688 33.7759 40.3165 33.7306 40.4677 33.7306C40.6704 33.7306 40.8647 33.812 41.008 33.9569C41.1514 34.1019 41.2319 34.2985 41.2319 34.5034Z" fill="#241201"/>
<path d="M41.2319 40.8107C41.2292 40.9629 41.1821 41.111 41.0965 41.2362C41.0109 41.3615 40.8906 41.4584 40.7508 41.5148C40.6109 41.5712 40.4577 41.5845 40.3104 41.5532C40.1631 41.5218 40.0282 41.4471 39.9227 41.3385C39.8172 41.2299 39.7457 41.0922 39.7173 40.9426C39.6889 40.7931 39.7048 40.6384 39.7631 40.498C39.8213 40.3576 39.9192 40.2377 40.0446 40.1533C40.1699 40.069 40.3171 40.024 40.4677 40.024C40.5692 40.024 40.6697 40.0444 40.7633 40.0841C40.8569 40.1238 40.9418 40.182 41.0129 40.2552C41.0841 40.3285 41.1401 40.4153 41.1777 40.5107C41.2152 40.606 41.2337 40.708 41.2319 40.8107Z" fill="#241201"/>
<path d="M43.5858 38.4299C43.4347 38.4299 43.287 38.3846 43.1613 38.2997C43.0356 38.2148 42.9377 38.0941 42.8798 37.9528C42.822 37.8116 42.8069 37.6562 42.8363 37.5063C42.8658 37.3564 42.9386 37.2186 43.0455 37.1106C43.1524 37.0025 43.2885 36.9289 43.4368 36.899C43.585 36.8692 43.7386 36.8845 43.8783 36.943C44.0179 37.0015 44.1373 37.1006 44.2212 37.2277C44.3052 37.3548 44.35 37.5042 44.35 37.6571C44.35 37.862 44.2695 38.0586 44.1262 38.2036C43.9829 38.3485 43.7885 38.4299 43.5858 38.4299Z" fill="#241201"/>
<path d="M37.3428 38.4299C37.1917 38.4299 37.0439 38.3846 36.9182 38.2997C36.7926 38.2148 36.6946 38.0941 36.6368 37.9528C36.5789 37.8116 36.5638 37.6562 36.5933 37.5063C36.6228 37.3564 36.6956 37.2186 36.8024 37.1106C36.9093 37.0025 37.0455 36.9289 37.1937 36.899C37.342 36.8692 37.4956 36.8845 37.6352 36.943C37.7749 37.0015 37.8942 37.1006 37.9782 37.2277C38.0622 37.3548 38.107 37.5042 38.107 37.6571C38.107 37.862 38.0265 38.0586 37.8832 38.2036C37.7399 38.3485 37.5455 38.4299 37.3428 38.4299Z" fill="#241201"/>
<path d="M38.7961 34.8761C38.9034 34.984 38.9765 35.1217 39.0063 35.2718C39.0361 35.4218 39.0212 35.5774 38.9635 35.7188C38.9058 35.8603 38.8078 35.9812 38.6821 36.0663C38.5563 36.1514 38.4084 36.1968 38.2571 36.1968C38.1058 36.1968 37.9579 36.1514 37.8322 36.0663C37.7064 35.9812 37.6085 35.8603 37.5507 35.7188C37.493 35.5774 37.4781 35.4218 37.5079 35.2718C37.5377 35.1217 37.6108 34.984 37.7181 34.8761C37.7885 34.8039 37.8725 34.7466 37.965 34.7075C38.0575 34.6683 38.1568 34.6482 38.2571 34.6482C38.3574 34.6482 38.4567 34.6683 38.5492 34.7075C38.6418 34.7466 38.7257 34.8039 38.7961 34.8761Z" fill="#241201"/>
<path d="M43.2106 39.3339C43.3178 39.4419 43.391 39.5796 43.4208 39.7296C43.4506 39.8796 43.4356 40.0352 43.3779 40.1767C43.3202 40.3181 43.2222 40.439 43.0965 40.5241C42.9707 40.6092 42.8228 40.6547 42.6715 40.6547C42.5202 40.6547 42.3723 40.6092 42.2466 40.5241C42.1208 40.439 42.0229 40.3181 41.9652 40.1767C41.9074 40.0352 41.8925 39.8796 41.9223 39.7296C41.9521 39.5796 42.0253 39.4419 42.1325 39.3339C42.203 39.2617 42.2869 39.2044 42.3794 39.1653C42.472 39.1262 42.5712 39.106 42.6715 39.106C42.7718 39.106 42.8711 39.1262 42.9637 39.1653C43.0562 39.2044 43.1401 39.2617 43.2106 39.3339Z" fill="#241201"/>
<path d="M43.2106 35.9733C43.0667 36.1179 42.872 36.1987 42.6692 36.1981C42.4663 36.1975 42.2721 36.1153 42.1291 35.9699C41.9862 35.8244 41.9062 35.6274 41.9069 35.4223C41.9075 35.2171 41.9887 35.0207 42.1325 34.8761C42.203 34.8039 42.2869 34.7466 42.3795 34.7075C42.472 34.6683 42.5713 34.6482 42.6716 34.6482C42.7719 34.6482 42.8712 34.6683 42.9637 34.7075C43.0562 34.7466 43.1401 34.8039 43.2106 34.8761C43.2822 34.9479 43.339 35.0334 43.3778 35.1276C43.4165 35.2217 43.4365 35.3227 43.4365 35.4247C43.4365 35.5267 43.4165 35.6277 43.3778 35.7218C43.339 35.816 43.2822 35.9015 43.2106 35.9733Z" fill="#241201"/>
<path d="M38.7961 40.4311C38.6894 40.5396 38.5532 40.6136 38.4049 40.6437C38.2566 40.6739 38.1027 40.6588 37.9629 40.6004C37.823 40.542 37.7034 40.4429 37.6193 40.3158C37.5351 40.1886 37.4902 40.039 37.4902 39.886C37.4902 39.733 37.5351 39.5834 37.6193 39.4562C37.7034 39.329 37.823 39.2299 37.9629 39.1716C38.1027 39.1132 38.2566 39.0981 38.4049 39.1282C38.5532 39.1584 38.6894 39.2323 38.7961 39.3408C38.8675 39.4121 38.9242 39.497 38.9629 39.5905C39.0015 39.6841 39.0215 39.7845 39.0215 39.886C39.0215 39.9874 39.0015 40.0878 38.9629 40.1814C38.9242 40.275 38.8675 40.3599 38.7961 40.4311Z" fill="#241201"/>
<path d="M96.7036 33.9997C96.7036 34.3275 96.6073 34.648 96.4271 34.9205C96.2469 35.193 95.9907 35.4053 95.6911 35.5304C95.3915 35.6556 95.0619 35.688 94.744 35.6235C94.4262 35.559 94.1344 35.4006 93.9057 35.1683C93.6769 34.936 93.5215 34.6403 93.4591 34.3185C93.3967 33.9968 93.4301 33.6636 93.5551 33.3611C93.6801 33.0586 93.891 32.8004 94.1612 32.6193C94.4314 32.4381 94.7487 32.3422 95.0728 32.3435C95.2876 32.3435 95.5002 32.3864 95.6985 32.4697C95.8968 32.553 96.0768 32.6751 96.2283 32.829C96.3799 32.9829 96.4998 33.1655 96.5814 33.3664C96.6629 33.5673 96.7045 33.7825 96.7036 33.9997Z" fill="#BB541F"/>
<path d="M95.9941 29.9421H93.5582C93.3972 29.9421 93.2427 29.8774 93.1289 29.7622C93.015 29.647 92.951 29.4908 92.951 29.3279L92.371 24.6355C92.3763 24.4744 92.4434 24.3217 92.558 24.2096C92.6726 24.0976 92.8257 24.035 92.9851 24.0351H95.9941V23.6142H92.9783C92.7062 23.6142 92.4452 23.723 92.2522 23.9169C92.0592 24.1108 91.9498 24.3741 91.948 24.6493L92.528 29.3417C92.5316 29.6139 92.641 29.8736 92.8325 30.0648C93.0241 30.2559 93.2823 30.3631 93.5514 30.363H95.9804L95.9941 29.9421Z" fill="#1A0B00"/>
<path d="M95.9871 24.0351H92.9781C92.8194 24.0351 92.667 24.0979 92.5535 24.2101C92.44 24.3223 92.3744 24.475 92.3708 24.6355L92.9508 29.3279C92.9508 29.4908 93.0148 29.647 93.1287 29.7622C93.2426 29.8774 93.397 29.9421 93.5581 29.9421H95.9871V24.0351Z" fill="#D3D5C4"/>
<path d="M94.7387 29.1623C94.7387 29.1623 95.073 26.1053 95.073 25.0219C95.073 24.2352 94.3498 24.0627 93.9608 24.0282H92.9578C92.7991 24.0282 92.6467 24.091 92.5332 24.2032C92.4197 24.3154 92.3542 24.4681 92.3506 24.6286L92.9305 29.321C92.9305 29.4839 92.9945 29.6401 93.1084 29.7553C93.2223 29.8705 93.3767 29.9352 93.5378 29.9352H93.5992C93.8438 29.9366 94.0832 29.8637 94.2864 29.7259C94.4895 29.5881 94.6471 29.3917 94.7387 29.1623Z" fill="#BB541F"/>
<path d="M78.2746 23.2346C78.2791 23.3529 78.2602 23.4709 78.2188 23.5816C78.1773 23.6924 78.1144 23.7935 78.0335 23.8791C77.9527 23.9648 77.8557 24.0331 77.7482 24.08C77.6408 24.127 77.5251 24.1516 77.408 24.1524H73.6485C73.4181 24.1506 73.1977 24.0567 73.0354 23.8913C72.8731 23.7258 72.782 23.5022 72.782 23.2691C72.782 23.0367 72.8733 22.8138 73.0358 22.6494C73.1983 22.4851 73.4187 22.3927 73.6485 22.3927H77.408C77.6379 22.3927 77.8583 22.4851 78.0208 22.6494C78.1833 22.8138 78.2746 23.0367 78.2746 23.2691V23.2346Z" fill="#D3D5C4"/>
<path d="M88.4682 37.6571C88.4695 39.3088 87.9865 40.9238 87.0801 42.2979C86.1738 43.6719 84.8848 44.7432 83.3764 45.3762C81.8679 46.0093 80.2077 46.1756 78.6058 45.8542C77.0038 45.5328 75.5321 44.7381 74.3768 43.5706C73.2215 42.4032 72.4345 40.9154 72.1154 39.2955C71.7963 37.6756 71.9594 35.9963 72.5841 34.4702C73.2088 32.9441 74.2669 31.6396 75.6248 30.7218C76.9826 29.804 78.5791 29.3141 80.2122 29.3141C81.2961 29.3132 82.3695 29.5283 83.3711 29.9472C84.3727 30.3661 85.2829 30.9805 86.0497 31.7553C86.8164 32.5301 87.4246 33.4501 87.8396 34.4628C88.2546 35.4754 88.4682 36.5609 88.4682 37.6571Z" fill="#241201"/>
<path d="M80.2121 31.7018C81.7679 31.701 83.2673 32.2903 84.4143 33.3533C85.5614 34.4163 86.2726 35.8756 86.4075 37.4431C86.4075 37.2637 86.4075 37.0843 86.4075 36.898C86.354 35.2658 85.6754 33.7186 84.5149 32.5832C83.3544 31.4477 81.8029 30.8129 80.1882 30.8129C78.5736 30.8129 77.0221 31.4477 75.8616 32.5832C74.7011 33.7186 74.0225 35.2658 73.969 36.898C73.969 37.0843 73.969 37.2637 73.969 37.4431C74.1046 35.8673 74.8225 34.4011 75.9797 33.3369C77.1369 32.2727 78.6482 31.6889 80.2121 31.7018Z" fill="#4C2F1D"/>
<path d="M84.961 37.6571C84.961 38.6124 84.6809 39.5464 84.1561 40.3407C83.6313 41.1351 82.8853 41.7542 82.0126 42.1198C81.1399 42.4854 80.1796 42.5811 79.2531 42.3947C78.3266 42.2083 77.4756 41.7483 76.8076 41.0727C76.1396 40.3972 75.6848 39.5365 75.5005 38.5994C75.3162 37.6624 75.4108 36.6912 75.7723 35.8085C76.1338 34.9259 76.7459 34.1714 77.5314 33.6407C78.3168 33.1099 79.2402 32.8266 80.1849 32.8266C80.8133 32.822 81.4365 32.9438 82.018 33.1849C82.5995 33.426 83.1278 33.7817 83.5722 34.2312C84.0166 34.6806 84.3683 35.215 84.6067 35.8031C84.8451 36.3912 84.9656 37.0214 84.961 37.6571Z" fill="#D3D5C4"/>
<path d="M75.7362 38.1401C75.7586 37.1327 76.0919 36.1575 76.6896 35.3512C77.2872 34.5449 78.1192 33.9479 79.0691 33.6436C80.019 33.3394 81.0391 33.3432 81.9867 33.6545C82.9344 33.9658 83.762 34.5691 84.3537 35.3798C84.0742 34.7524 83.6654 34.1926 83.1546 33.7379C82.6439 33.2832 82.0429 32.9441 81.392 32.7434C80.7412 32.5427 80.0554 32.485 79.3807 32.5741C78.706 32.6632 78.0579 32.8971 77.4798 33.2601C76.9017 33.623 76.407 34.1068 76.0287 34.6789C75.6505 35.2509 75.3975 35.8982 75.2867 36.5771C75.1759 37.2561 75.2098 37.9513 75.3861 38.6159C75.5625 39.2806 75.8772 39.8995 76.3093 40.4311C75.9301 39.7286 75.7329 38.9405 75.7362 38.1401Z" fill="#A2A497"/>
<path d="M84.6744 37.1809C84.6737 38.1992 84.3525 39.1909 83.7574 40.0123C83.1622 40.8337 82.324 41.4422 81.3641 41.7496C80.4043 42.0571 79.3725 42.0476 78.4184 41.7224C77.4642 41.3973 76.6371 40.7734 76.0569 39.9412C76.3629 40.5188 76.7827 41.0269 77.2904 41.4341C77.7981 41.8413 78.3829 42.1389 79.0087 42.3086C79.6345 42.4783 80.2881 42.5165 80.9291 42.4209C81.5701 42.3252 82.185 42.0977 82.7356 41.7524C83.2863 41.407 83.7612 40.9512 84.131 40.4131C84.5007 39.875 84.7575 39.2659 84.8855 38.6235C85.0134 37.9811 85.0099 37.319 84.875 36.678C84.7401 36.037 84.4768 35.4308 84.1013 34.8968C84.4759 35.5986 84.6728 36.3834 84.6744 37.1809Z" fill="#EBEDD9"/>
<path d="M81.9111 37.6571C81.9111 37.9972 81.8113 38.3297 81.6243 38.6124C81.4373 38.8951 81.1716 39.1153 80.8607 39.2452C80.5499 39.375 80.2079 39.4087 79.8782 39.3418C79.5484 39.2749 79.2457 39.1106 79.0084 38.8696C78.7711 38.6286 78.6098 38.3218 78.545 37.988C78.4802 37.6543 78.5148 37.3086 78.6445 36.9947C78.7741 36.6809 78.9929 36.413 79.2732 36.225C79.5535 36.037 79.8827 35.9374 80.219 35.9388C80.4417 35.9388 80.6623 35.9833 80.8681 36.0697C81.0738 36.1562 81.2607 36.2828 81.4179 36.4425C81.5751 36.6021 81.6996 36.7916 81.7842 37C81.8689 37.2085 81.912 37.4317 81.9111 37.6571Z" fill="#241201"/>
<path d="M80.9832 34.5034C80.9832 34.6563 80.9384 34.8057 80.8544 34.9328C80.7704 35.0599 80.6511 35.159 80.5115 35.2175C80.3718 35.276 80.2182 35.2913 80.0699 35.2615C79.9217 35.2316 79.7855 35.158 79.6787 35.0499C79.5718 34.9419 79.499 34.8041 79.4695 34.6542C79.44 34.5043 79.4552 34.3489 79.513 34.2077C79.5708 34.0664 79.6688 33.9457 79.7945 33.8608C79.9201 33.7759 80.0679 33.7306 80.219 33.7306C80.4217 33.7306 80.6161 33.812 80.7594 33.9569C80.9027 34.1019 80.9832 34.2985 80.9832 34.5034Z" fill="#241201"/>
<path d="M80.9833 40.8107C80.9806 40.9629 80.9335 41.111 80.848 41.2362C80.7624 41.3615 80.6421 41.4584 80.5022 41.5148C80.3624 41.5712 80.2092 41.5845 80.0619 41.5532C79.9145 41.5218 79.7797 41.4471 79.6741 41.3385C79.5686 41.2299 79.4972 41.0922 79.4688 40.9426C79.4404 40.7931 79.4563 40.6384 79.5145 40.498C79.5727 40.3576 79.6707 40.2377 79.796 40.1533C79.9214 40.069 80.0686 40.024 80.2191 40.024C80.3207 40.024 80.4211 40.0444 80.5148 40.0841C80.6084 40.1238 80.6932 40.182 80.7644 40.2552C80.8355 40.3285 80.8915 40.4153 80.9291 40.5107C80.9667 40.606 80.9851 40.708 80.9833 40.8107Z" fill="#241201"/>
<path d="M83.3372 38.4299C83.186 38.4299 83.0383 38.3846 82.9126 38.2997C82.787 38.2148 82.689 38.0941 82.6312 37.9528C82.5733 37.8116 82.5582 37.6562 82.5877 37.5063C82.6172 37.3564 82.6899 37.2186 82.7968 37.1106C82.9037 37.0025 83.0399 36.9289 83.1881 36.899C83.3363 36.8692 83.49 36.8845 83.6296 36.943C83.7693 37.0015 83.8886 37.1006 83.9726 37.2277C84.0565 37.3548 84.1014 37.5042 84.1014 37.6571C84.1014 37.862 84.0209 38.0586 83.8775 38.2036C83.7342 38.3485 83.5399 38.4299 83.3372 38.4299Z" fill="#241201"/>
<path d="M77.1009 38.4299C76.9497 38.4299 76.802 38.3846 76.6763 38.2997C76.5506 38.2148 76.4527 38.0941 76.3948 37.9528C76.337 37.8116 76.3219 37.6562 76.3514 37.5063C76.3808 37.3564 76.4536 37.2186 76.5605 37.1106C76.6674 37.0025 76.8035 36.9289 76.9518 36.899C77.1 36.8692 77.2537 36.8845 77.3933 36.943C77.5329 37.0015 77.6523 37.1006 77.7363 37.2277C77.8202 37.3548 77.8651 37.5042 77.8651 37.6571C77.8651 37.862 77.7845 38.0586 77.6412 38.2036C77.4979 38.3485 77.3035 38.4299 77.1009 38.4299Z" fill="#241201"/>
<path d="M78.5542 34.8761C78.6254 34.9481 78.6819 35.0337 78.7205 35.1278C78.759 35.2219 78.7789 35.3228 78.7789 35.4247C78.7789 35.5266 78.759 35.6275 78.7205 35.7216C78.6819 35.8157 78.6254 35.9013 78.5542 35.9733C78.483 36.0454 78.3984 36.1025 78.3053 36.1415C78.2122 36.1805 78.1125 36.2006 78.0117 36.2006C77.911 36.2006 77.8113 36.1805 77.7182 36.1415C77.6251 36.1025 77.5405 36.0454 77.4693 35.9733C77.3255 35.8278 77.2446 35.6305 77.2446 35.4247C77.2446 35.2189 77.3255 35.0216 77.4693 34.8761C77.6132 34.7306 77.8083 34.6489 78.0117 34.6489C78.2152 34.6489 78.4103 34.7306 78.5542 34.8761Z" fill="#241201"/>
<path d="M82.9619 39.3339C83.0682 39.4423 83.1404 39.58 83.1694 39.7297C83.1984 39.8795 83.1829 40.0346 83.1249 40.1755C83.0669 40.3163 82.969 40.4367 82.8434 40.5214C82.7179 40.606 82.5704 40.6512 82.4195 40.6512C82.2686 40.6512 82.1211 40.606 81.9955 40.5214C81.87 40.4367 81.772 40.3163 81.714 40.1755C81.656 40.0346 81.6405 39.8795 81.6695 39.7297C81.6985 39.58 81.7707 39.4423 81.877 39.3339C81.9476 39.2607 82.0319 39.2025 82.1251 39.1627C82.2183 39.123 82.3183 39.1025 82.4195 39.1025C82.5206 39.1025 82.6207 39.123 82.7138 39.1627C82.807 39.2025 82.8913 39.2607 82.9619 39.3339Z" fill="#241201"/>
<path d="M82.9619 35.9733C82.818 36.1188 82.6229 36.2005 82.4195 36.2005C82.216 36.2005 82.0209 36.1188 81.877 35.9733C81.7332 35.8278 81.6523 35.6305 81.6523 35.4247C81.6523 35.2189 81.7332 35.0216 81.877 34.8761C81.9475 34.8039 82.0314 34.7466 82.1239 34.7075C82.2165 34.6683 82.3158 34.6482 82.4161 34.6482C82.5163 34.6482 82.6156 34.6683 82.7082 34.7075C82.8007 34.7466 82.8846 34.8039 82.9551 34.8761C83.0271 34.9475 83.0845 35.0326 83.1238 35.1265C83.1632 35.2204 83.1838 35.3213 83.1844 35.4233C83.185 35.5253 83.1657 35.6264 83.1275 35.7208C83.0893 35.8152 83.033 35.901 82.9619 35.9733Z" fill="#241201"/>
<path d="M78.5541 40.4311C78.4831 40.5035 78.3986 40.561 78.3055 40.6002C78.2124 40.6394 78.1125 40.6596 78.0117 40.6596C77.9108 40.6596 77.811 40.6394 77.7179 40.6002C77.6248 40.561 77.5403 40.5035 77.4692 40.4311C77.3979 40.3599 77.3412 40.275 77.3025 40.1814C77.2638 40.0878 77.2439 39.9874 77.2439 39.886C77.2439 39.7846 77.2638 39.6841 77.3025 39.5905C77.3412 39.497 77.3979 39.4121 77.4692 39.3408C77.6122 39.1953 77.8064 39.1132 78.0093 39.1126C78.2121 39.1119 78.4068 39.1928 78.5507 39.3374C78.6946 39.482 78.7757 39.6784 78.7764 39.8835C78.777 40.0887 78.6971 40.2856 78.5541 40.4311Z" fill="#241201"/>
<path d="M68.6266 1.71826H29.5781H29.4826C29.3751 1.71735 29.2684 1.73787 29.1687 1.77865C29.069 1.81942 28.9783 1.87966 28.9016 1.95591C28.8249 2.03217 28.7639 2.12295 28.7219 2.22307C28.6799 2.32319 28.6579 2.4307 28.657 2.53944V29.0657C28.657 29.2853 28.7432 29.4959 28.8968 29.6512C29.0503 29.8065 29.2586 29.8938 29.4758 29.8938C29.6929 29.8938 29.9012 29.8065 30.0547 29.6512C30.2083 29.4959 30.2945 29.2853 30.2945 29.0657V3.37443H68.6198C68.837 3.37443 69.0452 3.28718 69.1988 3.13189C69.3523 2.97659 69.4386 2.76596 69.4386 2.54634C69.4386 2.32672 69.3523 2.1161 69.1988 1.9608C69.0452 1.8055 68.837 1.71826 68.6198 1.71826H68.6266Z" fill="#90A5B2"/>
</g>
<defs>
<clipPath id="clip0">
<rect width="98" height="46" fill="white"/>
</clipPath>
</defs>
</svg>
