<svg width="97" height="236" viewBox="0 0 97 236" fill="none" xmlns="http://www.w3.org/2000/svg">
<g clip-path="url(#clip0)">
<path d="M18.8494 215.144C18.8494 217.903 25.5514 223.082 31.2761 226.217C34.9063 228.201 34.3678 230.523 34.3678 232.369C34.3678 234.214 30.9569 236.675 26.0301 235.742C19.6599 234.306 13.4163 232.362 7.36019 229.928C4.88681 228.697 7.97853 217.01 7.97853 217.01L18.8494 215.144Z" fill="#AAAAAA"/>
<path d="M34.308 232.428C34.308 230.583 34.8466 228.281 31.2163 226.277C25.6712 223.221 19.2484 218.339 18.8495 215.462H17.6128L10.5317 216.514C8.29774 220.641 21.5622 226.217 23.8959 228.082C25.2523 229.154 26.1299 232.389 25.2922 235.722L25.9704 235.861C30.9171 236.714 34.308 234.274 34.308 232.428Z" fill="#717072"/>
<path d="M53.3968 204.389C54.037 206.765 55.1893 208.974 56.7738 210.862C58.3583 212.75 60.3369 214.272 62.5722 215.323C63.561 215.821 64.4058 216.562 65.0271 217.475C65.6483 218.388 66.0254 219.444 66.1227 220.542C66.3421 222.229 63.5496 224.868 58.942 224.511C54.3343 224.153 46.6549 220.542 44.2613 219.669C41.8677 218.796 43.2839 207.763 43.2839 207.763L53.3968 204.389Z" fill="#717072"/>
<path d="M56.4287 121.046C56.4287 127.376 56.4287 199.726 57.1667 208.794C57.1649 208.901 57.1404 209.005 57.095 209.102C57.0496 209.198 56.9842 209.283 56.9033 209.353C56.8223 209.422 56.7275 209.474 56.6251 209.504C56.5226 209.534 56.4149 209.543 56.309 209.529C49.7267 209.945 42.8451 209.945 42.8451 209.945C42.8451 209.945 30.8772 152.994 30.8772 145.612C30.8772 138.231 35.425 112.434 35.425 112.434L56.4287 121.046Z" fill="#071442"/>
<path d="M9.07563 105.826C9.07563 110.688 3.43076 187.522 6.08364 218.557C6.08364 218.915 5.96397 219.808 7.65942 219.808H22.2603C22.2603 219.808 38.417 146.168 41.409 129.976C44.4009 113.783 40.3717 104.179 40.3717 104.179L9.07563 105.826Z" fill="#2B47AA"/>
<path d="M41.8877 129.876C43.0602 123.896 43.2957 117.771 42.5858 111.719C37.8784 112.93 32.074 116.522 31.0767 119.538C29.461 124.3 19.5874 205.977 17.7324 219.748H22.739C22.739 219.748 38.8558 146.069 41.8877 129.876Z" fill="#071442"/>
<path d="M7.97853 118.903C7.97853 94.4157 1.11692 62.4874 1.21665 53.7959C1.21665 44.1717 23.4969 40.1038 27.8253 38.675C32.1537 37.2463 35.6444 61.9913 37.8983 73.6593C40.1523 85.3274 37.659 116.561 33.3505 118.01C29.0421 119.458 7.97853 118.903 7.97853 118.903Z" fill="#D33105"/>
<path d="M36.7615 26.2332C38.437 35.4803 34.7669 43.8741 28.6433 44.9655C22.5197 46.0569 14.9799 40.4809 13.3044 31.2338C11.6289 21.9866 7.5199 13.3745 20.8442 10.7155C34.1685 8.05643 35.106 16.9861 36.7615 26.2332Z" fill="#E5C0A8"/>
<path d="M15.1395 9.76318C12.8593 11.0418 11.0491 13.0115 9.97271 15.3851C8.89634 17.7588 8.61004 20.4124 9.15554 22.9592C10.5119 29.6465 11.1502 29.8449 11.1502 29.8449L13.0252 27.7812C13.0252 27.7812 11.8483 21.8281 14.3616 18.3753C15.0965 17.3812 16.0542 16.5713 17.1587 16.0098C18.2633 15.4483 19.4842 15.1508 20.7245 15.1408L15.1395 9.76318Z" fill="#7F3724"/>
<path d="M12.666 27.9795C11.549 28.3367 9.59421 30.7973 12.1673 34.2302C15.1792 38.1989 16.1566 35.7979 16.1566 35.7979L12.666 27.9795Z" fill="#E5C0A8"/>
<path d="M34.4478 22.6813C35.5847 22.4035 38.5567 23.4354 38.2177 27.7017C37.8187 32.6825 35.7243 31.1347 35.7243 31.1347L34.4478 22.6813Z" fill="#D8AD8F"/>
<path d="M36.6817 26.2531C35.0461 17.1846 33.8294 8.39389 21.4226 10.6164C20.904 11.5689 20.6248 12.2436 20.6248 12.2436L29.3813 44.8069C35.0262 43.14 38.2774 35.0835 36.6817 26.2531Z" fill="#D8AD8F"/>
<path d="M22.2803 8.19542C29.0422 6.58809 36.2429 10.3584 37.2402 17.1052C38.2375 23.852 37.6192 24.2886 37.6192 24.2886L35.2057 22.8598C35.2057 22.8598 34.2682 16.9068 30.7576 14.4462C27.247 11.9855 21.8215 14.7835 21.8215 14.7835L22.2803 8.19542Z" fill="#300901"/>
<path d="M8.91611 21.2128C10.452 19.7047 18.1314 11.5887 36.183 13.0769C33.4902 5.13949 32.3533 2.02405 29.4012 0.813588C24.1553 -1.30968 13.7831 0.813588 8.91611 5.69511C6.52253 8.09619 8.91611 21.2128 8.91611 21.2128Z" fill="#E26100"/>
<path d="M36.2029 13.1167C33.5301 5.17927 32.3931 2.04398 29.4211 0.853361C25.6018 -0.295234 21.5188 -0.23978 17.7324 1.01211L21.7217 14.1883C26.4515 13.0086 31.3498 12.6461 36.2029 13.1167Z" fill="#D33105"/>
<path d="M8.91616 21.2128C10.5917 20.0817 24.6739 13.2754 36.7017 14.089C36.9809 14.089 36.1831 13.0769 36.1831 13.0769C36.1831 13.0769 34.1884 9.86227 21.1434 13.0769C8.09835 16.2916 8.91616 21.2128 8.91616 21.2128Z" fill="#E26100"/>
<path d="M60.6774 79.9895L27.8055 86.1211L24.2351 42.366L56.5285 27.5229L60.6774 79.9895Z" fill="#AAAAAA"/>
<path d="M56.5286 27.5229L91.8539 31.829L95.7833 78.6996L59.8995 80.1879L56.5286 27.5229Z" fill="#717072"/>
<path d="M52.8583 79.2952L57.4061 133.131L22.3999 129.043L18.1313 85.3475L52.8583 79.2952Z" fill="#AAAAAA"/>
<path d="M57.0073 133.111L97.0001 126.84L93.0906 78.3823L52.8584 79.2951L57.0073 133.111Z" fill="#717072"/>
<path d="M33.3107 113.704C34.7668 115.152 37.1205 116.879 38.4369 117.931C39.7534 118.982 41.9874 121.899 43.3238 122.951C43.9222 123.487 44.6004 125.193 42.3465 124.4C41.0833 123.976 39.8877 123.375 38.796 122.614C38.9367 123.967 39.238 125.299 39.6936 126.582C40.4914 128.964 45.6775 130.809 44.8597 132.039C44.4209 132.694 41.3691 132.734 37.659 132.218C33.949 131.702 32.2535 128.368 30.9171 123.03C30.4471 120.561 29.6489 118.166 28.5435 115.906L33.3107 113.704Z" fill="#E5C0A8"/>
<path d="M10.3124 48.0611C6.30313 47.188 0.438851 45.6402 2.76491e-05 59.5307C-0.438796 73.4213 4.96671 91.8957 7.83902 97.2336C10.7113 102.572 27.2071 122.237 29.7802 122.237C32.244 120.188 34.5819 117.995 36.7814 115.668C36.7814 115.668 24.3149 88.6215 21.9412 83.7002C19.5676 78.779 16.7152 55.9192 15.3589 52.9823C14.9207 51.8505 14.2435 50.8255 13.3729 49.9765C12.5023 49.1275 11.4586 48.4743 10.3124 48.0611Z" fill="#E26100"/>
<path d="M46.1564 209.906L37.4797 149.978L34.1287 166.686C37.6592 185.538 42.7655 209.886 42.7655 209.886L46.1564 209.906Z" fill="#92A8F4"/>
<path d="M92.0732 64.7894L86.8472 59.8682L82.3992 65.0672L85.431 64.968L86.1691 74.731L90.3578 74.5524L89.2209 64.8688L92.0732 64.7894Z" fill="#AAAAAA"/>
<path d="M83.3964 68.8772L80.1451 65.8213L77.3726 69.0558L79.2675 68.9963L79.7263 75.0684L82.3193 74.9493L81.6212 68.9169L83.3964 68.8772Z" fill="#AAAAAA"/>
<path d="M92.951 113.704L87.9843 108.703L83.5562 114.22L86.6279 114.061L87.4258 124.499L91.4949 123.923L90.318 113.843L92.951 113.704Z" fill="#AAAAAA"/>
</g>
<defs>
<clipPath id="clip0">
<rect width="97" height="236" fill="white"/>
</clipPath>
</defs>
</svg>
