<svg width="235" height="181" viewBox="0 0 235 181" fill="none" xmlns="http://www.w3.org/2000/svg">
<path d="M149.258 168.099C149.452 168.045 149.643 167.98 149.831 167.906C150.09 167.797 150.339 167.666 150.575 167.513C150.679 167.453 150.779 167.386 150.873 167.313C154.104 164.953 156.404 158.247 156.352 150.339C156.285 140.479 152.63 132.534 148.104 132.534H148.052L138.227 132.63C133.76 132.63 130.15 140.657 130.21 150.509C130.269 160.361 133.969 168.314 138.465 168.314L143.675 168.218H148.141H148.335C148.585 168.216 148.835 168.189 149.079 168.136L149.258 168.099Z" fill="#132539"/>
<path d="M116.685 148.076C122.29 148.558 128.818 152.045 129.458 154.078C130.098 156.11 139.284 157.045 143.288 156.073C147.293 155.101 160.408 155.836 164.219 155.784C168.03 155.732 184.95 152.497 186.185 153.684C187.421 154.871 185.947 153.684 193.406 153.588C200.864 153.492 210.816 150.19 210.816 150.19C210.816 150.19 214.046 147.052 216.399 145.739C218.751 144.426 218.58 132.853 218.58 132.853L212.141 127.534C212.141 127.534 168.968 116.925 159.567 119.588C150.166 122.252 137.936 121.154 130.537 127.957C123.138 134.76 116.685 148.076 116.685 148.076Z" fill="#132539"/>
<path d="M139.671 0L45.1376 3.89479C45.1376 3.89479 56.8984 114.752 55.8265 150.398L140.393 152.824C140.393 152.824 156.128 68.5111 154.878 38.1541C153.627 7.79699 139.671 0 139.671 0Z" fill="#C54F46"/>
<path d="M139.671 0L45.1376 3.89479C45.1376 3.89479 56.8984 114.752 55.8265 150.398L140.393 152.824C140.393 152.824 156.128 68.5111 154.878 38.1541C153.627 7.79699 139.671 0 139.671 0Z" fill="url(#paint0_linear)"/>
<path d="M62.9575 143.58C62.6969 108.713 55.3576 34.5264 52.9087 10.6087L132.659 7.32227L133.314 145.613L62.9575 143.58Z" stroke="#030023" stroke-width="1.14" stroke-miterlimit="10" stroke-linecap="round"/>
<path d="M205.914 166.161C210.407 166.128 213.991 158.11 213.918 148.253C213.846 138.395 210.145 130.43 205.651 130.463C201.158 130.496 197.575 138.514 197.647 148.371C197.72 158.229 201.421 166.194 205.914 166.161Z" fill="#132539"/>
<path d="M205.658 130.472H205.605L195.765 130.568C191.299 130.568 187.689 138.588 187.748 148.447C187.808 158.306 191.507 166.252 196.003 166.252L201.214 166.155H205.68H205.859C210.325 166.155 213.942 158.136 213.875 148.276C213.808 138.417 210.146 130.457 205.658 130.472Z" fill="#132539"/>
<path d="M205.68 134.522C202.211 134.522 199.435 140.724 199.487 148.343C199.539 155.962 202.39 162.142 205.866 162.127C209.342 162.112 212.111 155.925 212.059 148.299C212.007 140.672 209.163 134.507 205.68 134.522Z" fill="#132539"/>
<path d="M209.164 148.314C209.164 153.462 207.541 157.654 205.442 157.661C203.343 157.668 201.653 153.492 201.623 148.336C201.593 143.18 203.246 138.996 205.345 138.988C207.444 138.981 209.164 143.18 209.164 148.314Z" fill="#132539"/>
<path d="M205.68 133.736C202.003 133.736 199.07 140.287 199.122 148.351C199.174 156.415 202.196 162.928 205.866 162.913C209.536 162.899 212.476 156.355 212.424 148.299C212.372 140.242 209.35 133.721 205.68 133.736ZM205.836 158.136C203.365 158.136 201.37 153.759 201.303 148.343C201.236 142.928 203.238 138.521 205.71 138.506C208.181 138.491 210.176 142.89 210.243 148.306C210.31 153.722 208.307 158.128 205.836 158.136Z" fill="#ECE8E2"/>
<path d="M208.665 148.314C208.665 151.466 207.593 154.019 206.469 154.019C205.345 154.019 204.407 151.466 204.385 148.314C204.362 145.161 205.256 142.609 206.38 142.609C207.504 142.609 208.642 145.161 208.665 148.314Z" fill="white"/>
<path d="M208.642 147.586C208.062 148.046 207.63 149.263 206.997 149.248C206.543 149.248 206.208 148.462 205.814 148.017C205.653 147.805 205.424 147.654 205.165 147.591C204.906 147.527 204.633 147.555 204.392 147.668C204.392 147.883 204.392 148.098 204.392 148.313C204.392 151.466 205.345 154.018 206.476 154.018C207.608 154.018 208.709 151.466 208.672 148.313C208.665 148.069 208.657 147.824 208.642 147.586Z" fill="url(#paint1_linear)"/>
<path d="M211.724 144.663L218.49 143.855L235 8.29404L139.671 0L140.415 152.824L195.021 146.674C196.026 145.19 198.832 137.03 199.785 134.574C201.891 129.107 204.623 129.433 207.891 129.025C211.158 128.617 213.324 135.984 212.647 139.804C212.327 141.585 212.022 143.439 211.724 144.663Z" fill="#FD795A"/>
<path d="M211.724 144.663L218.49 143.855L235 8.29404L139.671 0L140.415 152.824L195.021 146.674C196.026 145.19 198.832 137.03 199.785 134.574C201.891 129.107 204.623 129.433 207.891 129.025C211.158 128.617 213.324 135.984 212.647 139.804C212.327 141.585 212.022 143.439 211.724 144.663Z" fill="url(#paint2_linear)"/>
<path d="M146.757 7.87866L227.147 14.4738L213.816 123.891C212.209 122.666 210.249 121.987 208.226 121.955C207.817 121.954 207.41 121.979 207.005 122.029C206.722 122.064 206.439 122.094 206.156 122.118C202.829 122.467 196.636 123.105 193.19 132.03C192.944 132.682 192.564 133.721 192.125 134.93C191.686 136.14 190.882 138.335 190.182 140.123L147.382 144.931L146.757 7.87866Z" stroke="#030023" stroke-width="1.14" stroke-miterlimit="10" stroke-linecap="round"/>
<path d="M127.776 148.373C128.356 143.358 126.607 138.365 124.508 133.758C123.243 130.998 121.627 128.083 118.806 126.918C115.293 125.434 111.221 127.348 108.467 129.96C102.155 135.939 100.242 145.895 103.406 153.981C104.731 157.387 121.307 154.79 124.783 155.947C124.783 155.97 127.016 155.05 127.776 148.373Z" fill="#132539"/>
<path d="M31.2628 139.611H31.2033L19.1596 139.737C13.6514 139.737 9.24485 149.018 9.31929 160.413C9.39372 171.808 13.8896 181.015 19.3978 181.015L25.7993 180.904H31.2777H31.501C37.0093 180.904 41.4158 171.623 41.3488 160.228C41.2819 148.833 36.7487 139.589 31.2628 139.611Z" fill="#132539"/>
<path d="M115.52 180.747C121.028 180.71 125.431 171.443 125.353 160.049C125.275 148.655 120.747 139.448 115.238 139.486C109.729 139.523 105.327 148.79 105.405 160.184C105.483 171.578 110.011 180.784 115.52 180.747Z" fill="#132539"/>
<path d="M115.263 139.47H115.204L103.153 139.597C97.6443 139.597 93.2378 148.877 93.3122 160.272C93.3866 171.667 97.9049 180.881 103.413 180.859L109.815 180.748H115.3H115.524C121.024 180.748 125.431 171.467 125.364 160.072C125.297 148.677 120.771 139.47 115.263 139.47Z" fill="#132539"/>
<path d="M115.488 176.066C119.747 176.037 123.15 168.873 123.09 160.064C123.03 151.255 119.529 144.138 115.27 144.167C111.011 144.196 107.607 151.36 107.668 160.169C107.728 168.977 111.229 176.095 115.488 176.066Z" fill="#132539"/>
<path d="M114.998 170.904C117.543 170.887 119.574 166.044 119.534 160.087C119.494 154.13 117.4 149.314 114.855 149.331C112.31 149.348 110.28 154.191 110.319 160.148C110.359 166.105 112.454 170.921 114.998 170.904Z" fill="#132539"/>
<path d="M115.286 143.247C110.819 143.247 107.18 150.828 107.239 160.146C107.299 169.464 110.998 176.994 115.494 176.972C119.99 176.95 123.6 169.39 123.54 160.072C123.481 150.754 119.789 143.224 115.286 143.247ZM115.457 171.067C112.531 171.067 110.135 166.185 110.097 160.131C110.06 154.078 112.397 149.167 115.308 149.152C118.218 149.137 120.63 154.041 120.675 160.087C120.719 166.133 118.352 171.052 115.457 171.067Z" fill="#ECE8E2"/>
<path d="M118.94 160.094C118.94 163.737 117.615 166.69 116.238 166.697C114.861 166.704 113.715 163.729 113.685 160.102C113.655 156.474 114.757 153.507 116.142 153.507C117.526 153.507 118.911 156.452 118.94 160.094Z" fill="white"/>
<path d="M118.903 159.256C118.159 159.79 117.667 161.2 116.893 161.177C116.335 161.177 115.918 160.272 115.405 159.753C115.197 159.509 114.917 159.338 114.604 159.266C114.292 159.194 113.964 159.224 113.67 159.352C113.67 159.597 113.67 159.849 113.67 160.094C113.67 163.737 114.839 166.689 116.223 166.689C117.608 166.689 118.955 163.722 118.925 160.087C118.94 159.812 118.925 159.501 118.903 159.256Z" fill="url(#paint3_linear)"/>
<path d="M135.979 54.9648C128.535 53.6368 114.281 52.5685 107.693 52.5092C99.5051 52.4276 26.2012 51.3741 20.3654 58.2809C20.3654 58.2809 19.435 59.913 17.8495 63.1846C16.264 66.4562 6.34924 97.1249 5.11361 99.2244C3.87799 101.324 2.79867 102.192 2.24785 108.201C1.87567 112.289 2.33717 134.908 2.67958 149.115C2.75342 152.23 4.04675 155.193 6.28325 157.371C8.51975 159.549 11.5221 160.768 14.6488 160.769C40.0759 160.769 98.2249 160.769 98.4928 160.769L102.877 160.354C105.013 157.057 106.67 153.476 107.797 149.716C109.524 143.781 111.936 135.093 115.151 132.23C118.367 129.366 122.007 130.791 123.719 136.681C125.319 142.23 127.612 150.205 124.783 155.97C124.728 156.073 124.702 156.19 124.708 156.307C124.713 156.424 124.75 156.537 124.815 156.635C124.88 156.733 124.97 156.812 125.075 156.863C125.181 156.914 125.299 156.936 125.416 156.927L135.018 155.888L135.979 54.9648Z" fill="#FD795A"/>
<path d="M135.979 54.9648C128.535 53.6368 114.281 52.5685 107.693 52.5092C99.5051 52.4276 26.2012 51.3741 20.3654 58.2809C20.3654 58.2809 19.435 59.913 17.8495 63.1846C16.264 66.4562 6.34924 97.1249 5.11361 99.2244C3.87799 101.324 2.79867 102.192 2.24785 108.201C1.87567 112.289 2.33717 134.908 2.67958 149.115C2.75342 152.23 4.04675 155.193 6.28325 157.371C8.51975 159.549 11.5221 160.768 14.6488 160.769C40.0759 160.769 98.2249 160.769 98.4928 160.769L102.877 160.354C105.013 157.057 106.67 153.476 107.797 149.716C109.524 143.781 111.936 135.093 115.151 132.23C118.367 129.366 122.007 130.791 123.719 136.681C125.319 142.23 127.612 150.205 124.783 155.97C124.728 156.073 124.702 156.19 124.708 156.307C124.713 156.424 124.75 156.537 124.815 156.635C124.88 156.733 124.97 156.812 125.075 156.863C125.181 156.914 125.299 156.936 125.416 156.927L135.018 155.888L135.979 54.9648Z" fill="url(#paint4_linear)"/>
<path d="M103.398 66.3969L101.388 73.9935L96.0738 94.1203C96.0938 95.2749 95.6552 96.3906 94.8535 97.2244C94.0518 98.0581 92.952 98.5423 91.7937 98.5715L64.5504 99.3653L56.6677 99.5879L39.3242 100.085L33.5629 100.241L31.4564 100.307L25.7025 100.478L23.142 100.552L21.3704 100.604L13.5026 100.827L8.29209 100.975C8.00386 100.982 7.71814 100.92 7.45936 100.793C7.20057 100.667 6.9764 100.479 6.80599 100.248C6.63558 100.016 6.52399 99.7463 6.48076 99.4622C6.43754 99.1781 6.46395 98.8877 6.55775 98.616C6.55775 98.616 15.7803 73.541 18.4674 66.3523C18.6765 65.7899 19.0484 65.3021 19.5361 64.9508C20.0238 64.5994 20.6053 64.4004 21.2066 64.379H21.8393C25.5611 64.2454 32.759 64.06 41.401 63.8671L50.9585 63.652L53.4372 63.5926L59.2878 63.4665C67.9521 63.2736 76.7652 63.0807 84.3353 62.8804C91.0345 62.7172 96.6767 62.554 100.413 62.3982C100.903 62.3874 101.388 62.4936 101.828 62.7078C102.267 62.922 102.649 63.2381 102.942 63.6295C103.234 64.021 103.428 64.4765 103.507 64.9579C103.587 65.4393 103.549 65.9327 103.398 66.3969Z" fill="url(#paint5_linear)"/>
<path opacity="0.43" d="M103.398 66.3969L101.388 73.9936L96.0738 94.1203C96.0938 95.2749 95.6552 96.3906 94.8535 97.2244C94.0518 98.0581 92.952 98.5423 91.7937 98.5715L64.5504 99.3653L56.6677 99.5879L39.3242 100.085L33.5629 100.241L31.4564 100.307L25.7025 100.478L23.142 100.552L21.3704 100.604L13.5026 100.827L8.29209 100.975C8.00386 100.982 7.71814 100.92 7.45936 100.793C7.20057 100.667 6.9764 100.479 6.80599 100.248C6.63558 100.016 6.52399 99.7463 6.48076 99.4622C6.43754 99.1781 6.46395 98.8878 6.55775 98.616C6.55775 98.616 15.7803 73.541 18.4674 66.3524C18.6765 65.79 19.0484 65.3021 19.5361 64.9508C20.0238 64.5995 20.6053 64.4004 21.2066 64.379H21.8393C21.7946 64.8234 21.7099 65.2628 21.5863 65.6921C19.8817 72.6359 17.9166 79.5204 16.0855 86.4643C15.557 88.408 15.0434 90.3591 14.5298 92.3102C14.3809 92.8517 13.3686 97.8519 13.0411 97.889L30.4366 96.0121C33.8234 95.6486 37.4782 95.1664 39.942 92.8221C42.1155 90.7597 42.9194 87.6884 43.6191 84.7803L47.0804 70.44C47.5865 68.3702 48.1448 66.1891 49.6335 64.6609C50.0214 64.267 50.4593 63.9253 50.9361 63.6446L53.4148 63.5852L59.2655 63.4591C67.9297 63.2662 76.7429 63.0733 84.313 62.873C91.0122 62.7098 96.6544 62.5466 100.391 62.3908C100.883 62.376 101.372 62.4795 101.815 62.6925C102.259 62.9056 102.644 63.222 102.939 63.6149C103.234 64.0078 103.43 64.4658 103.51 64.95C103.59 65.4342 103.551 65.9305 103.398 66.3969Z" fill="#22364D"/>
<path d="M18.2829 106.459L9.58229 106.58C8.73552 106.592 8.05866 107.285 8.07048 108.129L8.19145 116.764C8.20328 117.608 8.89931 118.282 9.74608 118.27L18.4467 118.149C19.2935 118.138 19.9704 117.444 19.9585 116.6L19.8376 107.965C19.8257 107.121 19.1297 106.447 18.2829 106.459Z" fill="#132539"/>
<path d="M85.6603 117.393L75.8645 117.504C75.6641 117.512 75.4641 117.479 75.2765 117.408C75.089 117.337 74.9178 117.229 74.7732 117.091C74.6286 116.952 74.5135 116.786 74.435 116.602C74.3565 116.418 74.3161 116.22 74.3163 116.02L74.1972 107.385C74.1912 106.983 74.344 106.596 74.6225 106.305C74.9011 106.015 75.2831 105.846 75.6859 105.834L85.4742 105.731C85.8776 105.723 86.2678 105.874 86.5594 106.152C86.8509 106.43 87.0201 106.812 87.0299 107.214L87.149 115.842C87.157 116.244 87.0048 116.633 86.7258 116.924C86.4468 117.214 86.0637 117.383 85.6603 117.393Z" fill="#132539"/>
<path d="M85.0499 116.057L76.3781 116.146L76.2516 107.066L84.9308 106.969L85.0499 116.057Z" fill="white"/>
<path d="M77.5468 108.386L84.9456 108.312L84.9307 106.969L76.2516 107.066L76.3781 116.146L77.6584 116.132L77.5468 108.386Z" fill="#F68B1F"/>
<path d="M17.1594 107.802L9.57446 107.878L9.66557 116.958L17.2505 116.883L17.1594 107.802Z" fill="white"/>
<path d="M11.2992 109.158L17.6039 109.069L17.589 107.726L10.004 107.83L10.1306 116.918L11.4034 116.896L11.2992 109.158Z" fill="#F68B1F"/>
<path d="M2.70192 128.046C2.01323 128.082 1.36418 128.378 0.887029 128.874C0.409876 129.37 0.140536 130.029 0.133896 130.717L-8.76366e-05 144.812C-0.0217492 147.118 0.4157 149.405 1.28693 151.541C2.15817 153.677 3.44587 155.619 5.07551 157.256C6.70514 158.892 8.64432 160.19 10.7808 161.075C12.9172 161.96 15.2085 162.413 17.522 162.409L95.6345 161.934L92.0467 126.399C92.0467 126.399 6.38647 127.853 2.70192 128.046Z" fill="#22364D"/>
<path d="M90.6474 126.354L90.4762 126.443C88.9875 127.259 87.9751 129.411 87.9528 131.814L87.7295 154.671C87.7295 158.944 90.0891 162.29 92.8804 161.875L98.7087 161.719C98.7087 161.719 102.036 131.302 99.0288 128.231C95.8802 124.989 91.4885 125.805 90.6474 126.354Z" fill="#15283C"/>
<path d="M58.1117 151.422L29.4764 151.808C29.0037 151.792 28.5492 151.622 28.1823 151.325C27.8154 151.028 27.5562 150.619 27.4443 150.161L24.3552 136.889C24.0426 135.561 24.6976 134.441 25.8439 134.426L61.3124 133.944C62.4364 133.944 63.1212 135.027 62.8458 136.362L60.1214 149.716C60.0208 150.18 59.7695 150.599 59.4063 150.908C59.0431 151.216 58.5881 151.397 58.1117 151.422Z" fill="#132539"/>
<path d="M58.588 139.263L27.9132 139.678C27.733 139.671 27.5607 139.602 27.4253 139.483C27.2898 139.364 27.1993 139.203 27.1689 139.025C27.0944 138.647 27.288 138.343 27.608 138.335L58.8039 137.913C59.124 137.913 59.3324 138.209 59.2729 138.588C59.2483 138.759 59.1681 138.918 59.0445 139.04C58.9208 139.162 58.7605 139.24 58.588 139.263Z" fill="white"/>
<path d="M58.1712 141.837L28.397 142.245C28.229 142.234 28.0697 142.166 27.9454 142.053C27.821 141.939 27.7388 141.788 27.7122 141.622C27.6879 141.551 27.6804 141.476 27.6902 141.402C27.7 141.328 27.7269 141.258 27.7687 141.196C27.8106 141.134 27.8662 141.083 27.9313 141.046C27.9964 141.009 28.0692 140.988 28.1439 140.984L58.3498 140.568C58.425 140.571 58.4987 140.591 58.565 140.626C58.6314 140.661 58.6887 140.711 58.7326 140.772C58.7765 140.833 58.8057 140.903 58.8181 140.977C58.8305 141.051 58.8256 141.127 58.8039 141.199C58.7828 141.36 58.7095 141.509 58.5952 141.624C58.481 141.739 58.3321 141.814 58.1712 141.837Z" fill="white"/>
<path d="M57.7842 144.263L28.9032 144.656C28.7457 144.64 28.5973 144.575 28.4795 144.47C28.3617 144.364 28.2807 144.224 28.2482 144.07C28.2266 144.002 28.2207 143.931 28.231 143.86C28.2413 143.79 28.2676 143.723 28.3078 143.664C28.3479 143.606 28.401 143.557 28.4629 143.522C28.5248 143.487 28.5939 143.466 28.6651 143.462L57.9777 143.068C58.0496 143.069 58.1203 143.086 58.1844 143.118C58.2485 143.151 58.304 143.198 58.3467 143.255C58.3893 143.313 58.4179 143.38 58.4301 143.45C58.4423 143.521 58.4377 143.593 58.4169 143.662C58.3885 143.816 58.312 143.957 58.1983 144.065C58.0847 144.173 57.9397 144.242 57.7842 144.263Z" fill="white"/>
<path d="M57.412 146.548L29.3573 146.926C29.2044 146.919 29.0583 146.861 28.9423 146.762C28.8262 146.662 28.747 146.527 28.7172 146.377C28.6978 146.312 28.6937 146.243 28.7053 146.175C28.717 146.108 28.744 146.044 28.7843 145.989C28.8246 145.934 28.8771 145.889 28.9377 145.857C28.9984 145.825 29.0655 145.808 29.134 145.806L57.5981 145.405C57.6667 145.404 57.7347 145.419 57.7966 145.448C57.8585 145.478 57.9126 145.521 57.9546 145.575C57.9965 145.629 58.0252 145.692 58.0383 145.76C58.0514 145.827 58.0485 145.896 58.0299 145.962C58.0086 146.115 57.9359 146.256 57.8237 146.362C57.7115 146.469 57.5663 146.534 57.412 146.548Z" fill="white"/>
<path d="M57.0621 148.707L29.7741 149.115C29.6281 149.108 29.4883 149.054 29.3766 148.96C29.2648 148.866 29.1874 148.738 29.1563 148.595C29.1393 148.532 29.137 148.466 29.1495 148.402C29.162 148.338 29.1891 148.277 29.2285 148.225C29.268 148.173 29.3188 148.13 29.3773 148.101C29.4357 148.071 29.5001 148.055 29.5657 148.054L57.2333 147.631C57.2986 147.63 57.3631 147.645 57.422 147.672C57.4809 147.7 57.5327 147.741 57.5736 147.792C57.6144 147.842 57.6432 147.902 57.6577 147.965C57.6723 148.028 57.6722 148.094 57.6576 148.158C57.6359 148.303 57.5651 148.437 57.4568 148.537C57.3485 148.636 57.2093 148.696 57.0621 148.707Z" fill="white"/>
<path d="M127.471 105.627L120.444 105.723C120.252 105.729 120.062 105.697 119.883 105.629C119.704 105.56 119.54 105.457 119.402 105.325C119.263 105.193 119.152 105.035 119.076 104.86C118.999 104.685 118.958 104.497 118.955 104.306V104.306C118.955 103.924 119.102 103.556 119.367 103.28C119.632 103.003 119.994 102.839 120.377 102.822L127.404 102.726C127.788 102.726 128.158 102.874 128.436 103.139C128.713 103.405 128.877 103.767 128.892 104.15C128.898 104.341 128.866 104.53 128.797 104.708C128.729 104.886 128.625 105.049 128.493 105.186C128.36 105.324 128.202 105.434 128.026 105.509C127.851 105.585 127.662 105.625 127.471 105.627V105.627Z" stroke="#030023" stroke-width="1.14" stroke-miterlimit="10" stroke-linecap="round"/>
<path opacity="0.41" d="M53.3999 63.5554L33.5629 100.226L31.4489 100.293L25.7025 100.463L21.3704 100.582L41.3637 63.8002L53.3999 63.5554Z" fill="white"/>
<path opacity="0.41" d="M84.2981 62.8433L64.5504 99.343L56.6602 99.573L39.3242 100.063L59.2506 63.4293C67.9149 63.2439 76.7355 63.0584 84.2981 62.8433Z" fill="white"/>
<path d="M128.967 66.7678L128.699 94.8473C128.692 95.5324 128.422 96.1887 127.944 96.6814C127.466 97.174 126.817 97.4655 126.131 97.4958L118.159 97.8371L109.881 98.208C109.244 98.2336 108.618 98.0329 108.115 97.6417C107.612 97.2504 107.265 96.694 107.135 96.0714C107.064 95.7313 107.064 95.3803 107.135 95.0402L111.34 72.903L112.628 66.1446C112.744 65.5267 113.074 64.9691 113.562 64.5702C114.049 64.1712 114.662 63.9564 115.293 63.9636L126.309 64.0674C127.02 64.0772 127.698 64.3665 128.196 64.8723C128.694 65.378 128.971 66.0594 128.967 66.7678Z" fill="url(#paint6_linear)"/>
<path opacity="0.43" d="M128.967 66.7678L128.699 94.8473C128.692 95.5324 128.422 96.1887 127.944 96.6814C127.466 97.174 126.817 97.4655 126.131 97.4958L118.159 97.8371L109.881 98.208C109.244 98.2336 108.618 98.0329 108.115 97.6417C107.612 97.2504 107.265 96.694 107.135 96.0714C107.064 95.7313 107.064 95.3803 107.135 95.0402L111.34 72.903L112.628 66.1446C112.744 65.5267 113.074 64.9691 113.562 64.5702C114.049 64.1712 114.662 63.9564 115.293 63.9636L126.309 64.0674C127.02 64.0772 127.698 64.3665 128.196 64.8723C128.694 65.378 128.971 66.0594 128.967 66.7678Z" fill="#22364D"/>
<path opacity="0.43" d="M128.885 75.1954L128.699 94.8622C128.692 95.5472 128.422 96.2036 127.944 96.6962C127.466 97.1888 126.817 97.4803 126.131 97.5106L118.159 97.8519L109.881 98.2228C109.244 98.2484 108.618 98.0478 108.115 97.6565C107.612 97.2653 107.265 96.7088 107.135 96.0863C107.064 95.7462 107.064 95.3952 107.135 95.0551L111.34 72.9178L112.464 72.8288C116.126 72.642 119.797 72.8484 123.414 73.4446C126.488 73.8378 127.359 73.6078 128.885 75.1954Z" fill="#22364D"/>
<path d="M21.1694 64.3567C20.5668 64.3812 19.985 64.5832 19.4975 64.9371C19.01 65.2909 18.6386 65.7808 18.4302 66.3449C15.7505 73.5335 6.52051 98.6011 6.52051 98.6011C6.42512 98.8723 6.39726 99.1625 6.43935 99.4467C6.48143 99.7309 6.5922 100.001 6.76211 100.233C6.93202 100.465 7.15599 100.652 7.41473 100.779C7.67347 100.906 7.95923 100.968 8.24741 100.96L13.4951 100.812L25.6876 100.456L31.4415 100.293L56.6528 99.5507L91.7937 98.5418C92.9494 98.5069 94.045 98.0206 94.8443 97.1879C95.6436 96.3553 96.0825 95.2428 96.0663 94.0906L103.391 66.3968C103.551 65.9285 103.594 65.4285 103.516 64.9399C103.439 64.4513 103.243 63.9888 102.947 63.5923C102.65 63.1958 102.261 62.8772 101.813 62.664C101.365 62.4508 100.872 62.3494 100.376 62.3685C84.3204 63.0065 32.3719 63.9116 21.1694 64.3567Z" stroke="#030023" stroke-width="1.14" stroke-miterlimit="10" stroke-linecap="round"/>
<path opacity="0.41" d="M107.135 96.0861L124.255 64.6163L127.761 64.5347C128.132 64.7765 128.436 65.1066 128.647 65.4952C128.857 65.8838 128.967 66.3186 128.967 66.7603L128.862 78.0514L118.159 97.8369L108.929 98.0669L107.135 96.0861Z" fill="white"/>
<path d="M109.889 98.2228L126.131 97.4809C126.817 97.4488 127.465 97.1568 127.942 96.6645C128.419 96.1723 128.69 95.5169 128.699 94.8324L128.967 66.7677C128.973 66.0587 128.696 65.3763 128.198 64.8701C127.7 64.3639 127.021 64.0752 126.309 64.0673L115.278 63.9635C114.648 63.9578 114.035 64.1731 113.548 64.5718C113.061 64.9706 112.73 65.5272 112.613 66.1446L107.127 95.0328C107.049 95.431 107.063 95.8418 107.167 96.234C107.271 96.6263 107.464 96.9898 107.73 97.297C107.996 97.6043 108.328 97.8473 108.702 98.0076C109.076 98.168 109.482 98.2416 109.889 98.2228Z" stroke="#030023" stroke-width="1.14" stroke-miterlimit="10" stroke-linecap="round"/>
<path d="M109.762 63.0584L102.408 97.926C102.38 98.0779 102.362 98.2316 102.356 98.386L102.103 124.856C102.099 125.476 102.342 126.073 102.779 126.515C103.215 126.957 103.81 127.209 104.433 127.215L124.396 127.408C124.995 127.413 125.57 127.646 126.002 128.06C126.434 128.474 126.69 129.037 126.719 129.633L127.679 151.889C127.694 152.245 127.791 152.593 127.962 152.906C128.133 153.219 128.373 153.489 128.665 153.695C128.957 153.901 129.292 154.038 129.645 154.096C129.997 154.153 130.359 154.129 130.701 154.026V154.026C131.181 153.881 131.602 153.587 131.902 153.187C132.203 152.786 132.366 152.3 132.368 151.8L133.239 63.7335C133.243 63.113 133 62.5163 132.564 62.0741C132.127 61.6319 131.532 61.3803 130.909 61.3744L112.107 61.1963C111.56 61.1878 111.028 61.3689 110.6 61.7085C110.172 62.0482 109.876 62.5253 109.762 63.0584V63.0584Z" stroke="#132539" stroke-miterlimit="10"/>
<path d="M21.415 146.837L5.65706 146.889C5.25415 146.895 4.86507 146.743 4.57394 146.465C4.28281 146.187 4.11305 145.807 4.10136 145.405L3.98226 136.777C3.97814 136.376 4.13158 135.99 4.40977 135.7C4.68796 135.41 5.06883 135.24 5.47097 135.227L19.0108 135.153C19.4137 135.147 19.8028 135.299 20.0939 135.577C20.385 135.854 20.5548 136.235 20.5665 136.636L22.9037 145.287C22.9079 145.688 22.7544 146.074 22.4762 146.364C22.198 146.654 21.8172 146.824 21.415 146.837Z" fill="#132539"/>
<path d="M81.5737 146.021L65.8157 146.073C65.4134 146.077 65.0254 145.924 64.7347 145.647C64.444 145.37 64.2736 144.99 64.26 144.589L66.2474 135.954C66.2394 135.552 66.3916 135.163 66.6706 134.872C66.9496 134.582 67.3327 134.413 67.7361 134.403L81.3727 134.329C81.7756 134.323 82.1647 134.476 82.4558 134.753C82.747 135.031 82.9167 135.412 82.9284 135.813L83.0475 144.448C83.0576 144.851 82.9089 145.241 82.6332 145.535C82.3576 145.829 81.9771 146.004 81.5737 146.021Z" fill="#132539"/>
<path d="M80.9708 144.678L66.3219 144.715L68.3242 135.657L80.8442 135.598L80.9708 144.678Z" fill="#F68B1F"/>
<path d="M69.6194 136.978L80.8666 136.933L80.8442 135.598L68.3242 135.657L66.3219 144.715L67.6022 144.701L69.6194 136.978Z" fill="#132539"/>
<path d="M20.693 145.502L6.04414 145.539L5.9176 136.459L18.3483 136.399L20.693 145.502Z" fill="#F68B1F"/>
<path d="M7.22022 137.779L18.3632 137.735L18.3483 136.399L5.9176 136.459L6.04414 145.539L7.32443 145.524L7.22022 137.779Z" fill="#132539"/>
<path d="M128.967 66.7678L128.699 94.8473C128.692 95.5324 128.422 96.1887 127.944 96.6814C127.466 97.174 126.817 97.4655 126.131 97.4958L118.159 97.8371L109.881 98.208C109.244 98.2336 108.618 98.0329 108.115 97.6417C107.612 97.2504 107.265 96.694 107.135 96.0714C107.064 95.7313 107.064 95.3803 107.135 95.0402L111.34 72.903L112.628 66.1446C112.744 65.5267 113.074 64.9691 113.562 64.5702C114.049 64.1712 114.662 63.9564 115.293 63.9636L126.309 64.0674C127.02 64.0772 127.698 64.3665 128.196 64.8723C128.694 65.378 128.971 66.0594 128.967 66.7678V66.7678Z" stroke="url(#paint7_linear)" stroke-miterlimit="10"/>
<path opacity="0.43" d="M46.1499 89.7656L45.5619 90.5075V90.7226L46.1499 89.7656Z" fill="#22364D"/>
<path opacity="0.43" d="M96.8107 76.694C94.6893 79.7876 95.5676 83.7862 94.9945 87.3991C94.838 88.8348 94.213 90.1796 93.2155 91.2271C91.8682 92.518 89.7468 92.9927 87.7519 92.8889C85.757 92.785 88.0496 83.1853 88.072 78.7935C88.072 77.1465 87.9008 75.2919 86.4939 74.2013C85.2285 73.2072 83.3825 73.185 81.7152 73.2147C79.6608 73.2147 76.5866 73.2147 73.4752 73.2147C73.3332 71.4739 72.7296 69.802 71.7259 68.3703C69.9767 65.9666 66.8876 64.7277 64.1931 65.6254C61.7739 66.4414 59.9577 68.8302 59.2134 71.4861C59.014 72.2148 58.8795 72.9595 58.8114 73.7117C58.2388 74.0299 57.6936 74.3946 57.1813 74.8022C55.939 75.8969 55.0418 77.3271 54.5984 78.9196L54.4644 79.7579C54.4685 79.4735 54.5136 79.1912 54.5984 78.9196C55.3874 74.0084 56.1789 69.0973 56.9729 64.1862C57.0387 63.9365 57.0067 63.6713 56.8835 63.4443C56.7915 63.3533 56.6823 63.2816 56.5622 63.2331C56.442 63.1847 56.3134 63.1607 56.1838 63.1624C55.0371 63.0375 53.8832 62.9904 52.73 63.0214C52.1833 62.9972 51.6395 63.1148 51.152 63.3627C50.3332 63.8523 50.095 64.9058 49.9313 65.8479C48.7626 72.5247 46.5668 81.6571 45.16 88.9125C43.9243 89.5134 42.6887 90.0995 41.4382 90.7078C39.0786 91.8651 36.5627 92.837 34.1733 93.9794C32.3076 94.0518 30.4667 94.4303 28.7246 95.0996C27.2731 95.6635 21.0131 98.9648 20.4772 100.627C21.5468 100.97 22.6976 100.97 23.7672 100.627C25.4271 99.944 26.9158 98.2674 28.0621 97.8816C27.3604 98.5153 26.72 99.2133 26.1492 99.9663C27.5208 100.316 28.9253 100.522 30.3399 100.582L30.1612 100.627L31.3001 100.589C31.4713 100.589 31.6425 100.589 31.8137 100.589H32.4836L37.6941 100.419L39.6145 100.352L44.825 100.189L60.5979 99.6769L67.7734 99.447L92.5604 98.6309C93.6637 98.5417 94.6882 98.0263 95.4155 97.1947C96.1428 96.3631 96.5153 95.2812 96.4534 94.1797L101.307 74.0455C99.4159 74.5055 97.7486 75.329 96.8107 76.694ZM32.9823 98.3564C32.5059 98.5122 31.8732 98.6754 31.1289 98.8461C32.0891 98.3416 33.0344 97.8149 33.9798 97.2956C34.3743 97.4068 34.7688 97.5404 35.1558 97.6887C34.4338 97.9261 33.7043 98.1116 32.9823 98.3564ZM45.6363 93.4453C44.5198 94.929 42.2495 95.7673 39.5401 96.5166C38.7957 96.1754 38.0514 95.8563 37.2698 95.5744C38.3674 95.0421 39.5017 94.5884 40.6641 94.2168C42.4058 93.6827 44.3188 93.334 46.0755 92.7331C45.9376 92.9899 45.7834 93.2376 45.614 93.475L45.6363 93.4453Z" fill="#22364D"/>
<path d="M157.103 45.6765V57.2274L154.788 57.3238V44.2744L162.85 44.6083V45.862L157.103 45.6765Z" fill="white" stroke="white" stroke-width="0.5" stroke-miterlimit="10"/>
<path d="M166.988 54.3934L166.244 56.8489L164.339 56.9306L167.852 44.8159L170.695 44.9346L173.956 56.5299L172.095 56.6116L171.44 54.2821L166.988 54.3934ZM167.249 53.2361L171.172 53.1693L169.214 46.359L167.249 53.2361Z" fill="white" stroke="white" stroke-width="0.5" stroke-miterlimit="10"/>
<path d="M178.816 45.1571C179.746 45.1146 180.66 45.4128 181.384 45.9954C181.654 46.2529 181.866 46.5646 182.006 46.91C182.146 47.2553 182.21 47.6263 182.195 47.9985V48.273C182.208 48.7782 182.048 49.2726 181.741 49.6751C181.391 50.093 180.912 50.3848 180.379 50.506C180.905 50.5862 181.382 50.8585 181.718 51.2698C182.054 51.6811 182.224 52.2021 182.195 52.7316V53.5847C182.21 53.9557 182.145 54.3254 182.005 54.6695C181.865 55.0135 181.654 55.324 181.384 55.5803C180.624 56.1024 179.73 56.3979 178.807 56.432C177.884 56.4662 176.971 56.2377 176.174 55.7732C175.881 55.521 175.649 55.2054 175.497 54.8506C175.345 54.4958 175.276 54.1111 175.295 53.7257V52.6722H176.955V53.8221C176.938 54.0393 176.969 54.2576 177.047 54.4615C177.124 54.6654 177.245 54.8498 177.402 55.0017C177.793 55.3031 178.288 55.439 178.779 55.38C179.274 55.4059 179.76 55.2382 180.134 54.9126C180.435 54.5639 180.585 54.1103 180.55 53.6515V52.7316C180.55 51.6559 179.91 51.1143 178.6 51.1143H177.856V50.0015H178.675C179.159 50.0281 179.639 49.8923 180.037 49.6157C180.203 49.485 180.335 49.3162 180.422 49.1238C180.509 48.9314 180.548 48.721 180.536 48.5104V48.0133C180.576 47.5517 180.432 47.0929 180.134 46.7373C179.76 46.4117 179.274 46.244 178.779 46.2699C178.288 46.2109 177.793 46.3468 177.402 46.6483C177.248 46.8019 177.128 46.9866 177.051 47.19C176.974 47.3934 176.941 47.6109 176.955 47.8278V48.5697H175.318V47.8278C175.295 47.4442 175.36 47.0604 175.508 46.7056C175.657 46.3508 175.884 46.0344 176.174 45.7803C176.946 45.253 177.888 45.0309 178.816 45.1571Z" fill="white" stroke="white" stroke-width="0.5" stroke-miterlimit="10"/>
<path d="M188.634 50.2167V51.2405H185.344V54.9498L189.364 54.8978V55.929L183.759 56.159V45.4688L189.364 45.6987V46.7373L185.344 46.6038V50.1944L188.634 50.2167Z" fill="white" stroke="white" stroke-width="0.5" stroke-miterlimit="10"/>
<path d="M193.346 46.8635L193.063 53.288C193.047 53.6436 192.994 53.9965 192.907 54.3415C192.83 54.6342 192.685 54.9045 192.483 55.1303C192.281 55.356 192.029 55.5306 191.746 55.6398C191.359 55.7796 190.951 55.8523 190.54 55.8549H190.302V54.846C190.553 54.8481 190.804 54.8131 191.046 54.7421C191.21 54.6876 191.357 54.5903 191.47 54.4602C191.575 54.3252 191.646 54.1677 191.679 54.0002C191.715 53.7918 191.737 53.5811 191.746 53.3697L192.043 45.8101L196.919 46.0104V55.5878L195.624 55.6398V46.9377L193.346 46.8635Z" fill="white" stroke="white" stroke-width="0.5" stroke-miterlimit="10"/>
<path d="M200.589 49.8162C201.261 49.7655 201.928 49.9694 202.457 50.3875C202.665 50.606 202.824 50.8653 202.926 51.149C203.027 51.4326 203.067 51.7342 203.045 52.0344V53.1175C203.077 53.7175 202.878 54.3071 202.487 54.7645C202.246 54.9924 201.962 55.1691 201.651 55.2839C201.34 55.3987 201.009 55.4491 200.678 55.4322L198.274 55.536V46.0698L199.517 46.1143V49.8237L200.589 49.8162ZM200.678 54.4974C200.85 54.5073 201.022 54.4813 201.184 54.4213C201.345 54.3613 201.492 54.2685 201.616 54.1487C201.821 53.8761 201.921 53.5392 201.899 53.1991V51.9751C201.917 51.8043 201.898 51.6316 201.842 51.469C201.787 51.3063 201.697 51.1575 201.578 51.0329C201.296 50.817 200.943 50.7138 200.589 50.7436H199.487V54.5345L200.678 54.4974Z" fill="white" stroke="white" stroke-width="0.5" stroke-miterlimit="10"/>
<path d="M205.151 54.0151V55.2466L204.079 55.2911V54.0448L205.151 54.0151Z" fill="white" stroke="white" stroke-width="0.5" stroke-miterlimit="10"/>
<path d="M207.906 51.3667L207.347 52.2347V55.1577L206.275 55.2022V46.3962L207.347 46.4408V50.6471L209.819 46.5446H210.838L208.531 50.4468L210.913 55.0464H209.886L207.906 51.3667Z" fill="white" stroke="white" stroke-width="0.5" stroke-miterlimit="10"/>
<path d="M212.647 53.2731L212.319 54.9572H211.419L213.079 46.6409L214.433 46.6928L215.997 54.7643H215.096L214.776 53.147L212.647 53.2731ZM212.774 52.4793H214.649L213.704 47.7611L212.774 52.4793Z" fill="white" stroke="white" stroke-width="0.5" stroke-miterlimit="10"/>
<defs>
<linearGradient id="paint0_linear" x1="100.069" y1="19.7411" x2="98.9131" y2="142.744" gradientUnits="userSpaceOnUse">
<stop stop-color="#FF6B68" stop-opacity="0"/>
<stop offset="0.6" stop-color="#69001C"/>
</linearGradient>
<linearGradient id="paint1_linear" x1="206.586" y1="153.897" x2="206.509" y2="148.208" gradientUnits="userSpaceOnUse">
<stop stop-color="#FF6B68"/>
<stop offset="0.99" stop-color="#A90038"/>
</linearGradient>
<linearGradient id="paint2_linear" x1="187.255" y1="12.2583" x2="186.142" y2="130.781" gradientUnits="userSpaceOnUse">
<stop stop-color="#FF6B68" stop-opacity="0"/>
<stop offset="0.99" stop-color="#A90038"/>
</linearGradient>
<linearGradient id="paint3_linear" x1="917.991" y1="1837.56" x2="917.991" y2="1771.52" gradientUnits="userSpaceOnUse">
<stop stop-color="#FF6B68"/>
<stop offset="0.99" stop-color="#A90038"/>
</linearGradient>
<linearGradient id="paint4_linear" x1="12308.7" y1="7209.86" x2="12308.7" y2="21457.6" gradientUnits="userSpaceOnUse">
<stop stop-color="#FF6B68" stop-opacity="0"/>
<stop offset="0.99" stop-color="#392C30"/>
</linearGradient>
<linearGradient id="paint5_linear" x1="58.364" y1="54.0108" x2="53.535" y2="94.9662" gradientUnits="userSpaceOnUse">
<stop stop-color="#A4FFD6"/>
<stop offset="0.99" stop-color="#00C2FF"/>
</linearGradient>
<linearGradient id="paint6_linear" x1="3667.35" y1="2898.23" x2="3436.52" y2="4256.12" gradientUnits="userSpaceOnUse">
<stop stop-color="#A4FFD6"/>
<stop offset="0.99" stop-color="#00C2FF"/>
</linearGradient>
<linearGradient id="paint7_linear" x1="3229.43" y1="3825.63" x2="3886.64" y2="3825.63" gradientUnits="userSpaceOnUse">
<stop stop-color="#FF6B68" stop-opacity="0"/>
<stop offset="0.99" stop-color="#A90038"/>
</linearGradient>
</defs>
</svg>
