<svg width="105" height="159" viewBox="0 0 105 159" fill="none" xmlns="http://www.w3.org/2000/svg">
<g clip-path="url(#clip0)">
<path d="M77.4025 83.9549C79.9424 64.356 81.0414 44.5956 80.6905 24.8343C79.3699 9.34327 66.5952 6.31006 52.0418 6.31006C37.4884 6.31006 24.7408 9.34327 23.4202 24.8343C23.0692 44.5956 24.1682 64.356 26.7082 83.9549H77.4025Z" fill="#414E67"/>
<path d="M81.8493 81.8698L66.6222 79.1616H38.3778L23.528 81.8698C19.7181 82.5365 16.1604 84.2319 13.2359 86.7747C10.3114 89.3175 8.13039 92.6117 6.92634 96.3047C3.50359 106.813 0 125.77 0 159H105.108C105.108 125.933 101.928 107.192 98.6666 96.7109C97.5053 92.9153 95.3182 89.5181 92.349 86.8978C89.3797 84.2774 85.7449 82.5368 81.8493 81.8698Z" fill="#071442"/>
<path d="M67.1881 79.1346H65.6519C64.6589 79.1304 63.6991 78.7754 62.9403 78.1318C62.1816 77.4881 61.6722 76.5968 61.5015 75.6139L58.6717 59.0396H46.0587L43.3637 75.6139C43.1921 76.6014 42.6788 77.4963 41.9145 78.1405C41.1501 78.7847 40.1839 79.1368 39.1863 79.1346H37.9735V82.3845C37.9726 85.0228 38.9444 87.568 40.7014 89.5286C42.4583 91.4892 44.8758 92.7262 47.4871 93.0007L50.6673 93.3528C51.3657 93.4341 52.0711 93.4341 52.7695 93.3528L57.6745 92.8924C60.3075 92.649 62.7547 91.4247 64.5351 89.4603C66.3155 87.4958 67.3003 84.9332 67.2959 82.2761L67.1881 79.1346Z" fill="#F0AA44"/>
<path d="M46.0588 59.0396L43.8489 72.0661C46.5438 73.2102 49.4397 73.7997 52.3653 73.7997C55.2909 73.7997 58.1868 73.2102 60.8817 72.0661L58.6718 59.0396H46.0588Z" fill="#DB9021"/>
<g style="mix-blend-mode:multiply" opacity="0.45">
<path d="M54.3596 102.994L56.7852 96.2775L52.2574 93.4067H50.9099L46.4091 96.2775L48.8347 102.994L42.9325 135.926L51.0447 145.703L59.6958 135.168L54.3596 102.994Z" fill="#A2A6A2"/>
</g>
<path d="M55.3568 101.613L57.7824 94.8692L53.2546 91.9985H51.9071L47.4063 94.8692L49.8049 101.613L43.9297 134.518L52.5809 145.053L61.232 134.518L55.3568 101.613Z" fill="#202F4D"/>
<g style="mix-blend-mode:multiply" opacity="0.45">
<path d="M65.1399 79.9199L54.6291 91.9986H50.3709L39.8601 79.9199L27.328 81.3011L37.5693 106.894L52.3652 94.3006L52.2844 94.2194H52.7156L52.6347 94.3006L67.4576 106.894L77.6719 81.3011L65.1399 79.9199Z" fill="#A2A6A2"/>
</g>
<path d="M27.328 81.3009L37.5693 104.673L52.3652 92.0797L39.8601 77.699L27.328 81.3009Z" fill="#EAEBEE"/>
<path d="M77.672 81.3009L67.4577 104.673L52.6348 92.0797L65.1399 77.699L77.672 81.3009Z" fill="#EAEBEE"/>
<path d="M82.2536 111.85H67.1881V119.027H82.2536V111.85Z" fill="#EFF0F2"/>
<g style="mix-blend-mode:multiply" opacity="0.45">
<path d="M82.2535 128.532V159H86.1075L82.2535 128.532Z" fill="#A2A6A2"/>
</g>
<g style="mix-blend-mode:multiply" opacity="0.45">
<path d="M21.884 128.532V159H18.057L21.884 128.532Z" fill="#A2A6A2"/>
</g>
<path d="M76.8365 39.3234C76.8365 55.5727 65.8946 68.8972 52.3653 68.8972C38.836 68.8972 27.894 55.654 27.894 39.3234C27.894 22.9927 38.863 9.74951 52.3653 9.74951C65.8676 9.74951 76.8365 22.9927 76.8365 39.3234Z" fill="#F0AA44"/>
<path d="M31.5054 6.12064C31.5054 6.12064 38.9168 36.859 82.7117 24.0762C82.7117 24.0762 81.2833 -14.6515 31.5054 6.12064Z" fill="#414E67"/>
<path d="M41.1268 5.90405C41.1268 5.90405 40.5608 29.4385 23.9861 33.203C23.9861 33.203 13.0441 7.96231 41.1268 5.90405Z" fill="#414E67"/>
<path d="M52.5 1.00222C45.3937 0.951318 38.555 3.72292 33.4722 8.71381C28.3895 13.7047 25.4741 20.5109 25.3606 27.6512C25.3724 28.9574 25.4805 30.2609 25.684 31.551H27.7323C27.7323 30.9733 27.7323 30.4045 27.7323 29.8448C27.8175 23.3036 30.4818 17.0635 35.1403 12.4939C39.7988 7.92428 46.0712 5.3985 52.5808 5.47079C59.0951 5.39127 65.3744 7.91385 70.0388 12.4842C74.7032 17.0546 77.3711 23.2988 77.4563 29.8448C77.4563 30.4226 77.4563 30.9913 77.4563 31.551H79.5046C79.7081 30.2609 79.8162 28.9574 79.828 27.6512C79.7145 20.4777 76.7731 13.6427 71.6495 8.64638C66.5259 3.65009 59.6387 0.90087 52.5 1.00222Z" fill="#071442"/>
<path d="M58.1057 58.6603L58.4561 55.8709L70.8265 54.3001L80.2323 46.7441L82.7117 47.8816L72.5243 56.5208L58.1057 58.6603Z" fill="#202F4D"/>
<path d="M58.2405 55.0042H52.4731C51.0739 55.0042 49.9397 56.1439 49.9397 57.5499V57.604C49.9397 59.01 51.0739 60.1498 52.4731 60.1498H58.2405C59.6397 60.1498 60.7739 59.01 60.7739 57.604V57.5499C60.7739 56.1439 59.6397 55.0042 58.2405 55.0042Z" fill="#202F4D"/>
<path d="M80.5287 28.6531H80.4479C78.2747 28.6531 76.5131 30.4233 76.5131 32.6071V47.8002C76.5131 49.984 78.2747 51.7543 80.4479 51.7543H80.5287C82.7018 51.7543 84.4635 49.984 84.4635 47.8002V32.6071C84.4635 30.4233 82.7018 28.6531 80.5287 28.6531Z" fill="#202F4D"/>
<path d="M23.7166 28.6531H23.6357C21.4626 28.6531 19.7009 30.4233 19.7009 32.6071V47.8002C19.7009 49.984 21.4626 51.7543 23.6357 51.7543H23.7166C25.8897 51.7543 27.6514 49.984 27.6514 47.8002V32.6071C27.6514 30.4233 25.8897 28.6531 23.7166 28.6531Z" fill="#202F4D"/>
</g>
<defs>
<clipPath id="clip0">
<rect width="105" height="159" fill="white"/>
</clipPath>
</defs>
</svg>
