<svg width="253" height="154" viewBox="0 0 253 154" fill="none" xmlns="http://www.w3.org/2000/svg">
<g clip-path="url(#clip0)">
<path d="M212.575 154L253 147.19L192.683 42.7827L171.111 44.0042L212.575 154Z" fill="#BCCC5C"/>
<path d="M40.4556 154L0 149.45L60.3167 42.7827L81.9194 44.0042L40.4556 154Z" fill="#D2EB44"/>
<path d="M40.4556 154L84.3333 147.19L104.439 42.7827L81.9195 44.0042L40.4556 154Z" fill="#BCCC5C"/>
<path d="M126.5 154L84.3333 147.19L104.439 42.7827L126.5 44.0042V154Z" fill="#D2EB44"/>
<path d="M126.5 154L168.667 147.19L148.561 42.7827L126.5 44.0042V154Z" fill="#BCCC5C"/>
<path d="M212.575 154L168.667 147.19L148.561 42.7827L171.111 44.0042L212.575 154Z" fill="#D2EB44"/>
<path d="M74.4029 43.5768C75.4723 44.8593 74.739 45.5312 73.7307 47.5161C72.7223 49.501 71.9585 49.7453 73.5168 52.0356C75.0751 54.3259 74.0974 54.2649 77.489 55.7306C80.8807 57.1964 82.9585 56.7384 84.7918 58.2652C86.6251 59.7921 86.9918 61.5938 91.789 59.67C96.5862 57.7461 96.0057 58.9371 98.6335 57.7156C101.261 56.4941 100.65 55.8223 101.903 56.2803C103.156 56.7384 106.914 55.7306 107.342 57.2575C107.77 58.7844 115.714 58.4179 118.097 60.4945C120.481 62.571 122.65 62.6626 123.658 63.5482C124.667 64.4338 125.858 64.3422 126.5 65.0445C127.142 65.7469 128.761 66.4798 133.528 66.1744C138.295 65.8691 138.57 67.1211 141.411 65.0445C144.253 62.968 142.725 62.8459 145.261 62.4489C147.38 61.7792 149.56 61.3189 151.77 61.0747C153.502 61.1089 155.164 61.7708 156.445 62.9375C159.011 65.0445 161.028 61.9297 164.603 66.1439C166.37 68.8859 168.882 71.0679 171.845 72.4346C174.537 73.6888 177.367 74.6216 180.278 75.2135C183.333 76.038 180.278 76.3739 183.333 76.038C185.396 76.0617 187.392 75.3096 188.925 73.9309C190.681 72.7106 192.177 71.1536 193.325 69.3503C194.67 67.2127 192.897 64.617 197.481 64.3116C199.875 64.2449 202.232 63.7052 204.417 62.7237L192.836 40.4009L171.111 44.0043L148.561 40.523L126.5 44.0043L104.439 40.523L81.9196 44.0043L74.4029 43.5768Z" fill="#5A9643"/>
<path d="M47.3611 65.6553C49.4083 67.0294 49.4389 66.9073 51.15 68.0677C52.632 68.9756 54.2524 69.6357 55.9472 70.0221C58.4527 70.8772 57.3222 70.5412 59.2778 73.0759C61.2333 75.6105 60.9889 75.4883 63.6166 76.435C66.2444 77.3816 66.6722 79.0001 68.9333 78.3894C71.4939 77.9413 73.9124 76.895 75.9916 75.3356C77.2444 73.8087 77.9472 72.801 83.2944 71.7017C85.7555 71.5572 88.1835 71.0636 90.5055 70.2359C94.2944 68.8312 94.05 68.2815 95.8833 68.9228C97.7166 69.5641 97.9611 68.6174 98.9389 69.7778C99.9166 70.9382 103.186 69.4724 103.828 72.4651C104.469 75.4578 106.364 75.5188 108.594 77.4732C110.825 79.4276 111.069 79.6719 113.239 81.5652C115.408 83.4586 113.697 82.97 116.508 85.7489C119.319 88.5278 120.267 88.5583 122.222 90.2989C124.178 92.0396 124.819 93.6275 126.653 94.0856C128.486 94.5436 128.731 96.04 131.144 97.4141C133.558 98.7883 131.144 100.712 136.981 97.4141C139.175 96.1583 141.278 94.7501 143.275 93.2C147.583 90.4516 146.728 91.8869 149.631 90.1462C151.183 89.1551 152.654 88.042 154.031 86.8177C155.131 86.1458 156.078 85.3519 156.567 86.1458C157.056 86.9398 155.192 85.1992 160.569 87.917C163.897 89.6249 166.856 91.9699 169.278 94.8185C171.753 96.9561 175.389 99.1242 176.428 101.689C177.467 104.255 182.142 107.553 184.097 109.476C186.512 111.595 189.109 113.495 191.858 115.156C194.914 117.233 199.742 119.584 199.742 119.584C199.742 119.584 200.444 120.164 203.928 117.233C207.411 114.301 206.769 115.34 208.725 111.645C210.681 107.95 207.686 109.66 212.025 106.881C216.364 104.102 215.539 103.827 217.433 101.689C219.076 100.328 220.964 99.2914 222.994 98.6356L223.85 97.689L209.519 71.7627C207.966 73.9502 206.538 76.2238 205.242 78.5726C204.111 80.924 203.378 84.1304 201.758 85.1992C200.139 86.268 198.214 90.2684 195.983 91.3067C193.753 92.3449 189.353 92.0396 189.628 92.7419C189.903 93.4443 187.581 93.4748 184.494 90.7265C182.26 88.1907 179.551 86.116 176.519 84.619C174.419 83.6728 172.43 82.4948 170.592 81.1072C167.933 79.4887 163.075 78.7558 161.608 77.4122C160.249 75.9637 158.646 74.7647 156.872 73.8698C155.925 73.8698 155.497 73.198 154.458 73.198C153.419 73.198 149.508 72.1597 148.347 73.198C147.186 74.2363 147.767 73.198 143.947 75.3967C142.009 76.4862 139.961 77.3666 137.836 78.0229C133.864 79.733 132.703 80.2216 131.725 80.527C130.12 80.6989 128.502 80.6989 126.897 80.527C126.897 80.527 129.189 80.3743 123.414 76.9236C117.639 73.4728 116.661 72.6178 115.408 71.8238C113.082 70.9913 111.081 69.4406 109.694 67.3959C107.8 64.3422 106.639 62.8153 105.936 62.6015C105.233 62.3878 100.833 61.5938 100.833 61.5938C99.1394 61.7182 97.4614 62.0045 95.8222 62.4488C93.5916 63.1512 89.4361 64.4338 87.9083 64.9529C85.0203 65.4477 82.099 65.7234 79.1694 65.7774C77.9785 65.8441 76.8091 66.1233 75.7166 66.6019C74.8512 66.9687 73.9501 67.245 73.0278 67.4264C71.0094 67.2911 69.0371 66.762 67.2222 65.869C65.45 64.6475 63.7694 65.2583 62.0889 62.4488C60.4083 59.6394 59.8889 57.6239 59.0333 57.3491C57.621 56.6056 56.272 55.7477 55 54.784L53.8694 53.99L47.3611 65.6553Z" fill="#3B67AD"/>
<path d="M44.4889 70.7246C45.408 70.9902 46.2338 71.5087 46.8722 72.2209C47.9417 73.4424 47.6972 74.3586 49.5 76.2213C50.024 77.0337 50.7142 77.7259 51.5253 78.2522C52.3364 78.7786 53.2499 79.1272 54.2056 79.2751C57.0167 79.9164 59.5222 80.0996 60.3167 81.4432C61.1111 82.7869 60.7139 84.894 62.7306 85.2299C63.8853 85.4375 65.02 85.744 66.1222 86.146C66.1222 86.146 66.6111 86.3292 69.6056 84.7107C72.6 83.0922 74.6472 81.657 77.0917 80.5882C79.5361 79.5194 80.6361 78.2979 82.225 78.1147C84.3032 77.6767 86.3459 77.0847 88.3361 76.3435C89.4361 76.0381 89.9556 76.0381 90.3833 77.3207C90.8111 78.6033 90.0778 80.7714 92.4917 80.5882C94.3515 80.3078 96.1436 79.6867 97.7778 78.7559L100.558 80.5882C100.558 80.5882 99.4889 82.2677 100.069 83.4892C100.65 84.7107 100.069 86.8483 101.567 87.398C103.069 88.0368 104.353 89.0977 105.264 90.4518C105.986 91.7284 106.881 92.8998 107.922 93.933C108.929 94.7073 109.797 95.647 110.489 96.7119C110.733 97.3532 110 98.7885 112.231 100.254C114.461 101.72 118.342 102.209 119.106 104.163C119.855 105.896 121.058 107.394 122.589 108.499C123.842 109.29 125.186 109.926 126.592 110.393C126.592 110.393 128.486 112.072 129.647 112.072C130.808 112.072 134.933 111.339 135.208 110.637C135.483 109.935 138.264 109.202 139.119 108.744C139.975 108.286 136.4 109.904 140.006 108.255C143.611 106.606 146.117 107.125 147.981 105.507L149.875 103.949C149.875 103.949 155.619 102.422 157.575 101.781L159.531 101.109L166.008 103.736L173.189 112.072L178.414 116.042C180.061 117.596 181.863 118.977 183.792 120.165C184.861 120.439 186.083 120.165 191.614 125.051C194.784 127.992 198.392 130.423 202.308 132.257L204.967 133.754C204.967 133.754 207.411 138.395 208.817 133.754C210.222 129.112 209.917 130.486 212.392 128.165C214.602 126.258 217.058 124.656 219.694 123.402C221.759 121.954 223.71 120.351 225.531 118.607L230.053 115.553L236.164 117.996L253 147.19L212.575 154L168.667 147.19L126.5 154L84.3333 147.19L40.4556 154L0 149.45L44.4889 70.7246Z" fill="#5A9643"/>
<path d="M97.9917 130.394L87.2361 133.967L50.6611 126.944L23.5889 130.394L39.7222 98.3607L62.3639 95.8872L93.5 100.895L102.453 98.3607L97.9917 130.394Z" fill="white"/>
<path d="M98.8166 106.453L92.0333 108.53L59.6444 103.094L40.1194 105.171L41.7388 101.842L60.8666 99.8572L92.7055 105.079L99.336 103.094L98.8166 106.453Z" fill="#B5B5B5"/>
<path d="M97.5334 114.973L90.414 117.264L56.5584 111.278L36.0862 113.568L37.8278 109.935L57.9028 107.736L91.1167 113.477L98.0834 111.278L97.5334 114.973Z" fill="#B5B5B5"/>
<path d="M76.2973 124.776L53.0751 120.47L31.564 122.974L33.489 118.973L54.5723 116.561L77.3056 120.684L76.2973 124.776Z" fill="#B5B5B5"/>
<path opacity="0.2" d="M126.5 154L168.667 147.19L148.561 40.5229L126.5 44.0042V154Z" fill="black"/>
<path opacity="0.2" d="M212.575 154L253 147.19L204.294 62.8458L192.683 40.5229L171.111 44.0042L212.575 154Z" fill="black"/>
<path opacity="0.2" d="M40.4556 154L84.3333 147.19L104.439 40.5229L81.9195 44.0042L40.4556 154Z" fill="black"/>
<path d="M177.222 126.608C177.222 126.608 176.856 125.57 176.153 123.798L177.558 123.218C178.292 125.051 178.658 126.119 178.658 126.119L177.222 126.608Z" fill="white"/>
<path d="M173.556 118.027C172.669 116.134 171.722 114.21 170.714 112.347L172.089 111.614C173.067 113.538 174.044 115.462 174.931 117.355L173.556 118.027ZM167.628 106.881C166.558 105.079 165.458 103.247 164.297 101.506L165.581 100.651C166.742 102.453 167.872 104.285 168.972 106.117L167.628 106.881ZM160.722 96.1927C159.469 94.4521 158.156 92.7725 156.872 91.1541L158.033 90.2074C159.378 91.8259 160.692 93.536 161.944 95.2766L160.722 96.1927ZM152.778 86.3597C151.342 84.7718 149.722 83.306 148.378 81.7791L149.447 80.6797C150.944 82.1455 152.503 83.7335 153.908 85.3214L152.778 86.3597ZM143.611 77.5039C141.992 76.1297 140.342 74.786 138.661 73.5645L139.578 72.343C141.289 73.5951 142.969 74.9387 144.589 76.3434L143.611 77.5039ZM133.467 69.9611C131.694 68.8312 129.861 67.7624 128.028 66.9074L128.731 65.5637C130.625 66.5715 132.489 67.6708 134.292 68.8007L133.467 69.9611ZM122.436 64.1285C120.481 63.304 118.525 62.5711 116.539 61.8993L117.028 60.464C119.044 61.1358 121.061 61.8993 123.139 62.7238L122.436 64.1285ZM110.489 60.1586C108.442 59.67 106.364 59.273 104.378 58.9677L104.622 57.4408C106.731 57.7767 108.869 58.2042 110.917 58.6928L110.489 60.1586ZM79.1389 59.0593L78.925 57.563C81.0639 57.227 83.2028 56.9522 85.2806 56.7995L85.4334 58.3264C83.3556 58.4791 81.2473 58.7234 79.1389 59.0593ZM98.0223 58.2042C96.2195 58.2042 94.3556 58.021 92.4917 58.021H91.6667V56.4941H92.4306C94.325 56.4941 96.2195 56.4941 98.0834 56.6774L98.0223 58.2042Z" fill="white"/>
<path d="M64.8694 62.1741L69.3611 59.5173L72.0194 57.9905L72.4472 58.7539L72.6611 59.3647L72.8444 60.2197L69.7888 60.9221L64.8694 62.1741Z" fill="white"/>
<path d="M78.0084 56.5856L77.3362 55.2114C79.1084 54.3564 80.9417 53.5013 82.7751 52.7379L83.3862 54.1426C81.5834 54.9671 79.7501 55.7306 78.0084 56.5856ZM88.8862 51.9134L88.3973 50.4781C90.2612 49.8063 92.1862 49.1956 94.1112 48.6764L94.5084 50.1422C92.6445 50.7835 90.7501 51.3943 88.8862 51.9134ZM152.778 51.4248C150.945 50.814 149.05 50.2644 147.125 49.7758L147.492 48.2794C149.447 48.7986 151.403 49.3788 153.267 49.959L152.778 51.4248ZM100.253 48.8597L99.9167 47.3633C101.842 46.9358 103.828 46.5693 105.814 46.264L106.058 47.7603C104.103 48.0046 102.147 48.3711 100.253 48.8597ZM141.289 48.4932C139.364 48.1268 137.408 47.7908 135.453 47.516L135.667 46.0197C137.653 46.2945 139.639 46.6304 141.595 46.9969L141.289 48.4932ZM111.895 47.0274V45.5005C113.881 45.3173 115.897 45.1646 118.006 45.1036V46.6304C115.836 46.6304 113.85 46.7526 111.895 46.9663V47.0274ZM129.586 46.8747C127.631 46.722 125.645 46.6304 123.689 46.5693V45.0425C125.675 45.0425 127.692 45.0425 129.8 45.3479L129.586 46.8747Z" fill="white"/>
<path d="M161.028 54.6618C161.028 54.6618 160.05 54.1732 158.278 53.4709L158.858 52.0662C159.826 52.4351 160.775 52.853 161.7 53.3182L161.028 54.6618Z" fill="white"/>
<path d="M162.097 -9.61625e-05C157.235 -9.61625e-05 152.572 1.9303 149.134 5.36642C145.695 8.80254 143.764 13.4629 143.764 18.3223C143.764 28.5218 162.097 53.8678 162.097 53.8678C162.097 53.8678 180.583 28.644 180.583 18.3223C180.583 15.9033 180.104 13.5082 179.173 11.2752C178.242 9.0422 176.878 7.01554 175.16 5.31214C173.441 3.60873 171.402 2.26231 169.16 1.35055C166.918 0.438788 164.518 -0.0202548 162.097 -9.61625e-05ZM162.097 27.2392C160.46 27.2392 158.859 26.7539 157.497 25.8445C156.135 24.9352 155.074 23.6427 154.447 22.1306C153.82 20.6184 153.656 18.9544 153.976 17.3491C154.295 15.7438 155.084 14.2692 156.242 13.1119C157.4 11.9545 158.876 11.1663 160.482 10.847C162.088 10.5277 163.753 10.6916 165.266 11.3179C166.779 11.9443 168.072 13.005 168.982 14.3659C169.892 15.7268 170.378 17.3269 170.378 18.9636C170.382 20.0515 170.17 21.1295 169.756 22.1353C169.341 23.1412 168.731 24.0551 167.961 24.8244C167.192 25.5936 166.277 26.2031 165.271 26.6175C164.264 27.032 163.186 27.2433 162.097 27.2392Z" fill="#92A8F4"/>
<path d="M177.864 81.8096C173.812 81.8096 169.926 83.4182 167.061 86.2817C164.196 89.1451 162.586 93.0288 162.586 97.0783C162.586 105.568 177.864 126.73 177.864 126.73C177.864 126.73 193.142 105.568 193.142 97.0783C193.142 93.0288 191.532 89.1451 188.667 86.2817C185.802 83.4182 181.916 81.8096 177.864 81.8096ZM177.864 104.529C176.494 104.529 175.156 104.122 174.018 103.36C172.881 102.597 171.996 101.514 171.476 100.247C170.956 98.981 170.825 97.5887 171.099 96.2475C171.373 94.9063 172.039 93.6768 173.014 92.7154C173.989 91.7539 175.228 91.104 176.574 90.8481C177.919 90.5923 179.311 90.7421 180.571 91.2785C181.831 91.8149 182.903 92.7137 183.651 93.8607C184.398 95.0076 184.788 96.3508 184.77 97.7195C184.745 99.534 184.007 101.266 182.715 102.54C181.422 103.815 179.68 104.53 177.864 104.529Z" fill="#CC2929"/>
<path d="M67.2221 16.1238C63.1702 16.1238 59.2842 17.7324 56.4191 20.5959C53.554 23.4593 51.9443 27.343 51.9443 31.3925C51.9443 39.8819 67.2221 61.0443 67.2221 61.0443C67.2221 61.0443 82.4999 39.8819 82.4999 31.3925C82.4999 29.3874 82.1047 27.4019 81.3369 25.5494C80.5692 23.6969 79.4438 22.0137 78.0251 20.5959C76.6065 19.178 74.9222 18.0534 73.0687 17.286C71.2151 16.5187 69.2284 16.1238 67.2221 16.1238ZM67.2221 38.8436C65.855 38.8496 64.5169 38.45 63.3773 37.6954C62.2377 36.9407 61.3478 35.865 60.8205 34.6044C60.2931 33.3439 60.152 31.9553 60.415 30.6146C60.678 29.2738 61.3332 28.0412 62.2978 27.073C63.2623 26.1047 64.4927 25.4444 65.8331 25.1756C67.1734 24.9068 68.5635 25.0417 69.8271 25.5632C71.0907 26.0846 72.171 26.9692 72.9312 28.1047C73.6913 29.2403 74.0971 30.5759 74.0971 31.9421C74.0971 33.7672 73.3738 35.518 72.0853 36.8114C70.7969 38.1048 69.0483 38.8355 67.2221 38.8436Z" fill="#29A1CC"/>
</g>
<defs>
<clipPath id="clip0">
<rect width="253" height="154" fill="white"/>
</clipPath>
</defs>
</svg>
