<svg width="231" height="143" viewBox="0 0 231 143" fill="none" xmlns="http://www.w3.org/2000/svg">
<path d="M191.012 44.576L189.302 46.737L186.862 46.159V25.5294L202.254 21.2327L201.977 42.1387L199.789 41.5105L198.079 43.6966L195.388 43.0432L193.678 45.2042L191.012 44.576Z" fill="#705035"/>
<path d="M202.254 21.2326L186.862 25.5294L121.775 8.24172L136.186 5.05054H136.211L202.254 21.2326Z" fill="#E5B793"/>
<path d="M231 13.1416L202.254 21.2326L136.211 5.05061L158.997 0L231 13.1416Z" fill="#F0C4A3"/>
<path d="M186.862 25.5296L155.777 34.2739L90.866 15.1017L121.775 8.24194L186.862 25.5296Z" fill="#F0C4A3"/>
<path d="M231 13.1416L229.214 102.444L158.997 137.949L155.777 34.2737L186.862 25.5294V46.159L189.302 46.7369L191.012 44.576L193.678 45.2042L195.388 43.0432L198.079 43.6965L199.789 41.5104L201.977 42.1386L202.254 21.2326L231 13.1416Z" fill="#936852"/>
<path style="mix-blend-mode:hard-light" d="M231 13.1416L229.214 102.444L158.997 137.949L155.777 34.2737L186.862 25.5294V46.159L189.302 46.7369L191.012 44.576L193.678 45.2042L195.388 43.0432L198.079 43.6965L199.789 41.5104L201.977 42.1386L202.254 21.2326L231 13.1416Z" fill="url(#paint0_linear)"/>
<path d="M133.294 84.5788C133.298 90.7838 131.675 96.8817 128.586 102.265C125.498 107.648 121.051 112.128 115.689 115.259L158.971 137.874L155.777 34.2737L90.866 15.0764L92.1989 49.5261C94.0775 49.2136 95.9783 49.054 97.8827 49.0487C107.29 49.0819 116.301 52.8407 122.938 59.501C129.576 66.1614 133.3 75.1796 133.294 84.5788Z" fill="#E9AA81"/>
<path style="mix-blend-mode:hard-light" d="M133.294 84.5788C133.298 90.7838 131.675 96.8817 128.586 102.265C125.498 107.648 121.051 112.128 115.689 115.259L158.971 137.874L155.777 34.2737L90.866 15.0764L92.1989 49.5261C94.0775 49.2136 95.9783 49.054 97.8827 49.0487C107.29 49.0819 116.301 52.8407 122.938 59.501C129.576 66.1614 133.3 75.1796 133.294 84.5788Z" fill="url(#paint1_linear)"/>
<path d="M112.972 118.526C120.157 114.302 125.755 107.838 128.905 100.127C132.055 92.4161 132.584 83.8848 130.41 75.8444C128.236 67.804 123.48 60.6993 116.872 55.6221C110.264 50.545 102.17 47.7765 93.8335 47.7419C91.7952 47.7355 89.7597 47.8952 87.7473 48.2193L90.0108 106.615L112.972 118.526Z" fill="#E9AA81"/>
<path style="mix-blend-mode:hard-light" d="M112.972 118.526C120.157 114.302 125.755 107.838 128.905 100.127C132.055 92.4161 132.584 83.8848 130.41 75.8444C128.236 67.804 123.48 60.6993 116.872 55.6221C110.264 50.545 102.17 47.7765 93.8335 47.7419C91.7952 47.7355 89.7597 47.8952 87.7473 48.2193L90.0108 106.615L112.972 118.526Z" fill="url(#paint2_linear)"/>
<path style="mix-blend-mode:multiply" d="M88.0239 57.0142C92.8573 54.6918 98.1529 53.4893 103.516 53.4964C123.384 53.4964 136.89 69.201 136.89 89.0516C136.988 94.828 135.638 100.537 132.963 105.659C130.288 110.781 126.372 115.152 121.574 118.375L116.845 115.863L112.897 118.501L89.9353 106.465L88.0239 57.0142Z" fill="url(#paint3_linear)"/>
<path d="M11.5187 136.241C9.81187 135.523 8.40741 134.235 7.54505 132.597C6.53549 130.674 6.33131 128.43 6.97738 126.357C7.62346 124.284 9.06692 122.552 10.9906 121.541L57.4672 100.359C58.739 99.8188 60.168 99.7784 61.4682 100.246C62.7685 100.713 63.8441 101.654 64.4799 102.88C65.1156 104.106 65.2646 105.527 64.8969 106.857C64.5293 108.188 63.6722 109.331 62.4971 110.058L18.7115 136.04C17.608 136.621 16.3856 136.942 15.1385 136.976C13.8915 137.011 12.653 136.76 11.5187 136.241Z" fill="#3D2100"/>
<path style="mix-blend-mode:screen" d="M59.3031 99.9818C60.6863 102.721 48.5893 111.616 32.242 119.908C15.8947 128.2 1.50908 132.698 0.000101954 129.959C-1.50888 127.22 10.8145 118.325 27.1618 110.058C43.5091 101.791 57.8444 97.2681 59.3031 99.9818Z" fill="url(#paint4_radial)"/>
<path style="mix-blend-mode:screen" d="M65.7917 111.113C67.2504 113.802 55.3043 122.973 39.133 131.567C22.9618 140.16 8.65159 144.935 7.21806 142.246C5.78453 139.557 17.6049 130.386 33.8767 121.817C50.1486 113.249 64.333 108.425 65.7917 111.113Z" fill="url(#paint5_radial)"/>
<g style="mix-blend-mode:screen">
<g style="mix-blend-mode:screen">
<path d="M20.8997 126.567L18.9128 127.27L20.8997 126.567Z" fill="#0F0B06"/>
</g>
<g style="mix-blend-mode:screen">
<path d="M18.9127 127.27C26.4576 124.757 34.7319 119.556 42.4026 115.988C43.987 115.234 65.5906 103.927 64.3331 102.897C64.3331 102.897 63.4529 103.098 62.296 103.65C65.5151 101.414 65.6409 98.3988 59.278 100.886C54.0217 102.947 7.99777 124.757 8.60136 126.014C8.60136 126.215 10.0097 125.737 12.1475 124.808C8.85286 126.768 6.71513 128.351 6.66483 129.205C6.66483 129.205 47.1307 108.701 51.0792 107.143C41.2708 112.169 31.89 119.305 22.157 122.973C20.975 123.401 2.71633 130.788 5.55825 133.024C5.86004 133.251 17.278 127.622 18.9127 127.069V127.27ZM60.0828 102.143L56.2852 103.776C58.0457 103.022 59.3786 102.444 60.0828 102.193V102.143ZM59.3786 105.032C52.1606 108.676 39.5103 115.686 37.7499 116.491C44.4809 111.844 51.7416 108.015 59.3786 105.083V105.032Z" fill="#0F0B06"/>
</g>
<g style="mix-blend-mode:screen">
<path d="M61.3403 107.068C60.0286 107.821 58.7683 108.66 57.5679 109.58C58.8254 108.701 60.0577 108.048 61.3403 107.068Z" fill="#0F0B06"/>
</g>
<g style="mix-blend-mode:screen">
<path d="M57.5677 109.505C48.3908 115.444 38.8673 120.831 29.048 125.637C26.7342 126.767 7.89707 133.678 7.94737 134.532C8.17371 137.773 31.5378 125.913 34.6564 124.481C42.9809 120.611 59.1522 110.56 61.3402 107.068C57.442 109.681 56.9138 109.982 57.5677 109.505Z" fill="#0F0B06"/>
</g>
<g style="mix-blend-mode:screen">
<path d="M59.8313 110.334C56.7884 112.923 53.5325 115.252 50.0984 117.295C53.5794 115.324 56.8419 112.991 59.8313 110.334Z" fill="#0F0B06"/>
</g>
<g style="mix-blend-mode:screen">
<path d="M6.23732 135.939C3.89839 136.216 8.75229 139.181 10.0852 139.105C15.8194 138.804 24.3954 131.944 30.6325 128.376C36.8697 124.808 43.987 121.064 50.0984 117.295C42.1008 121.918 33.3738 125.185 26.4828 129.306C20.5062 133.402 13.4811 135.704 6.23732 135.939Z" fill="#0F0B06"/>
</g>
<g style="mix-blend-mode:screen">
<path d="M61.2145 109.028L59.8313 110.334C60.3594 109.907 60.787 109.48 61.2145 109.028Z" fill="#0F0B06"/>
</g>
</g>
<g style="mix-blend-mode:multiply">
<path d="M125.598 68.5477C128.741 74.1858 130.141 80.6278 129.624 87.0607C129.106 93.4935 126.692 99.6289 122.688 104.693C118.683 109.756 113.267 113.522 107.123 115.513C100.979 117.504 94.382 117.633 88.1649 115.882C81.9477 114.131 76.389 110.58 72.19 105.676C67.9911 100.772 65.3402 94.7351 64.5718 88.3273C63.8034 81.9195 64.952 75.4279 67.8726 69.6716C70.7932 63.9154 75.355 59.1525 80.9822 55.984C88.5686 51.7506 97.5258 50.6958 105.889 53.051C114.253 55.4062 121.341 60.9791 125.598 68.5477Z" fill="#F9F6EE"/>
</g>
<path style="mix-blend-mode:multiply" d="M125.598 68.5477C128.741 74.1858 130.141 80.6278 129.624 87.0607C129.106 93.4935 126.692 99.6289 122.688 104.693C118.683 109.756 113.267 113.522 107.123 115.513C100.979 117.504 94.382 117.633 88.1649 115.882C81.9477 114.131 76.389 110.58 72.19 105.676C67.9911 100.772 65.3402 94.7351 64.5718 88.3273C63.8034 81.9195 64.952 75.4279 67.8726 69.6716C70.7932 63.9154 75.355 59.1525 80.9822 55.984C88.5686 51.7506 97.5258 50.6958 105.889 53.051C114.253 55.4062 121.341 60.9791 125.598 68.5477Z" fill="url(#paint6_linear)"/>
<g style="mix-blend-mode:screen">
<path style="mix-blend-mode:multiply" d="M68.8599 83.5236C69.8498 87.2455 71.3657 90.8076 73.3617 94.1022C73.6103 88.5666 75.2643 83.1852 78.1681 78.4641C81.0718 73.7431 85.1299 69.8378 89.9605 67.1154C98.8324 62.4682 109.158 61.424 118.782 64.2006C100.926 47.9683 70.8467 57.2906 68.8599 83.5236Z" fill="url(#paint7_linear)"/>
</g>
<g style="mix-blend-mode:screen">
<path style="mix-blend-mode:multiply" d="M124.667 78.7241C119.989 101.339 93.6575 111.993 77.9641 106.59C97.7066 126.315 135.456 104.505 124.667 78.7241Z" fill="url(#paint8_linear)"/>
</g>
<path d="M67.7535 108.651C66.3622 106.95 65.1171 105.134 64.0313 103.223C62.9523 101.313 62.0435 99.3122 61.3151 97.2431C58.1529 88.3044 58.4593 78.506 62.174 69.7819C65.8887 61.0579 72.7417 54.0421 81.3804 50.1193C90.0191 46.1964 99.8158 45.6516 108.837 48.5924C117.858 51.5331 125.448 57.7457 130.109 66.004C134.769 74.2622 136.162 83.9661 134.013 93.2003C131.863 102.434 126.326 110.528 118.496 115.883C110.666 121.239 101.111 123.467 91.7168 122.128C82.3229 120.789 73.7725 115.98 67.7535 108.651ZM113.174 113.073C118.798 109.902 123.355 105.137 126.272 99.3807C129.189 93.6242 130.334 87.1336 129.563 80.7275C128.793 74.3215 126.14 68.287 121.941 63.3853C117.742 58.4835 112.183 54.9341 105.967 53.1847C99.7514 51.4352 93.1561 51.5642 87.0134 53.5553C80.8707 55.5463 75.4557 59.3103 71.4515 64.3725C67.4474 69.4346 65.0333 75.5682 64.5139 81.9994C63.9946 88.4307 65.3931 94.8716 68.5331 100.51C72.7903 108.085 79.8823 113.663 88.2521 116.018C96.6218 118.374 105.585 117.315 113.174 113.073Z" fill="#737373"/>
<path d="M67.7535 108.651C66.3622 106.95 65.1171 105.134 64.0313 103.223C62.9523 101.313 62.0435 99.3122 61.3151 97.2431C58.1529 88.3044 58.4593 78.506 62.174 69.7819C65.8887 61.0579 72.7417 54.0421 81.3804 50.1193C90.0191 46.1964 99.8158 45.6516 108.837 48.5924C117.858 51.5331 125.448 57.7457 130.109 66.004C134.769 74.2622 136.162 83.9661 134.013 93.2003C131.863 102.434 126.326 110.528 118.496 115.883C110.666 121.239 101.111 123.467 91.7168 122.128C82.3229 120.789 73.7725 115.98 67.7535 108.651ZM113.174 113.073C118.798 109.902 123.355 105.137 126.272 99.3807C129.189 93.6242 130.334 87.1336 129.563 80.7275C128.793 74.3215 126.14 68.287 121.941 63.3853C117.742 58.4835 112.183 54.9341 105.967 53.1847C99.7514 51.4352 93.1561 51.5642 87.0134 53.5553C80.8707 55.5463 75.4557 59.3103 71.4515 64.3725C67.4474 69.4346 65.0333 75.5682 64.5139 81.9994C63.9946 88.4307 65.3931 94.8716 68.5331 100.51C72.7903 108.085 79.8823 113.663 88.2521 116.018C96.6218 118.374 105.585 117.315 113.174 113.073Z" fill="url(#paint9_radial)"/>
<path d="M67.7533 108.651C67.8053 109.326 67.6623 110.003 67.3414 110.599C67.0204 111.196 66.535 111.688 65.9425 112.018C65.3827 112.329 64.7465 112.477 64.1066 112.445C63.49 112.418 62.8913 112.23 62.3704 111.9C61.8496 111.569 61.4249 111.107 61.1389 110.561L60.9629 110.259L56.1593 101.741C55.9325 101.339 55.7876 100.896 55.7331 100.438C55.6787 99.9793 55.7156 99.5148 55.8419 99.0709C55.9682 98.6269 56.1813 98.2124 56.4689 97.8512C56.7564 97.4901 57.1128 97.1894 57.5174 96.9667C58.0771 96.6278 58.7246 96.4617 59.3785 96.4893C60.0709 96.5299 60.7397 96.7555 61.315 97.1426C62.0433 99.2117 62.9522 101.213 64.0312 103.123C65.1121 105.068 66.3573 106.918 67.7533 108.651Z" fill="#994E37"/>
<path d="M67.7533 108.651C67.8053 109.326 67.6623 110.003 67.3414 110.599C67.0204 111.196 66.535 111.688 65.9425 112.018C65.3827 112.329 64.7465 112.477 64.1066 112.445C63.49 112.418 62.8913 112.23 62.3704 111.9C61.8496 111.569 61.4249 111.107 61.1389 110.561L60.9629 110.259L56.1593 101.741C55.9325 101.339 55.7876 100.896 55.7331 100.438C55.6787 99.9793 55.7156 99.5148 55.8419 99.0709C55.9682 98.6269 56.1813 98.2124 56.4689 97.8512C56.7564 97.4901 57.1128 97.1894 57.5174 96.9667C58.0771 96.6278 58.7246 96.4617 59.3785 96.4893C60.0709 96.5299 60.7397 96.7555 61.315 97.1426C62.0433 99.2117 62.9522 101.213 64.0312 103.123C65.1121 105.068 66.3573 106.918 67.7533 108.651Z" fill="url(#paint10_linear)"/>
<path style="mix-blend-mode:multiply" d="M67.7534 108.651C66.3621 106.95 65.117 105.134 64.0312 103.223C62.9522 101.313 62.0434 99.3122 61.315 97.2431C61.0426 97.061 60.7465 96.9173 60.4348 96.8159C61.3799 102.13 63.2618 107.235 65.9929 111.892C66.554 111.563 67.0145 111.088 67.3248 110.516C67.635 109.945 67.7832 109.3 67.7534 108.651Z" fill="url(#paint11_linear)"/>
<defs>
<linearGradient id="paint0_linear" x1="231.629" y1="145.412" x2="182.505" y2="51.5507" gradientUnits="userSpaceOnUse">
<stop stop-color="#947457"/>
<stop offset="1" stop-color="#808080"/>
</linearGradient>
<linearGradient id="paint1_linear" x1="121.222" y1="145.06" x2="127.121" y2="36.007" gradientUnits="userSpaceOnUse">
<stop stop-color="#DB9C81"/>
<stop offset="1" stop-color="#808080"/>
</linearGradient>
<linearGradient id="paint2_linear" x1="2008.34" y1="3905.47" x2="2008.34" y2="1856.98" gradientUnits="userSpaceOnUse">
<stop stop-color="#DB9C81"/>
<stop offset="1" stop-color="#808080"/>
</linearGradient>
<linearGradient id="paint3_linear" x1="46.4263" y1="-21.3581" x2="122.304" y2="107.454" gradientUnits="userSpaceOnUse">
<stop stop-color="white"/>
<stop offset="1" stop-color="#D6CCC3"/>
</linearGradient>
<radialGradient id="paint4_radial" cx="0" cy="0" r="1" gradientUnits="userSpaceOnUse" gradientTransform="translate(30.0326 114.759) rotate(-117.222) scale(5.51326 33.0333)">
<stop stop-color="white"/>
<stop offset="0.11" stop-color="#A3A3A3"/>
<stop offset="0.23" stop-color="#6F6F6F"/>
<stop offset="0.4" stop-color="#4B4B4B"/>
<stop offset="0.62" stop-color="#232323"/>
<stop offset="0.8" stop-color="#0C0C0C"/>
<stop offset="1"/>
</radialGradient>
<radialGradient id="paint5_radial" cx="0" cy="0" r="1" gradientUnits="userSpaceOnUse" gradientTransform="translate(17803.1 -17425.5) rotate(-118.245) scale(128.687 428.894)">
<stop stop-color="white"/>
<stop offset="0.11" stop-color="#A3A3A3"/>
<stop offset="0.23" stop-color="#6F6F6F"/>
<stop offset="0.4" stop-color="#4B4B4B"/>
<stop offset="0.62" stop-color="#232323"/>
<stop offset="0.8" stop-color="#0C0C0C"/>
<stop offset="1"/>
</radialGradient>
<linearGradient id="paint6_linear" x1="76.3835" y1="46.8005" x2="122.441" y2="131.196" gradientUnits="userSpaceOnUse">
<stop stop-color="#BCCFCB"/>
<stop offset="1" stop-color="white"/>
</linearGradient>
<linearGradient id="paint7_linear" x1="81.6393" y1="83.0831" x2="105.999" y2="55.0031" gradientUnits="userSpaceOnUse">
<stop/>
<stop offset="1" stop-color="white"/>
</linearGradient>
<linearGradient id="paint8_linear" x1="-31389.7" y1="840.08" x2="-32189.5" y2="1288.3" gradientUnits="userSpaceOnUse">
<stop/>
<stop offset="1" stop-color="white"/>
</linearGradient>
<radialGradient id="paint9_radial" cx="0" cy="0" r="1" gradientUnits="userSpaceOnUse" gradientTransform="translate(97.0394 84.6283) rotate(24.251) scale(37.9201 37.8978)">
<stop offset="0.81" stop-color="#787878"/>
<stop offset="0.87" stop-color="#707070"/>
<stop offset="0.9" stop-color="#D9D6D5"/>
<stop offset="0.91" stop-color="#A1A1A1"/>
<stop offset="0.94" stop-color="#9E9E9E"/>
<stop offset="0.97" stop-color="#737373"/>
</radialGradient>
<linearGradient id="paint10_linear" x1="65.0323" y1="111.105" x2="57.4528" y2="96.7865" gradientUnits="userSpaceOnUse">
<stop stop-color="#4D4543"/>
<stop offset="0.15" stop-color="#292625"/>
<stop offset="0.7" stop-color="#969696"/>
<stop offset="1" stop-color="#6E6765"/>
</linearGradient>
<linearGradient id="paint11_linear" x1="60.1333" y1="104.225" x2="67.8497" y2="104.488" gradientUnits="userSpaceOnUse">
<stop stop-color="#9C9C9C"/>
<stop offset="1" stop-color="white"/>
</linearGradient>
</defs>
</svg>
