<svg width="155" height="183" viewBox="0 0 155 183" fill="none" xmlns="http://www.w3.org/2000/svg">
<path d="M113.858 22.085H4.46855C2.00064 22.085 0 24.0786 0 26.538V178.547C0 181.006 2.00064 183 4.46855 183H113.858C116.326 183 118.326 181.006 118.326 178.547V26.538C118.326 24.0786 116.326 22.085 113.858 22.085Z" fill="#4E5959"/>
<path style="mix-blend-mode:screen" d="M113.858 22.085H4.46855C2.00064 22.085 0 24.0786 0 26.538V178.547C0 181.006 2.00064 183 4.46855 183H113.858C116.326 183 118.326 181.006 118.326 178.547V26.538C118.326 24.0786 116.326 22.085 113.858 22.085Z" fill="url(#paint0_linear)"/>
<path style="mix-blend-mode:screen" d="M113.858 22.085H4.46855C2.00064 22.085 0 24.0786 0 26.538V178.547C0 181.006 2.00064 183 4.46855 183H113.858C116.326 183 118.326 181.006 118.326 178.547V26.538C118.326 24.0786 116.326 22.085 113.858 22.085Z" fill="url(#paint1_linear)"/>
<path style="mix-blend-mode:screen" d="M113.858 22.085H4.46855C2.00064 22.085 0 24.0786 0 26.538V178.547C0 181.006 2.00064 183 4.46855 183H113.858C116.326 183 118.326 181.006 118.326 178.547V26.538C118.326 24.0786 116.326 22.085 113.858 22.085Z" fill="url(#paint2_linear)"/>
<path style="mix-blend-mode:multiply" d="M109.051 38.8625C76.9734 37.1083 44.693 36.7934 12.2095 37.9179C12.6608 83.5274 13.8344 128.754 14.4663 174.229C47.5742 175.646 78.9218 175.623 111.939 177.31C110.585 131.183 110.585 85.8213 109.051 38.8625Z" fill="url(#paint3_linear)"/>
<g style="mix-blend-mode:multiply">
<path d="M138.164 61.892L138.548 77.6349L138.706 83.4598L148.771 163.456V164.491L149.471 169.888C149.765 170.377 150.2 170.767 150.719 171.007C151.238 171.248 151.817 171.328 152.382 171.238C152.953 171.184 153.496 170.963 153.942 170.603C154.387 170.243 154.716 169.759 154.887 169.214L154.21 163.816V162.782L144.145 82.7176V82.6052L143.31 79.0293L141.933 72.957L139.473 62.2069L138.029 55.8872L138.164 61.892Z" fill="#ECEDE4"/>
</g>
<path d="M148.952 168.202L151.682 167.864L152.969 167.167C152.787 167.708 152.456 168.187 152.014 168.549C151.572 168.911 151.036 169.141 150.469 169.214C149.901 169.287 149.324 169.199 148.804 168.96C148.285 168.721 147.843 168.341 147.53 167.864L148.952 168.202Z" fill="#480F0F"/>
<path d="M151.637 167.864L150.915 162.309L152.247 161.792L152.924 167.167L151.637 167.864Z" fill="#4F1010"/>
<path d="M148.207 162.647L148.906 168.202L147.485 167.864L146.808 162.467L148.207 162.647Z" fill="#8E374F"/>
<path style="mix-blend-mode:screen" d="M151.637 167.864L150.915 162.309L152.247 161.792L152.924 167.167L151.637 167.864Z" fill="url(#paint4_linear)"/>
<path style="mix-blend-mode:screen" d="M148.207 162.647L148.906 168.202L147.485 167.864L146.808 162.467L148.207 162.647Z" fill="url(#paint5_linear)"/>
<path d="M150.915 162.309L151.637 167.864L148.906 168.202L148.207 162.647L150.915 162.309Z" fill="#761413"/>
<path style="mix-blend-mode:screen" d="M150.915 162.309L151.637 167.864L148.906 168.202L148.207 162.647L150.915 162.309Z" fill="url(#paint6_linear)"/>
<path d="M146.808 162.467L146.695 161.432L148.094 161.612L148.207 162.647L146.808 162.467Z" fill="#B6B2A6"/>
<path style="mix-blend-mode:screen" d="M146.808 162.467L146.695 161.432L148.094 161.612L148.207 162.647L146.808 162.467Z" fill="url(#paint7_linear)"/>
<path d="M152.111 160.758L152.247 161.792L150.915 162.309L150.802 161.252L152.111 160.758Z" fill="#B3BBAB"/>
<path style="mix-blend-mode:screen" d="M152.111 160.758L152.247 161.792L150.915 162.309L150.802 161.252L152.111 160.758Z" fill="url(#paint8_linear)"/>
<path d="M150.915 162.309L148.207 162.647L148.094 161.612L150.802 161.252L150.915 162.309Z" fill="#E6D8BB"/>
<path d="M148.162 142.586L149.696 154.91L147.552 155.18L146.018 142.856L148.162 142.586Z" fill="url(#paint9_linear)"/>
<path d="M148.455 142.541L150.802 161.252L148.094 161.612L147.282 155.203L147.553 155.18L149.697 154.91L148.162 142.586L148.455 142.541Z" fill="#1F2234"/>
<path d="M140.782 81.6608C141.053 81.9532 141.324 81.6608 141.459 80.4014C141.459 80.4014 141.978 81.7732 142.046 80.6488L152.111 160.758L150.802 161.252L148.546 142.541L140.782 81.6608Z" fill="#2F3B5E"/>
<path style="mix-blend-mode:screen" d="M140.782 81.6608C141.053 81.9532 141.324 81.6608 141.459 80.4014C141.459 80.4014 141.978 81.7732 142.046 80.6488L152.111 160.758L150.802 161.252L148.546 142.541L140.782 81.6608Z" fill="url(#paint10_linear)"/>
<path d="M147.282 155.18L148.094 161.59L146.695 161.432L136.629 81.4133C136.629 81.4133 137.487 81.7056 137.758 79.3892L147.282 155.18Z" fill="#434E71"/>
<path style="mix-blend-mode:screen" d="M147.282 155.18L148.094 161.59L146.695 161.432L136.629 81.4133C136.629 81.4133 137.487 81.7056 137.758 79.3892L147.282 155.18Z" fill="url(#paint11_linear)"/>
<path d="M139.225 82.1329C140.15 81.9305 140.105 80.1538 140.105 80.1538C140.252 80.6876 140.48 81.1958 140.782 81.6606L148.455 142.541H148.162L145.905 142.811L147.552 155.18H147.282L137.667 79.3892C137.667 79.3892 138.299 82.3353 139.225 82.1329Z" fill="#1F2234"/>
<path style="mix-blend-mode:screen" d="M140.105 80.1538C140.105 80.1538 140.105 81.9305 139.225 82.1329C138.345 82.3353 137.667 79.3892 137.667 79.3892L147.282 155.18L148.094 161.59L150.802 161.23L148.545 142.518L140.872 81.6381C140.541 81.1858 140.282 80.6851 140.105 80.1538ZM149.696 154.91L147.44 155.18L145.905 142.856L148.162 142.586L149.696 154.91Z" fill="url(#paint12_linear)"/>
<path d="M135.93 53.9756L137.352 60.2952C137.103 61.0149 136.923 60.2952 136.923 60.2952C136.81 61.8021 136.426 59.9804 136.426 59.9804C136.313 60.835 136.065 59.9804 136.065 59.9804L135.93 53.9756Z" fill="#494B5E"/>
<path style="mix-blend-mode:screen" d="M135.93 53.9756L136.065 59.9804C136.065 59.9804 136.313 60.79 136.426 59.9804C136.426 59.9804 136.426 60.2727 136.562 60.4976C136.336 58.6085 136.201 56.7193 136.11 54.8752L135.93 53.9756Z" fill="url(#paint13_linear)"/>
<path style="mix-blend-mode:screen" d="M136.562 60.3852C136.675 60.7675 136.855 61.1048 136.923 60.1827C136.923 60.1827 136.923 60.5876 137.171 60.5201C136.787 59.1257 136.471 57.7988 136.223 56.4719C136.298 57.8063 136.411 59.1107 136.562 60.3852Z" fill="url(#paint14_linear)"/>
<path style="mix-blend-mode:screen" d="M137.351 60.2277L136.11 54.7627C136.11 55.3249 136.11 55.8872 136.11 56.4719C136.358 57.7988 136.674 59.1257 137.058 60.5201C137.239 60.4976 137.306 60.4301 137.351 60.2277Z" fill="url(#paint15_linear)"/>
<path d="M142.046 80.6487C142.046 81.7732 141.459 80.4013 141.459 80.4013L140.895 77.4551C141.028 77.3441 141.136 77.2061 141.211 77.0503L142.046 80.6487Z" fill="#9D7F7A"/>
<path d="M140.263 77.4775C140.103 74.9755 139.687 72.4963 139.021 70.0784C139.27 70.6406 139.541 71.0005 139.834 70.978L141.211 77.0502C141.135 77.206 141.028 77.3441 140.895 77.455C140.808 77.5314 140.698 77.5754 140.583 77.5795C140.467 77.5836 140.354 77.5475 140.263 77.4775Z" fill="#CEA58F"/>
<path d="M139.021 70.0559C138.014 66.8374 137.311 63.532 136.923 60.1829C136.923 60.1829 137.103 60.9475 137.351 60.1829L139.924 70.978C139.631 70.978 139.36 70.6406 139.112 70.0784L139.021 70.0559Z" fill="#AA8A74"/>
<path d="M136.923 60.1828C137.311 63.5319 138.014 66.8373 139.022 70.0558C139.687 72.4737 140.103 74.9529 140.263 77.455C139.874 77.1464 139.571 76.7438 139.383 76.2855C138.78 74.9103 138.377 73.4563 138.187 71.9675C137.964 68.9377 137.503 65.9299 136.81 62.9715C136.629 61.1273 136.426 59.8679 136.426 59.8679C136.426 59.8679 136.81 61.6896 136.923 60.1828Z" fill="#CBAC8C"/>
<path d="M141.459 80.4013C141.323 81.7731 141.053 81.9531 140.782 81.6607C140.48 81.1958 140.252 80.6876 140.105 80.1539L139.383 76.3081C139.571 76.7664 139.874 77.169 140.263 77.4776C140.352 77.5507 140.463 77.5907 140.579 77.5907C140.694 77.5907 140.806 77.5507 140.895 77.4776L141.459 80.4013Z" fill="#DDAF8D"/>
<path d="M139.383 76.3082L140.105 80.1539C140.105 80.1539 140.105 81.9306 139.225 82.133C138.344 82.3355 137.667 79.3893 137.667 79.3893C137.667 78.2648 137.442 76.4206 137.284 74.8913C137.735 76.4656 138.299 75.521 138.096 72.0801C138.323 73.5427 138.756 74.9661 139.383 76.3082Z" fill="#BE9676"/>
<path d="M136.81 62.9717C137.503 65.93 137.963 68.9378 138.186 71.9676C138.39 75.4086 137.825 76.3532 137.374 74.7789L137.081 71.7202C137.239 68.8017 137.148 65.875 136.81 62.9717Z" fill="#BF9B80"/>
<path d="M136.471 75.6108L136.065 59.8679C136.065 59.8679 136.313 60.6776 136.426 59.8679C136.426 59.8679 136.629 61.1274 136.81 62.9715C137.148 65.8748 137.238 68.8015 137.081 71.7201C137.024 73.0356 136.819 74.3406 136.471 75.6108Z" fill="#A78D80"/>
<path d="M136.629 81.4133L136.471 75.6109C136.816 74.3553 137.02 73.0655 137.081 71.7651L137.374 74.8238C137.532 76.4205 137.69 78.2647 137.758 79.3217C137.487 81.7057 136.629 81.4133 136.629 81.4133Z" fill="#BD9F91"/>
<g style="mix-blend-mode:screen">
<g style="mix-blend-mode:screen">
<path d="M146.83 145.149V144.7H147.372V144.205H146.83V143.755L148.252 143.575V144.025H147.733V144.52H148.252V144.97L146.83 145.149Z" fill="#6E5941"/>
</g>
<g style="mix-blend-mode:screen">
<path d="M148.41 146.184C148.43 146.282 148.411 146.385 148.356 146.469C148.301 146.553 148.215 146.612 148.117 146.634C148.042 146.655 147.962 146.645 147.894 146.607C147.826 146.569 147.777 146.506 147.756 146.431C147.756 146.475 147.747 146.518 147.73 146.557C147.712 146.597 147.687 146.633 147.655 146.662C147.623 146.692 147.586 146.715 147.545 146.729C147.504 146.744 147.46 146.749 147.417 146.746C147.313 146.753 147.21 146.719 147.13 146.652C147.051 146.585 147 146.49 146.988 146.386V145.442L148.41 145.262V146.184ZM147.507 145.824H147.259V146.162L147.507 145.824ZM148.049 145.824H147.801V146.139C147.801 146.139 147.914 146.139 147.801 146.139L148.049 145.824Z" fill="#6E5941"/>
</g>
</g>
<g style="mix-blend-mode:screen">
<g style="mix-blend-mode:screen">
<path d="M148.139 149.962C147.823 149.962 147.665 149.962 147.62 149.647C147.597 149.567 147.597 149.481 147.62 149.4H147.214V149.085L148.433 148.928V149.198H148.32C148.37 149.218 148.413 149.252 148.445 149.296C148.477 149.34 148.496 149.391 148.5 149.445C148.568 149.782 148.433 149.94 148.139 149.962ZM148.139 149.355C148.115 149.351 148.089 149.353 148.066 149.361C148.042 149.369 148.021 149.382 148.003 149.399C147.985 149.417 147.972 149.438 147.964 149.462C147.957 149.485 147.955 149.51 147.959 149.535C147.964 149.556 147.973 149.576 147.986 149.593C148 149.611 148.016 149.625 148.035 149.636C148.055 149.646 148.076 149.653 148.097 149.655C148.119 149.657 148.141 149.654 148.162 149.647C148.162 149.647 148.32 149.647 148.297 149.49C148.275 149.333 148.184 149.333 148.094 149.355H148.139Z" fill="#6E5941"/>
</g>
<g style="mix-blend-mode:screen">
<path d="M148.274 151.064V150.389C148.139 150.389 148.071 150.389 148.094 150.592C148.117 150.794 148.094 150.749 148.252 150.749V151.064C148.049 151.064 147.913 150.952 147.868 150.637C147.823 150.322 147.868 150.097 148.252 150.075C148.636 150.052 148.726 150.21 148.771 150.502C148.797 150.574 148.803 150.652 148.789 150.727C148.775 150.802 148.74 150.872 148.69 150.929C148.639 150.987 148.574 151.03 148.501 151.053C148.428 151.077 148.349 151.081 148.274 151.064ZM148.274 150.412V150.727C148.294 150.727 148.314 150.723 148.332 150.715C148.35 150.707 148.366 150.695 148.379 150.68C148.392 150.665 148.402 150.647 148.407 150.628C148.412 150.609 148.413 150.589 148.41 150.569C148.41 150.569 148.387 150.412 148.274 150.412Z" fill="#6E5941"/>
</g>
<g style="mix-blend-mode:screen">
<path d="M148.523 152.121H147.959V151.784H148.5C148.5 151.784 148.5 151.784 148.5 151.649C148.5 151.613 148.486 151.579 148.461 151.554C148.435 151.528 148.401 151.514 148.365 151.514H147.846V151.199H148.726V151.469H148.59C148.65 151.492 148.701 151.532 148.737 151.584C148.774 151.636 148.793 151.698 148.794 151.761C148.952 151.986 148.726 152.099 148.523 152.121Z" fill="#6E5941"/>
</g>
<g style="mix-blend-mode:screen">
<path d="M148.636 153.246V152.931C148.658 152.906 148.67 152.874 148.67 152.841C148.67 152.808 148.658 152.776 148.636 152.751C148.636 152.751 148.636 152.616 148.432 152.616C148.32 152.616 148.252 152.616 148.274 152.819C148.297 153.021 148.274 152.976 148.432 152.954V153.268C148.184 153.268 148.026 153.111 148.004 152.841C147.987 152.779 147.984 152.714 147.995 152.65C148.006 152.586 148.03 152.526 148.067 152.473C148.103 152.419 148.15 152.374 148.206 152.341C148.261 152.308 148.323 152.286 148.387 152.279C148.453 152.269 148.52 152.274 148.584 152.292C148.648 152.31 148.708 152.341 148.759 152.383C148.81 152.426 148.851 152.478 148.881 152.538C148.91 152.597 148.926 152.662 148.929 152.729C148.952 152.931 148.952 153.223 148.636 153.246Z" fill="#6E5941"/>
</g>
<g style="mix-blend-mode:screen">
<path d="M148.162 153.83V153.493H149.019V153.83H148.162ZM149.132 153.695V153.381H149.358V153.695H149.132Z" fill="#6E5941"/>
</g>
<g style="mix-blend-mode:screen">
<path d="M148.229 154.37V154.055L149.426 153.898V154.235L148.229 154.37Z" fill="#6E5941"/>
</g>
</g>
<g style="mix-blend-mode:multiply">
<g style="mix-blend-mode:multiply">
<path d="M146.695 145.082V144.632H147.236V144.138H146.695V143.688L148.117 143.508V143.958H147.575V144.452H148.094V144.902L146.695 145.082Z" fill="#3350FF"/>
</g>
<g style="mix-blend-mode:multiply">
<path d="M148.275 146.184C148.284 146.231 148.285 146.28 148.275 146.328C148.265 146.375 148.246 146.42 148.219 146.46C148.192 146.5 148.157 146.534 148.116 146.56C148.075 146.586 148.029 146.603 147.981 146.611C147.907 146.627 147.829 146.615 147.763 146.577C147.697 146.54 147.646 146.48 147.62 146.409C147.62 146.492 147.587 146.573 147.528 146.632C147.468 146.691 147.388 146.724 147.304 146.724C147.252 146.73 147.199 146.726 147.149 146.711C147.098 146.696 147.052 146.67 147.011 146.637C146.971 146.603 146.938 146.561 146.915 146.514C146.892 146.468 146.878 146.416 146.875 146.364V145.419L148.275 145.24V146.184ZM147.372 145.802H147.146V146.184C147.167 146.196 147.19 146.202 147.214 146.202C147.238 146.202 147.261 146.196 147.282 146.184L147.372 145.802ZM147.914 145.802H147.688V146.117C147.707 146.131 147.731 146.139 147.756 146.139C147.78 146.139 147.804 146.131 147.823 146.117L147.914 145.802Z" fill="#3350FF"/>
</g>
</g>
<path d="M142.565 106.692C142.091 106.692 141.843 106.692 141.82 106.22C141.793 106.159 141.779 106.094 141.779 106.029C141.779 105.963 141.793 105.898 141.82 105.837H141.211V105.343L143.039 105.118V105.522H142.858C142.933 105.563 142.997 105.621 143.044 105.691C143.092 105.762 143.121 105.843 143.129 105.927C143.242 106.4 143.039 106.647 142.565 106.692ZM142.565 105.77C142.407 105.77 142.294 105.77 142.317 106.017C142.339 106.265 142.452 106.22 142.61 106.197H142.745C142.777 106.197 142.808 106.191 142.837 106.178C142.866 106.166 142.892 106.147 142.913 106.124C142.935 106.1 142.951 106.073 142.961 106.043C142.971 106.013 142.974 105.981 142.971 105.95C142.79 105.702 142.655 105.702 142.497 105.702L142.565 105.77Z" fill="#C49111"/>
<path d="M143.422 108.064H142.994V107.951C142.994 107.726 142.858 107.659 142.655 107.704H142.046V107.209L143.377 107.029V107.457H143.174C143.248 107.479 143.314 107.523 143.362 107.584C143.41 107.644 143.439 107.717 143.445 107.794C143.462 107.838 143.468 107.885 143.464 107.931C143.46 107.978 143.446 108.023 143.422 108.064Z" fill="#C49111"/>
<path d="M142.994 110.02C142.52 110.02 142.271 109.818 142.204 109.368C142.179 109.272 142.174 109.173 142.191 109.075C142.208 108.978 142.245 108.885 142.301 108.803C142.356 108.721 142.428 108.652 142.513 108.6C142.597 108.548 142.691 108.514 142.79 108.501C142.888 108.488 142.988 108.497 143.083 108.525C143.178 108.554 143.266 108.602 143.341 108.667C143.415 108.732 143.475 108.812 143.517 108.902C143.558 108.992 143.58 109.089 143.58 109.188C143.608 109.282 143.613 109.381 143.597 109.477C143.581 109.573 143.543 109.665 143.487 109.744C143.431 109.824 143.357 109.891 143.272 109.938C143.186 109.986 143.091 110.014 142.994 110.02ZM142.994 109.031H142.858C142.678 109.031 142.587 109.143 142.61 109.323C142.606 109.359 142.612 109.396 142.627 109.429C142.642 109.462 142.666 109.491 142.696 109.511C142.726 109.532 142.761 109.544 142.798 109.547C142.834 109.549 142.871 109.542 142.903 109.526H143.061C143.242 109.526 143.355 109.526 143.31 109.256C143.264 108.986 143.106 109.008 142.926 109.031H142.994Z" fill="#C49111"/>
<path d="M144.303 111.19H144.009V111.1C144.009 111.1 144.009 110.965 143.851 111.1V111.37H143.49V111.122L142.497 111.257V110.74L143.49 110.628V110.425H143.829V110.628C144.19 110.628 144.325 110.763 144.348 111.055C144.339 111.102 144.324 111.147 144.303 111.19Z" fill="#C49111"/>
<path d="M143.377 113.146L143.264 112.157C143.084 112.157 142.971 112.157 142.994 112.449C143.016 112.742 142.994 112.697 143.219 112.674V113.169C142.903 113.169 142.678 112.989 142.61 112.494C142.542 112 142.745 111.707 143.219 111.64C143.693 111.572 143.941 111.842 144.009 112.292C144.077 112.742 143.874 113.079 143.377 113.146ZM143.377 112.134V112.607C143.513 112.607 143.58 112.607 143.558 112.359C143.56 112.31 143.546 112.261 143.517 112.22C143.489 112.179 143.447 112.149 143.4 112.134H143.377Z" fill="#C49111"/>
<path d="M143.874 114.856V114.384C143.874 114.384 143.874 114.204 143.761 114.204C143.648 114.204 143.874 115.058 143.332 115.126C142.791 115.193 142.836 114.856 142.791 114.518C142.745 114.181 142.791 113.799 143.152 113.754V114.226C143.152 114.226 143.016 114.384 143.152 114.474C143.287 114.563 143.152 114.676 143.152 114.676C143.152 114.676 143.152 113.799 143.58 113.731C144.009 113.664 144.077 114.001 144.122 114.339C144.167 114.676 144.19 114.811 143.874 114.856Z" fill="#C49111"/>
<path d="M143.287 117.779V117.285L144.618 117.127V117.622L143.287 117.779ZM144.776 117.6V117.105H145.115V117.6H144.776Z" fill="#C49111"/>
<path d="M144.212 119.714C144.116 119.734 144.016 119.732 143.92 119.709C143.824 119.685 143.735 119.64 143.659 119.578C143.583 119.515 143.522 119.436 143.481 119.347C143.44 119.257 143.42 119.16 143.422 119.061C143.395 118.965 143.39 118.863 143.408 118.764C143.425 118.665 143.464 118.571 143.523 118.489C143.581 118.407 143.657 118.34 143.745 118.291C143.833 118.242 143.931 118.213 144.032 118.207C144.219 118.208 144.399 118.277 144.539 118.401C144.678 118.525 144.767 118.696 144.789 118.881C144.812 119.066 144.765 119.253 144.659 119.406C144.553 119.559 144.394 119.669 144.212 119.714ZM144.212 118.702H144.077C143.896 118.702 143.806 118.814 143.829 118.994C143.851 119.174 143.964 119.219 144.145 119.196H144.28C144.461 119.196 144.573 119.196 144.528 118.926C144.483 118.657 144.438 118.679 144.145 118.702H144.212Z" fill="#C49111"/>
<path d="M144.641 121.558L143.783 121.67V121.175L144.573 121.063C144.573 121.063 144.776 121.063 144.731 120.861C144.728 120.834 144.72 120.808 144.708 120.785C144.695 120.761 144.677 120.74 144.656 120.724C144.635 120.707 144.611 120.694 144.585 120.687C144.559 120.68 144.532 120.678 144.506 120.681L143.738 120.793V120.276L145.07 120.118V120.523H144.889C145.042 120.63 145.147 120.791 145.183 120.973C145.21 121.05 145.216 121.133 145.199 121.214C145.183 121.294 145.145 121.368 145.089 121.428C145.033 121.488 144.962 121.532 144.883 121.555C144.804 121.578 144.72 121.579 144.641 121.558Z" fill="#C49111"/>
<path d="M144.935 123.424H144.416H144.122C144.104 123.343 144.104 123.259 144.122 123.177C144.122 122.975 144.122 122.84 144.235 122.795C144.12 122.659 144.043 122.497 144.009 122.322C144.009 122.03 144.009 121.828 144.325 121.805C144.641 121.783 144.867 122.075 144.935 122.66C144.935 122.66 145.093 122.66 145.07 122.457C145.047 122.255 145.07 122.277 144.935 122.277V121.783C145.183 121.783 145.363 121.985 145.431 122.435C145.499 122.885 145.273 123.402 144.935 123.424ZM144.528 122.975C144.528 122.682 144.416 122.57 144.303 122.592C144.19 122.615 144.303 122.592 144.303 122.772C144.303 122.952 144.303 123.02 144.506 122.997L144.528 122.975Z" fill="#C49111"/>
<path d="M144.145 124.661V124.144L145.973 123.919V124.436L144.145 124.661Z" fill="#C49111"/>
<g style="mix-blend-mode:multiply">
<g style="mix-blend-mode:multiply">
<path d="M142.7 106.782C142.226 106.782 141.978 106.782 141.933 106.31C141.907 106.249 141.894 106.184 141.894 106.118C141.894 106.053 141.907 105.988 141.933 105.927H141.301V105.432L143.129 105.208V105.612H142.949C143.02 105.652 143.081 105.707 143.128 105.773C143.175 105.839 143.206 105.915 143.219 105.995C143.377 106.489 143.174 106.714 142.7 106.782ZM142.7 105.837C142.542 105.837 142.407 105.837 142.452 106.085C142.497 106.332 142.565 106.287 142.745 106.265C142.903 106.265 142.994 106.265 142.971 106.04C142.949 105.815 142.791 105.815 142.633 105.837H142.7Z" fill="#C49111"/>
</g>
<g style="mix-blend-mode:multiply">
<path d="M143.558 108.154H143.129V107.951C143.127 107.908 143.115 107.867 143.095 107.829C143.075 107.791 143.047 107.758 143.012 107.732C142.978 107.706 142.938 107.688 142.896 107.68C142.853 107.671 142.81 107.671 142.768 107.681L142.181 107.951V107.457L143.513 107.277V107.681H143.332C143.406 107.704 143.472 107.748 143.52 107.808C143.568 107.869 143.597 107.942 143.603 108.019C143.598 108.067 143.583 108.113 143.558 108.154Z" fill="#C49111"/>
</g>
<g style="mix-blend-mode:multiply">
<path d="M143.129 110.2C143.031 110.22 142.931 110.218 142.834 110.195C142.737 110.172 142.647 110.127 142.569 110.065C142.491 110.002 142.428 109.924 142.385 109.835C142.341 109.745 142.318 109.647 142.317 109.548C142.317 109.098 142.452 108.761 142.926 108.716C143.023 108.696 143.122 108.697 143.218 108.721C143.314 108.744 143.403 108.789 143.479 108.852C143.555 108.915 143.616 108.994 143.657 109.083C143.698 109.172 143.718 109.27 143.716 109.368C143.761 109.728 143.58 110.065 143.129 110.2ZM143.129 109.211H142.994C142.813 109.211 142.723 109.211 142.745 109.503C142.768 109.796 142.881 109.728 143.061 109.706H143.197C143.377 109.706 143.468 109.706 143.445 109.436C143.423 109.166 143.242 109.098 143.061 109.121L143.129 109.211Z" fill="#C49111"/>
</g>
<g style="mix-blend-mode:multiply">
<path d="M144.438 111.257H144.122V111.122C144.122 111.122 144.122 110.987 143.964 110.987V111.235H143.625V110.987L142.655 111.122V110.605L143.648 110.493V110.425H143.987V110.627C144.348 110.627 144.483 110.762 144.528 111.077L144.438 111.257Z" fill="#C49111"/>
</g>
<g style="mix-blend-mode:multiply">
<path d="M143.513 113.214V112.202C143.31 112.202 143.219 112.314 143.242 112.517C143.264 112.719 143.242 112.742 143.468 112.742V113.236C143.152 113.236 142.903 113.056 142.858 112.562C142.813 112.067 142.858 111.774 143.445 111.707C143.541 111.687 143.641 111.688 143.737 111.712C143.833 111.735 143.922 111.78 143.998 111.843C144.074 111.906 144.135 111.985 144.176 112.074C144.217 112.163 144.237 112.261 144.235 112.359C144.167 112.854 143.987 113.169 143.513 113.214ZM143.513 112.202V112.697C143.542 112.694 143.57 112.685 143.595 112.671C143.621 112.657 143.643 112.637 143.66 112.614C143.677 112.59 143.689 112.564 143.694 112.535C143.7 112.507 143.7 112.477 143.693 112.449C143.697 112.397 143.683 112.344 143.655 112.3C143.627 112.255 143.585 112.221 143.535 112.202H143.513Z" fill="#C49111"/>
</g>
<g style="mix-blend-mode:multiply">
<path d="M143.987 114.946V114.473V114.293C143.987 114.293 143.987 115.148 143.558 115.216C143.129 115.283 143.039 114.968 142.994 114.586C142.949 114.204 142.994 113.889 143.355 113.844V114.316C143.219 114.316 143.219 114.473 143.219 114.563C143.219 114.653 143.219 114.766 143.355 114.743C143.49 114.721 143.355 113.889 143.784 113.821C144.212 113.754 144.28 114.091 144.325 114.428C144.37 114.766 144.303 114.901 143.987 114.946Z" fill="#C49111"/>
</g>
<g style="mix-blend-mode:multiply">
<path d="M144.212 116.722V116.273V116.093C144.212 116.093 144.212 116.97 143.784 117.037C143.355 117.105 143.264 116.767 143.219 116.408C143.174 116.048 143.219 115.688 143.603 115.665V116.115C143.49 116.115 143.468 116.295 143.468 116.363C143.468 116.43 143.468 116.565 143.603 116.565C143.738 116.565 143.603 115.71 144.032 115.62C144.461 115.53 144.528 115.89 144.573 116.25C144.619 116.61 144.438 116.7 144.212 116.722Z" fill="#C49111"/>
</g>
<g style="mix-blend-mode:multiply">
<path d="M143.422 117.892V117.374L144.754 117.217V117.712L143.422 117.892ZM144.912 117.689V117.195H145.25V117.689H144.912Z" fill="#C49111"/>
</g>
<g style="mix-blend-mode:multiply">
<path d="M144.438 119.803C143.964 119.803 143.693 119.579 143.626 119.129C143.623 118.995 143.659 118.864 143.729 118.75C143.8 118.636 143.901 118.545 144.022 118.487C144.143 118.429 144.278 118.407 144.411 118.424C144.544 118.44 144.67 118.494 144.773 118.58C144.876 118.665 144.952 118.779 144.992 118.906C145.033 119.034 145.035 119.17 145 119.299C144.965 119.428 144.893 119.544 144.793 119.633C144.694 119.723 144.57 119.782 144.438 119.803ZM144.438 118.791H144.303C144.122 118.791 144.032 118.791 144.032 119.084C144.04 119.12 144.055 119.154 144.076 119.184C144.098 119.214 144.125 119.239 144.157 119.258C144.189 119.277 144.224 119.289 144.261 119.294C144.298 119.299 144.335 119.296 144.37 119.286H144.438C144.619 119.286 144.709 119.286 144.686 119.016C144.664 118.746 144.438 118.769 144.28 118.791H144.438Z" fill="#C49111"/>
</g>
<g style="mix-blend-mode:multiply">
<path d="M144.777 121.648H143.896V121.13H144.709C144.709 121.13 144.889 121.13 144.867 120.928C144.864 120.901 144.856 120.875 144.843 120.852C144.83 120.828 144.813 120.808 144.792 120.791C144.771 120.774 144.747 120.762 144.721 120.754C144.695 120.747 144.668 120.745 144.641 120.748H143.874V120.231L145.205 120.073V120.478H145.002C145.081 120.522 145.148 120.583 145.199 120.658C145.25 120.732 145.283 120.816 145.296 120.905C145.394 120.974 145.462 121.079 145.483 121.197C145.504 121.315 145.477 121.437 145.408 121.535C145.34 121.634 145.234 121.701 145.116 121.722C144.997 121.743 144.875 121.716 144.777 121.648Z" fill="#C49111"/>
</g>
<g style="mix-blend-mode:multiply">
<path d="M145.07 123.514H144.551H144.28C144.262 123.433 144.262 123.348 144.28 123.267C144.247 123.205 144.229 123.135 144.229 123.065C144.229 122.994 144.247 122.924 144.28 122.862C144.161 122.73 144.082 122.566 144.054 122.39C144.054 122.12 144.054 121.918 144.37 121.895C144.686 121.873 144.889 122.165 144.957 122.75C144.957 122.75 145.115 122.75 145.093 122.547C145.07 122.345 145.093 122.345 144.957 122.367V121.873C145.205 121.873 145.409 122.052 145.454 122.525C145.499 122.997 145.386 123.492 145.07 123.514ZM144.664 123.065C144.664 122.772 144.528 122.66 144.438 122.682C144.348 122.705 144.438 122.682 144.438 122.862C144.438 123.042 144.438 123.087 144.664 123.065Z" fill="#C49111"/>
</g>
<g style="mix-blend-mode:multiply">
<path d="M144.28 124.729V124.234L146.108 124.009V124.504L144.28 124.729Z" fill="#C49111"/>
</g>
</g>
<g style="mix-blend-mode:multiply">
<g style="mix-blend-mode:multiply">
<path d="M148.004 149.895C147.688 149.895 147.53 149.895 147.507 149.602C147.484 149.561 147.471 149.515 147.471 149.468C147.471 149.42 147.484 149.374 147.507 149.333H147.101V149.018L148.297 148.86V149.13C148.353 149.15 148.4 149.186 148.433 149.235C148.465 149.284 148.481 149.342 148.478 149.4C148.433 149.715 148.297 149.872 148.004 149.895ZM148.004 149.288C147.96 149.293 147.92 149.315 147.89 149.348C147.861 149.381 147.845 149.423 147.846 149.468C147.846 149.468 147.846 149.603 148.026 149.58C148.07 149.575 148.111 149.553 148.14 149.52C148.169 149.487 148.185 149.444 148.184 149.4C148.18 149.376 148.17 149.354 148.155 149.334C148.141 149.315 148.122 149.299 148.1 149.288C148.078 149.277 148.054 149.271 148.029 149.271C148.005 149.271 147.981 149.277 147.959 149.288H148.004Z" fill="#3350FF"/>
</g>
<g style="mix-blend-mode:multiply">
<path d="M148.139 150.997V150.367C148.139 150.367 147.959 150.367 147.959 150.57C147.964 150.607 147.983 150.642 148.012 150.667C148.041 150.691 148.078 150.705 148.117 150.705V151.019C147.913 151.019 147.755 150.907 147.71 150.592C147.665 150.277 147.71 150.052 148.094 150.03C148.158 150.017 148.225 150.018 148.289 150.033C148.353 150.048 148.413 150.077 148.465 150.118C148.516 150.159 148.558 150.21 148.588 150.269C148.617 150.327 148.634 150.392 148.636 150.457C148.568 150.682 148.455 150.974 148.139 150.997ZM148.139 150.345V150.66C148.139 150.66 148.275 150.66 148.139 150.502C148.159 150.482 148.172 150.455 148.176 150.427C148.18 150.399 148.175 150.37 148.162 150.345H148.139Z" fill="#3350FF"/>
</g>
<g style="mix-blend-mode:multiply">
<path d="M148.41 152.054H147.846V151.716H148.365C148.377 151.696 148.383 151.673 148.383 151.649C148.383 151.625 148.377 151.602 148.365 151.581C148.365 151.581 148.365 151.447 148.207 151.581H147.688V151.267H148.546V151.536H148.41C148.514 151.604 148.586 151.709 148.613 151.829C148.726 151.919 148.613 152.031 148.41 152.054Z" fill="#3350FF"/>
</g>
<g style="mix-blend-mode:multiply">
<path d="M148.5 153.178V152.864C148.5 152.864 148.636 152.864 148.636 152.684C148.636 152.504 148.636 152.549 148.432 152.549C148.432 152.549 148.229 152.549 148.252 152.729C148.274 152.909 148.252 152.886 148.432 152.886V153.178C148.162 153.178 148.026 153.021 148.004 152.751C147.981 152.481 148.004 152.234 148.387 152.211C148.771 152.189 148.861 152.346 148.906 152.639C148.952 152.931 148.771 153.156 148.5 153.178Z" fill="#3350FF"/>
</g>
<g style="mix-blend-mode:multiply">
<path d="M148.049 153.763V153.426H148.929V153.763H148.049ZM149.019 153.651V153.313H149.245V153.628L149.019 153.651Z" fill="#3350FF"/>
</g>
<g style="mix-blend-mode:multiply">
<path d="M148.117 154.325V153.988L149.313 153.831V154.168L148.117 154.325Z" fill="#3350FF"/>
</g>
</g>
<path d="M106.907 36.4336V150.682C106.907 157.114 88.3781 150.682 88.3781 150.682C88.3781 150.682 83.7064 168.674 50.7791 172.947H11.1489V36.4336H106.907Z" fill="white"/>
<path style="mix-blend-mode:multiply" d="M106.907 36.4336V150.682C106.907 157.114 88.3781 150.682 88.3781 150.682C88.3781 150.682 83.7064 168.674 50.7791 172.947H11.1489V36.4336H106.907Z" fill="url(#paint16_linear)"/>
<path d="M88.3781 150.682C88.3781 150.682 106.907 157.114 106.907 150.682C106.907 162.197 74.9724 172.52 52.7425 172.947H50.7791C83.7064 168.674 88.3781 150.682 88.3781 150.682Z" fill="#92A3A8"/>
<path style="mix-blend-mode:screen" d="M88.3781 150.682C88.3781 150.682 106.907 157.114 106.907 150.682C106.907 162.197 74.9724 172.52 52.7425 172.947H50.7791C83.7064 168.674 88.3781 150.682 88.3781 150.682Z" fill="url(#paint17_linear)"/>
<path d="M106.907 150.682C106.942 151.124 106.856 151.567 106.657 151.963C106.458 152.36 106.154 152.694 105.778 152.931C105.025 153.37 104.186 153.646 103.318 153.741C101.604 153.94 99.8691 153.879 98.1728 153.561C94.8091 152.981 91.4963 152.139 88.2652 151.042L88.694 150.795C87.3614 154.449 85.1626 157.728 82.2846 160.353C79.4891 163.014 76.3093 165.243 72.851 166.965C69.4176 168.692 65.8186 170.071 62.1084 171.08C58.4185 172.083 54.6392 172.723 50.8242 172.992C54.6157 172.385 58.2944 171.373 61.973 170.428C65.6275 169.452 69.1736 168.111 72.5576 166.425C75.9461 164.733 79.0643 162.551 81.8107 159.948C84.5901 157.396 86.7178 154.219 88.017 150.682L88.1298 150.345H88.4684C91.6632 151.477 94.9469 152.342 98.2856 152.931C99.9311 153.228 101.601 153.372 103.273 153.358C104.109 153.343 104.932 153.152 105.688 152.796C106.065 152.588 106.378 152.28 106.592 151.908C106.807 151.535 106.916 151.112 106.907 150.682Z" fill="#E0E0E0"/>
<path d="M27.4883 73.2045C29.7201 73.2045 31.9018 72.545 33.7575 71.3094C35.6132 70.0738 37.0595 68.3175 37.9136 66.2628C38.7676 64.208 38.9911 61.9471 38.5557 59.7658C38.1203 57.5845 37.0456 55.5808 35.4675 54.0082C33.8893 52.4355 31.8787 51.3646 29.6898 50.9307C27.5008 50.4968 25.232 50.7195 23.17 51.5706C21.1081 52.4217 19.3458 53.863 18.1058 55.7122C16.8659 57.5614 16.2041 59.7355 16.2041 61.9595C16.2041 64.9419 17.393 67.8021 19.5092 69.9109C21.6254 72.0197 24.4956 73.2045 27.4883 73.2045ZM27.4883 52.9636C29.3197 52.9593 31.1109 53.4979 32.6342 54.511C34.1575 55.5241 35.3439 56.9658 36.0426 58.6527C36.7412 60.3397 36.9205 62.1956 36.5577 63.9844C36.1948 65.7732 35.3062 67.414 34.0049 68.6981C32.7036 69.9822 31.0484 70.8515 29.2498 71.1954C27.4513 71.5394 25.5907 71.3424 23.9049 70.6296C22.219 69.9168 20.784 68.7203 19.7824 67.1925C18.7809 65.6646 18.258 63.8743 18.2804 62.0495C18.2804 59.6138 19.2498 57.2776 20.976 55.5532C22.7021 53.8288 25.0442 52.8571 27.4883 52.8511V52.9636Z" fill="#F86B41"/>
<path d="M27.4883 83.3923C25.2565 83.3923 23.0748 84.0518 21.2191 85.2874C19.3635 86.5231 17.9171 88.2793 17.0631 90.334C16.209 92.3888 15.9855 94.6497 16.4209 96.831C16.8563 99.0123 17.9311 101.016 19.5092 102.589C21.0873 104.161 23.098 105.232 25.2869 105.666C27.4758 106.1 29.7447 105.877 31.8066 105.026C33.8685 104.175 35.6309 102.734 36.8708 100.885C38.1107 99.0354 38.7725 96.8613 38.7725 94.6373C38.7725 91.6549 37.5837 88.7947 35.4675 86.6859C33.3513 84.5771 30.4811 83.3923 27.4883 83.3923ZM27.4883 103.633C25.6617 103.633 23.8762 103.093 22.3578 102.081C20.8394 101.07 19.6563 99.6318 18.9583 97.9497C18.2604 96.2676 18.0789 94.417 18.4369 92.6321C18.7949 90.8471 19.6762 89.2082 20.9694 87.9227C22.2626 86.6372 23.9094 85.7629 25.7014 85.4105C27.4934 85.0581 29.3501 85.2435 31.0363 85.9432C32.7226 86.6428 34.1626 87.8253 35.1742 89.3409C36.1857 90.8565 36.7233 92.6371 36.7188 94.4573C36.7308 95.6718 36.5007 96.8765 36.0419 98.0016C35.5831 99.1268 34.9047 100.15 34.0461 101.012C33.1874 101.874 32.1657 102.557 31.04 103.023C29.9143 103.488 28.7071 103.726 27.4883 103.723V103.633Z" fill="#F86B41"/>
<path d="M27.4883 115.89C25.2565 115.89 23.0748 116.55 21.2191 117.785C19.3635 119.021 17.9171 120.777 17.0631 122.832C16.209 124.887 15.9855 127.148 16.4209 129.329C16.8563 131.51 17.9311 133.514 19.5092 135.087C21.0873 136.659 23.098 137.73 25.2869 138.164C27.4758 138.598 29.7447 138.375 31.8066 137.524C33.8685 136.673 35.6309 135.232 36.8708 133.383C38.1107 131.533 38.7725 129.359 38.7725 127.135C38.7725 124.153 37.5837 121.293 35.4675 119.184C33.3513 117.075 30.4811 115.89 27.4883 115.89ZM27.4883 136.131C25.6617 136.131 23.8762 135.591 22.3578 134.579C20.8394 133.568 19.6563 132.13 18.9583 130.448C18.2604 128.766 18.0789 126.915 18.4369 125.13C18.7949 123.345 19.6762 121.706 20.9694 120.421C22.2626 119.135 23.9094 118.261 25.7014 117.909C27.4934 117.556 29.3501 117.742 31.0363 118.441C32.7226 119.141 34.1626 120.323 35.1742 121.839C36.1857 123.355 36.7233 125.135 36.7188 126.955C36.7308 128.17 36.5007 129.375 36.0419 130.5C35.5831 131.625 34.9047 132.648 34.0461 133.51C33.1874 134.372 32.1657 135.055 31.04 135.521C29.9143 135.986 28.7071 136.224 27.4883 136.221V136.131Z" fill="#F86B41"/>
<path d="M31.5958 66.8848V67.9193H24.3739V66.8848C24.3669 66.7785 24.4001 66.6734 24.4669 66.5902C24.5337 66.5069 24.6293 66.4516 24.735 66.435L26.9918 66.2326V58.676C26.9918 58.4061 26.9918 58.0688 26.9918 57.7539L25.0961 59.3057C25.0391 59.3804 24.9602 59.4354 24.8704 59.4631H24.6221C24.5189 59.4658 24.4164 59.4449 24.3225 59.402C24.2286 59.3591 24.1459 59.2954 24.0805 59.2158L23.3809 58.2712L27.3529 54.8977H29.1809V66.1426L31.167 66.3226C31.2367 66.319 31.3063 66.3324 31.3697 66.3617C31.433 66.391 31.4882 66.4353 31.5305 66.4907C31.5728 66.5462 31.6008 66.611 31.6122 66.6797C31.6236 66.7484 31.6179 66.8188 31.5958 66.8848Z" fill="#F86B41"/>
<path d="M32.0246 100.395H22.9973V99.6526C22.9674 99.4966 22.9674 99.3364 22.9973 99.1804C23.0707 99.016 23.1697 98.8642 23.2907 98.7306L27.2401 94.7723C27.5589 94.4749 27.8603 94.1595 28.1429 93.8278C28.3885 93.5407 28.6076 93.2321 28.7974 92.9057C28.9699 92.6239 29.1064 92.3217 29.2036 92.0061C29.2958 91.6844 29.3414 91.3511 29.339 91.0165C29.3441 90.7407 29.2982 90.4662 29.2036 90.2069C29.1163 89.9817 28.986 89.7755 28.8199 89.5997C28.6423 89.4413 28.4353 89.3191 28.2106 89.2398C27.9562 89.2023 27.6976 89.2023 27.4433 89.2398C26.9728 89.2177 26.5095 89.361 26.1343 89.6447C25.7924 89.926 25.5412 90.3014 25.4121 90.7242C25.3621 90.9183 25.2515 91.0916 25.0961 91.219C24.9492 91.3177 24.7768 91.3724 24.5996 91.3764H24.3062L23.1327 91.174C23.2133 90.6019 23.3887 90.0471 23.6518 89.5322C23.8849 89.0824 24.2074 88.6845 24.5996 88.3627C24.9988 88.0359 25.459 87.7913 25.9537 87.6431C26.4805 87.4853 27.0286 87.4094 27.5787 87.4182C28.1393 87.4126 28.6968 87.5039 29.2262 87.688C29.6907 87.8536 30.1196 88.1055 30.49 88.4302C30.8448 88.7598 31.1289 89.1576 31.325 89.5997C31.654 90.5158 31.654 91.5173 31.325 92.4334C31.1782 92.8417 30.9891 93.2336 30.7608 93.6029C30.53 93.9968 30.2493 94.3596 29.9258 94.6824L28.9102 95.7394L25.9763 98.7531L26.8339 98.5506H27.6238H30.5126C30.4931 98.2811 30.4931 98.0105 30.5126 97.741C30.5239 97.6436 30.5724 97.5542 30.648 97.4915C30.7236 97.4287 30.8206 97.3972 30.9188 97.4037H31.8892V100.62L32.0246 100.395Z" fill="#F86B41"/>
<path d="M29.339 119.893C29.798 120.046 30.2205 120.291 30.5802 120.613C30.918 120.904 31.1877 121.264 31.3701 121.67C31.5526 122.089 31.6448 122.541 31.641 122.997C31.6477 123.361 31.6021 123.725 31.5056 124.077C31.3487 124.661 30.9785 125.166 30.4674 125.493C30.1823 125.667 29.8797 125.81 29.5647 125.921C30.2575 126.099 30.8795 126.483 31.3476 127.023C31.734 127.584 31.9315 128.254 31.9118 128.934C31.9272 129.497 31.8156 130.056 31.5851 130.57C31.3547 131.084 31.0112 131.539 30.5802 131.903C30.1589 132.245 29.6765 132.504 29.1584 132.668C28.6036 132.841 28.0246 132.924 27.4432 132.915C26.865 132.924 26.2882 132.856 25.728 132.713C25.266 132.563 24.8371 132.326 24.4642 132.015C24.0993 131.714 23.7933 131.348 23.5615 130.936C23.2859 130.476 23.0662 129.986 22.907 129.474L23.8774 129.069C24.0412 129.035 24.2102 129.035 24.3739 129.069C24.5143 129.031 24.6624 129.031 24.8027 129.069C24.9318 129.13 25.0357 129.233 25.0961 129.362L25.4346 129.969C25.568 130.169 25.7274 130.35 25.9086 130.509C26.0978 130.674 26.3108 130.811 26.5405 130.913C26.816 131.009 27.1064 131.055 27.3981 131.048C27.746 131.067 28.0936 131.006 28.4137 130.868C28.6734 130.754 28.9104 130.594 29.1133 130.396C29.2955 130.199 29.4407 129.97 29.5421 129.721C29.6303 129.492 29.6762 129.248 29.6775 129.002C29.689 128.713 29.6508 128.424 29.5647 128.147C29.5097 127.895 29.3753 127.666 29.181 127.495C28.9093 127.284 28.5928 127.138 28.2557 127.068C27.7462 126.945 27.2223 126.892 26.6985 126.91V125.336C27.1462 125.345 27.5934 125.3 28.03 125.201C28.3474 125.114 28.6458 124.969 28.9102 124.774C29.106 124.609 29.2605 124.401 29.3616 124.166C29.408 123.906 29.408 123.64 29.3616 123.379C29.3783 123.124 29.3408 122.867 29.2513 122.627C29.1619 122.387 29.0226 122.168 28.8425 121.985C28.6611 121.818 28.4474 121.69 28.2145 121.609C27.9816 121.528 27.7345 121.495 27.4884 121.513C27.0098 121.481 26.5362 121.625 26.1568 121.918C25.8197 122.208 25.5633 122.579 25.4121 122.997C25.3645 123.182 25.2714 123.352 25.1413 123.492C24.9873 123.594 24.8069 123.648 24.6222 123.649H24.3514L23.1552 123.447C23.2395 122.873 23.4228 122.317 23.6969 121.805C23.9225 121.35 24.2462 120.951 24.6448 120.636C25.0417 120.318 25.4927 120.074 25.9763 119.916C26.5038 119.761 27.0514 119.685 27.6012 119.691C28.1881 119.65 28.7775 119.719 29.339 119.893Z" fill="#F86B41"/>
<g style="mix-blend-mode:multiply">
<g style="mix-blend-mode:multiply">
<path d="M85.2634 55.1453H44.8208V59.081H85.2634V55.1453Z" fill="#A8C1C1"/>
</g>
</g>
<g style="mix-blend-mode:multiply">
<g style="mix-blend-mode:multiply">
<path d="M85.2634 61.2625H44.8208V65.1982H85.2634V61.2625Z" fill="#A8C1C1"/>
</g>
</g>
<g style="mix-blend-mode:multiply">
<g style="mix-blend-mode:multiply">
<path d="M74.7465 67.3796H44.8208V71.3154H74.7465V67.3796Z" fill="#A8C1C1"/>
</g>
</g>
<g style="mix-blend-mode:multiply">
<g style="mix-blend-mode:multiply">
<path d="M85.2634 118.949H44.8208V122.885H85.2634V118.949Z" fill="#A8C1C1"/>
</g>
</g>
<g style="mix-blend-mode:multiply">
<g style="mix-blend-mode:multiply">
<path d="M85.2634 125.066H44.8208V129.002H85.2634V125.066Z" fill="#A8C1C1"/>
</g>
</g>
<g style="mix-blend-mode:multiply">
<g style="mix-blend-mode:multiply">
<path d="M80.005 131.183H44.8208V135.119H80.005V131.183Z" fill="#A8C1C1"/>
</g>
</g>
<g style="mix-blend-mode:multiply">
<g style="mix-blend-mode:multiply">
<path d="M85.2634 90.3418H44.8208V94.2775H85.2634V90.3418Z" fill="#A8C1C1"/>
</g>
</g>
<g style="mix-blend-mode:multiply">
<g style="mix-blend-mode:multiply">
<path d="M80.005 96.459H44.8208V100.395H80.005V96.459Z" fill="#A8C1C1"/>
</g>
</g>
<path d="M101.558 50.6695C96.8075 56.3164 92.5847 62.3839 88.9421 68.7964C87.4977 66.21 82.5778 55.7747 80.4112 53.5932C80.0727 53.2334 78.8315 55.8422 79.17 56.1121C81.6299 58.6085 87.6106 70.8429 88.9421 73.4742C89.1227 73.8566 89.3258 69.5835 102.822 51.7715C103.183 51.3892 101.987 50.3097 101.558 50.6695Z" fill="#F86B41"/>
<path d="M103.273 113.686C98.5303 119.339 94.308 125.406 90.6575 131.813C89.2357 129.227 84.2932 118.792 82.1492 116.61C81.7881 116.25 80.5468 118.859 80.9079 119.151C83.3679 121.625 89.3485 133.882 90.6575 136.514C90.838 136.873 91.0411 132.6 104.537 114.811C104.853 114.406 103.634 113.326 103.273 113.686Z" fill="#F86B41"/>
<g style="mix-blend-mode:multiply">
<path d="M100.43 129.024C95.7529 130.349 91.1815 132.018 86.753 134.017C84.7938 134.909 82.9457 136.026 81.2463 137.346C81.2463 136.963 81.0884 136.603 81.0432 136.491C80.9945 136.434 80.934 136.388 80.8658 136.357C80.7976 136.326 80.7234 136.309 80.6483 136.309C80.5732 136.309 80.499 136.326 80.4308 136.357C80.3626 136.388 80.3021 136.434 80.2533 136.491C79.7488 137.11 79.2888 137.764 78.8767 138.448C77.184 141.191 78.1319 137.638 78.2899 136.648C78.2899 136.086 78.2899 135.074 77.658 134.894C77.4333 134.805 77.183 134.805 76.9583 134.894C76.9583 133.747 76.6198 132.938 75.5817 132.938C73.889 132.938 72.6252 134.984 71.9481 136.266C71.8392 136.46 71.7485 136.663 71.6773 136.873C71.5716 136.622 71.4431 136.381 71.2937 136.154C71.1387 135.907 70.9077 135.716 70.6352 135.611C70.3626 135.505 70.0632 135.491 69.7816 135.569C69.7704 135.434 69.7704 135.299 69.7816 135.164C71.226 136.086 73.6408 130.936 71.226 130.284C69.2625 129.744 68.766 132.533 68.8111 135.906C68.2354 136.23 67.6914 136.606 67.1862 137.031C66.2639 137.623 65.5827 138.523 65.2644 139.569C64.9461 140.615 65.0113 141.74 65.4484 142.743C65.8117 143.754 66.4376 144.651 67.2623 145.343C68.0869 146.034 69.0809 146.495 70.1427 146.679C70.2087 146.682 70.2747 146.672 70.3364 146.648C70.3981 146.624 70.4542 146.588 70.5009 146.541C70.5477 146.495 70.5842 146.439 70.608 146.377C70.6318 146.316 70.6424 146.25 70.6392 146.184C70.5642 145.425 70.4283 144.673 70.2329 143.935C70.075 142.136 69.8267 140.382 69.7139 138.583C69.7139 137.953 69.7139 137.301 69.7139 136.648C70.5489 136.648 70.8649 137.773 70.9551 139.167C70.7051 140.615 70.6219 142.086 70.7069 143.553C70.7069 143.684 70.7592 143.81 70.8523 143.903C70.9454 143.995 71.0717 144.048 71.2034 144.048C71.3351 144.048 71.4614 143.995 71.5545 143.903C71.6476 143.81 71.6999 143.684 71.6999 143.553C71.9791 141.994 72.1076 140.413 72.0836 138.83C72.3755 137.474 72.978 136.204 73.8439 135.119C75.2206 133.387 75.5817 134.939 75.5817 136.379C74.72 137.966 74.1542 139.695 73.9116 141.484C73.912 141.592 73.9483 141.698 74.0148 141.784C74.0812 141.87 74.1742 141.931 74.2794 141.96C74.3846 141.988 74.4962 141.981 74.5969 141.939C74.6977 141.898 74.782 141.825 74.8369 141.731C75.617 140.225 76.2155 138.632 76.6198 136.986C76.9583 136.446 77.342 135.951 77.2066 136.828C76.8603 137.934 76.7906 139.108 77.0035 140.247C77.0328 140.35 77.0948 140.441 77.1803 140.505C77.2657 140.57 77.37 140.606 77.4774 140.607C77.822 140.597 78.1599 140.509 78.465 140.349C78.7701 140.189 79.0345 139.962 79.2378 139.685C78.9491 140.19 78.8156 140.769 78.8541 141.349C79.0346 144.205 80.9304 144.902 83.2098 143.373C83.9546 142.901 85.4666 141.281 85.4666 140.247C85.4666 139.212 84.4059 137.998 83.9771 136.806L84.4285 136.513C89.559 133.64 95.0551 131.469 100.768 130.059C100.906 130.014 101.02 129.917 101.086 129.788C101.151 129.659 101.163 129.51 101.118 129.373C101.073 129.236 100.975 129.122 100.846 129.057C100.717 128.991 100.567 128.98 100.43 129.024ZM71.0905 131.611C71.0748 132.036 71.0143 132.458 70.91 132.87C70.8237 133.45 70.6243 134.008 70.3232 134.512C70.7069 134.175 70.3232 133.657 69.917 133.702C69.9092 133.364 69.9243 133.026 69.9621 132.69L71.0905 131.611ZM66.1029 141.686C65.2905 139.437 67.3216 137.998 68.766 136.963C68.924 140.382 69.4882 144.093 69.6236 145.599C68.7886 145.238 68.0416 144.702 67.434 144.026C66.8263 143.351 66.3723 142.553 66.1029 141.686ZM83.5032 141.484C83.1372 142.037 82.6414 142.492 82.0588 142.811L79.802 142.113C79.723 141.632 79.7551 141.138 79.8958 140.671C80.0366 140.203 80.2823 139.774 80.6144 139.415C80.7055 139.473 80.8042 139.518 80.9078 139.55C82.1491 139.887 82.5779 138.493 83.1647 137.683C83.8868 138.987 84.6767 140.112 83.5032 141.484Z" fill="#A8C1C1"/>
</g>
<g style="mix-blend-mode:multiply">
<path d="M89.5514 22.085H35.3872C35.3872 22.3548 35.3872 22.6022 35.3872 22.8721V39.0648L39.269 42.0335L43.1507 39.0648L47.0325 42.0335L50.9143 39.0648L54.7961 42.0335L58.6778 39.0648L62.5596 42.0335L66.4414 39.0648L70.3231 42.0335L74.2049 39.0648L78.0867 42.0335L81.9684 39.0648L85.7599 42.0335L89.6417 39.0648V22.8721C89.6342 22.6076 89.604 22.3443 89.5514 22.085Z" fill="#B8C2C2"/>
</g>
<path d="M88.3781 21.6352V37.8279L84.4737 40.7966L80.5919 37.8279L76.7327 40.7966L72.851 37.8279L68.9466 40.7966L65.0649 37.8279L61.1605 40.7966L57.3013 37.8279L53.4195 40.7966L49.6506 37.8279L45.7463 40.7966L41.8871 37.8279L38.0053 40.7966L34.1235 37.8279V21.6352C34.135 20.0876 34.7524 18.6057 35.8443 17.505C36.9361 16.4044 38.416 15.7721 39.9688 15.7429H50.2148C50.2148 12.8351 51.374 10.0464 53.4373 7.99028C55.5006 5.93417 58.299 4.77905 61.2169 4.77905C64.1349 4.77905 66.9333 5.93417 68.9966 7.99028C71.0599 10.0464 72.2191 12.8351 72.2191 15.7429H82.4651C84.0297 15.7546 85.5268 16.3792 86.6331 17.4817C87.7395 18.5842 88.3662 20.0761 88.3781 21.6352ZM66.2159 15.7429C66.2158 14.75 65.9201 13.7795 65.3661 12.9542C64.8121 12.129 64.0247 11.4862 63.1038 11.1073C62.1829 10.7283 61.1698 10.6304 60.1929 10.8257C59.216 11.021 58.3193 11.5009 57.6164 12.2046C56.9135 12.9082 56.4359 13.804 56.2443 14.7783C56.0527 15.7526 56.1556 16.7617 56.5399 17.6777C56.9243 18.5938 57.5729 19.3755 58.4035 19.9238C59.2341 20.4722 60.2093 20.7625 61.2057 20.7581C62.5365 20.7521 63.8108 20.2211 64.7498 19.2812C65.6887 18.3413 66.2159 17.0691 66.2159 15.7429Z" fill="url(#paint18_linear)"/>
<defs>
<linearGradient id="paint0_linear" x1="-1.15099" y1="102.554" x2="7.04135" y2="102.554" gradientUnits="userSpaceOnUse">
<stop stop-color="white"/>
<stop offset="0.25" stop-color="#303030"/>
<stop offset="0.49" stop-color="#161616"/>
<stop offset="0.7"/>
</linearGradient>
<linearGradient id="paint1_linear" x1="6203.85" y1="7359.81" x2="5968.38" y2="7359.81" gradientUnits="userSpaceOnUse">
<stop stop-color="white"/>
<stop offset="0.25" stop-color="#303030"/>
<stop offset="0.49" stop-color="#161616"/>
<stop offset="0.7"/>
</linearGradient>
<linearGradient id="paint2_linear" x1="3101.33" y1="13149.5" x2="3101.33" y2="12777.8" gradientUnits="userSpaceOnUse">
<stop stop-color="white"/>
<stop offset="0.25" stop-color="#303030"/>
<stop offset="0.49" stop-color="#161616"/>
<stop offset="0.7"/>
</linearGradient>
<linearGradient id="paint3_linear" x1="13.541" y1="42.6858" x2="123.634" y2="189.509" gradientUnits="userSpaceOnUse">
<stop stop-color="#B69A9A"/>
<stop offset="0.29" stop-color="#BA9F9F"/>
<stop offset="0.62" stop-color="#C6B0B0"/>
<stop offset="0.86" stop-color="#D8C9C9"/>
<stop offset="1" stop-color="white"/>
</linearGradient>
<linearGradient id="paint4_linear" x1="151.2" y1="164.908" x2="152.588" y2="164.733" gradientUnits="userSpaceOnUse">
<stop stop-color="#301212"/>
<stop offset="1" stop-color="#784444"/>
</linearGradient>
<linearGradient id="paint5_linear" x1="147.124" y1="165.417" x2="148.512" y2="165.242" gradientUnits="userSpaceOnUse">
<stop stop-color="#784444"/>
<stop offset="1" stop-color="#301212"/>
</linearGradient>
<linearGradient id="paint6_linear" x1="148.535" y1="165.422" x2="151.244" y2="165.081" gradientUnits="userSpaceOnUse">
<stop stop-color="#301212"/>
<stop offset="0.07" stop-color="#462626"/>
<stop offset="0.47" stop-color="#4A2A2A"/>
<stop offset="0.92" stop-color="#452626"/>
<stop offset="1"/>
</linearGradient>
<linearGradient id="paint7_linear" x1="146.709" y1="162.114" x2="148.097" y2="161.939" gradientUnits="userSpaceOnUse">
<stop stop-color="#787878"/>
<stop offset="0.74" stop-color="#020507"/>
<stop offset="1"/>
</linearGradient>
<linearGradient id="paint8_linear" x1="150.785" y1="161.605" x2="152.173" y2="161.431" gradientUnits="userSpaceOnUse">
<stop/>
<stop offset="0.26" stop-color="#020507"/>
<stop offset="1" stop-color="#787878"/>
</linearGradient>
<linearGradient id="paint9_linear" x1="146.745" y1="149.009" x2="148.894" y2="148.738" gradientUnits="userSpaceOnUse">
<stop stop-color="#D99100"/>
<stop offset="0.08" stop-color="#DB9100"/>
<stop offset="0.19" stop-color="#DB9100"/>
<stop offset="0.32" stop-color="#DB9100"/>
<stop offset="0.42" stop-color="#CF8800"/>
<stop offset="0.51" stop-color="#BE7A00"/>
<stop offset="0.69" stop-color="#905400"/>
<stop offset="0.9" stop-color="#743D00"/>
</linearGradient>
<linearGradient id="paint10_linear" x1="145.688" y1="120.877" x2="147.031" y2="120.708" gradientUnits="userSpaceOnUse">
<stop/>
<stop offset="0.26" stop-color="#020507"/>
<stop offset="1" stop-color="#315A78"/>
</linearGradient>
<linearGradient id="paint11_linear" x1="141.522" y1="120.671" x2="142.888" y2="120.5" gradientUnits="userSpaceOnUse">
<stop stop-color="#315A78"/>
<stop offset="0.74" stop-color="#020507"/>
<stop offset="1"/>
</linearGradient>
<linearGradient id="paint12_linear" x1="131.33" y1="118.459" x2="158.002" y2="123.055" gradientUnits="userSpaceOnUse">
<stop stop-color="#92A8F4"/>
<stop offset="0.07" stop-color="#0F2C41"/>
<stop offset="0.14" stop-color="#11324A"/>
<stop offset="0.21" stop-color="#2A4457"/>
<stop offset="0.73" stop-color="#274154"/>
<stop offset="0.86" stop-color="#0D273A"/>
<stop offset="1"/>
</linearGradient>
<linearGradient id="paint13_linear" x1="136.358" y1="57.1495" x2="135.636" y2="57.1947" gradientUnits="userSpaceOnUse">
<stop/>
<stop offset="1" stop-color="#787878"/>
</linearGradient>
<linearGradient id="paint14_linear" x1="136.297" y1="58.6531" x2="136.901" y2="58.5771" gradientUnits="userSpaceOnUse">
<stop stop-color="#787878"/>
<stop offset="0.25" stop-color="#4B4B4B"/>
<stop offset="0.52" stop-color="#4A4A4A"/>
<stop offset="0.72" stop-color="#4C4C4C"/>
<stop offset="1" stop-color="#787878"/>
</linearGradient>
<linearGradient id="paint15_linear" x1="282.094" y1="-102.126" x2="282.458" y2="-102.135" gradientUnits="userSpaceOnUse">
<stop/>
<stop offset="1" stop-color="#787878"/>
</linearGradient>
<linearGradient id="paint16_linear" x1="20.1537" y1="31.2159" x2="87.7595" y2="159.962" gradientUnits="userSpaceOnUse">
<stop stop-color="white"/>
<stop offset="0.34" stop-color="#FAF9F9"/>
<stop offset="0.63" stop-color="#EFEBE9"/>
<stop offset="0.84" stop-color="#E3DCD8"/>
<stop offset="1" stop-color="#CFC5BC"/>
</linearGradient>
<linearGradient id="paint17_linear" x1="86.0535" y1="177.445" x2="78.0876" y2="160.174" gradientUnits="userSpaceOnUse">
<stop offset="0.01" stop-color="#ABA2A2"/>
<stop offset="1"/>
</linearGradient>
<linearGradient id="paint18_linear" x1="61.3862" y1="45.407" x2="60.8932" y2="7.33161" gradientUnits="userSpaceOnUse">
<stop stop-color="#545454"/>
<stop offset="0.12" stop-color="#B5B5B5"/>
<stop offset="0.19" stop-color="#DBDBDB"/>
<stop offset="0.29" stop-color="white"/>
<stop offset="0.5" stop-color="#D3D2D1"/>
<stop offset="0.58" stop-color="#9F9FA0"/>
<stop offset="0.66" stop-color="#ABAAAB"/>
<stop offset="0.72" stop-color="#A3A1A1"/>
<stop offset="0.88" stop-color="#545454"/>
<stop offset="1" stop-color="#707070"/>
</linearGradient>
</defs>
</svg>
