<svg width="63" height="57" viewBox="0 0 63 57" fill="none" xmlns="http://www.w3.org/2000/svg">
<path d="M37.8667 45.589L25.4905 56.5431C25.1572 56.8375 24.728 57 24.2835 57C23.839 57 23.4098 56.8375 23.0765 56.5431L11.4403 46.2495C10.463 45.3782 9.44225 44.4149 8.45981 43.3685C4.81222 39.475 2.55193 34.4835 2.03056 29.1706L0.0809898 9.81241C-0.0869703 9.13557 0.0112553 8.41998 0.355355 7.81361C0.699455 7.20725 1.26311 6.75649 1.92977 6.55454L2.72465 6.60947C9.75366 7.10099 16.7185 4.99356 22.2995 0.686531L22.9374 0.190824C23.8093 -0.073675 24.7415 -0.0620738 25.6066 0.224041L26.7945 1.2244C31.2494 4.99877 36.8948 7.07213 42.7304 7.07707H46.3476C47.2211 7.36606 47.9515 7.97788 48.3899 8.78771C48.8284 9.59753 48.9416 10.5443 48.7067 11.435L46.3604 29.9141C45.6628 35.4927 43.0654 40.6597 39.0061 44.5439C38.6399 44.894 38.261 45.2389 37.8667 45.589Z" fill="#464949"/>
<path d="M35.9867 43.1994L25.338 52.623C25.0516 52.8766 24.6825 53.0166 24.3001 53.0166C23.9177 53.0166 23.5486 52.8766 23.2622 52.623L13.2527 43.7654C12.4081 43.018 11.5379 42.1901 10.6895 41.2907C7.55123 37.9415 5.60668 33.6474 5.15843 29.0768L3.4819 12.4246C3.33517 11.8413 3.41847 11.2238 3.71452 10.7004C4.01057 10.177 4.49661 9.78789 5.07167 9.61392L5.75555 9.66247C11.8034 10.0863 17.7962 8.27287 22.5974 4.56613L23.1499 4.13942C23.9003 3.91299 24.7021 3.92325 25.4465 4.1688L26.4672 5.0299C30.2997 8.27688 35.1565 10.0602 40.1767 10.0636H43.2886C44.0401 10.312 44.6686 10.8382 45.0459 11.5348C45.4231 12.2314 45.5207 13.0459 45.3186 13.8121L43.2925 29.7169C42.6915 34.5152 40.4574 38.9595 36.9666 42.3012C36.6514 42.6015 36.3261 42.8992 35.9867 43.1994Z" fill="white"/>
<path d="M34.4594 41.8413L25.2155 50.0179C24.9671 50.2382 24.6467 50.3599 24.3148 50.3599C23.9829 50.3599 23.6625 50.2382 23.414 50.0179L14.7251 42.3293C13.9928 41.6803 13.2361 40.9623 12.5 40.1804C9.77591 37.2724 8.088 33.5444 7.69875 29.5764L6.24295 15.1255C6.11937 14.6208 6.1936 14.0879 6.45038 13.6364C6.70717 13.1849 7.12698 12.8491 7.62347 12.698L8.21804 12.7389C13.4687 13.1061 18.6713 11.5304 22.8386 8.31077L23.3183 7.94027C23.9694 7.74353 24.6653 7.75245 25.3112 7.96582L26.1929 8.71321C29.52 11.5318 33.7364 13.0797 38.0945 13.0826H40.7955C41.4478 13.2983 41.9932 13.7552 42.3204 14.3599C42.6477 14.9647 42.732 15.6717 42.5563 16.3366L40.8057 30.1347C40.2841 34.3005 38.3442 38.1588 35.313 41.0594C35.0361 41.3213 34.7542 41.5794 34.4594 41.8413Z" fill="#9CB3C1"/>
<path opacity="0.08" d="M38.9251 44.5434C38.5589 44.8935 38.18 45.2384 37.7857 45.5885L25.4095 56.5426C25.0765 56.8372 24.6475 56.9998 24.2031 56.9998C23.7588 56.9998 23.3298 56.8372 22.9968 56.5426L11.3555 46.249C10.373 45.3802 9.36126 44.4169 8.37499 43.3706C4.72829 39.4758 2.46933 34.4835 1.94957 29.1701L0 9.81192L38.9251 44.5434Z" fill="black"/>
<path opacity="0.22" d="M58.9286 5.57925L35.2863 22.9878L28.9259 16.5232L22.8475 20.5949L35.0247 30.2011L63 6.68693L58.9286 5.57925Z" fill="black"/>
<path d="M58.1069 4.17519L35.193 21.0471C35.0633 21.1431 34.9033 21.1889 34.7425 21.1762C34.5817 21.1636 34.4309 21.0932 34.3178 20.9781L28.7549 15.3222C28.6452 15.2109 28.5003 15.1413 28.345 15.1254C28.1896 15.1096 28.0336 15.1484 27.9038 15.2353L23.0554 18.4843C22.9675 18.5433 22.8947 18.6222 22.8431 18.7147C22.7915 18.8072 22.7624 18.9106 22.7583 19.0165C22.7542 19.1224 22.7752 19.2278 22.8195 19.324C22.8638 19.4202 22.9302 19.5046 23.0133 19.5702L34.0371 28.2668C34.1583 28.3623 34.3087 28.4132 34.4629 28.4109C34.6172 28.4085 34.7659 28.3532 34.8843 28.2541L61.4561 5.91655C61.5498 5.83764 61.6202 5.73456 61.6596 5.61848C61.699 5.50239 61.7059 5.37772 61.6796 5.25797C61.6534 5.13823 61.5949 5.02796 61.5105 4.93911C61.4261 4.85027 61.319 4.78623 61.2009 4.75394L58.6797 4.06787C58.5824 4.04139 58.4802 4.03729 58.381 4.05587C58.2818 4.07446 58.1881 4.11524 58.1069 4.17519Z" fill="#464949"/>
<path d="M24.0851 19.063L28.3644 16.1974L34.7503 22.6888L58.6964 5.0567L60.4967 5.5473L34.573 27.3367L24.0851 19.063Z" fill="#8CAD81"/>
<path d="M34.5768 27.789L23.4893 19.0362L28.4104 15.7387L34.7899 22.2212L58.6249 4.67343L61.2354 5.38378L34.5768 27.789ZM24.6797 19.086L34.5628 26.8794L59.7567 5.70956L58.7678 5.44127L34.7133 23.1526L28.3249 16.6509L24.6797 19.086Z" fill="#8CAD81"/>
</svg>
