<svg width="25" height="26" viewBox="0 0 25 26" fill="none" xmlns="http://www.w3.org/2000/svg">
<path fill-rule="evenodd" clip-rule="evenodd" d="M12.5 0.881989C14.9723 0.881989 17.389 1.6151 19.4446 2.98862C21.5002 4.36214 23.1024 6.31437 24.0485 8.59844C24.9946 10.8825 25.2421 13.3959 24.7598 15.8206C24.2775 18.2454 23.087 20.4727 21.3388 22.2208C19.5907 23.969 17.3634 25.1595 14.9386 25.6418C12.5139 26.1241 10.0005 25.8766 7.71646 24.9305C5.43238 23.9844 3.48015 22.3822 2.10663 20.3266C0.733112 18.271 0 15.8543 0 13.382C0.000723875 10.067 1.31792 6.888 3.66196 4.54395C6.00601 2.19991 9.18501 0.882712 12.5 0.881989V0.881989ZM16.3008 20.4511C13.0898 21.658 9.27807 20.2327 7.38587 16.9561C5.49366 13.6796 6.17355 9.66857 8.81662 7.49241C8.83121 7.52251 8.84762 7.55169 8.86577 7.57978L11.1948 11.6181L11.2413 11.6891C9.60299 12.5082 8.71833 12.9205 10.1327 15.3698C11.5471 17.819 12.3416 17.2483 13.8789 16.2462C13.8908 16.2854 13.9073 16.3229 13.928 16.3582L16.2571 20.3938C16.2735 20.4102 16.2817 20.4347 16.2981 20.4511H16.3008ZM14.6625 15.1595L15.3588 14.7554C15.5155 14.667 15.7007 14.6438 15.8744 14.6908C16.0481 14.7378 16.1963 14.8512 16.2871 15.0066L18.6189 19.0449C18.7073 19.2017 18.7305 19.3869 18.6835 19.5606C18.6365 19.7343 18.5231 19.8825 18.3677 19.9733L17.6715 20.3719C17.5945 20.4176 17.5092 20.4475 17.4206 20.4599C17.332 20.4724 17.2418 20.4672 17.1553 20.4446C17.0687 20.422 16.9874 20.3825 16.9162 20.3283C16.845 20.2741 16.7853 20.2063 16.7404 20.1289L14.4004 16.0906C14.3112 15.9336 14.2875 15.7477 14.3345 15.5734C14.3816 15.399 14.4955 15.2503 14.6516 15.1595H14.6625ZM9.58661 6.38384L10.2747 5.98793C10.3514 5.94183 10.4365 5.91147 10.5251 5.8986C10.6137 5.88573 10.7039 5.89062 10.7906 5.91299C10.8772 5.93535 10.9586 5.97474 11.0299 6.02886C11.1011 6.08298 11.1609 6.15074 11.2058 6.22821L13.5348 10.2665C13.5805 10.3435 13.6104 10.4288 13.6228 10.5174C13.6353 10.606 13.6301 10.6962 13.6075 10.7828C13.5849 10.8693 13.5454 10.9506 13.4912 11.0218C13.437 11.093 13.3692 11.1528 13.2918 11.1976L12.5956 11.6017C12.4384 11.6902 12.2528 11.7135 12.0787 11.6665C11.9045 11.6196 11.7558 11.5061 11.6645 11.3505L9.33541 7.31493C9.24617 7.15794 9.2225 6.97207 9.26953 6.79773C9.31657 6.62338 9.43052 6.47464 9.58661 6.38384Z" fill="white"/>
</svg>
