<svg width="59" height="68" viewBox="0 0 59 68" fill="none" xmlns="http://www.w3.org/2000/svg">
<g clip-path="url(#clip0)">
<path d="M38.5054 13.3329L38.3646 13.8003L37.937 15.2461L37.5145 16.6739L36.9819 18.4714L34.5673 26.6402L33.9349 28.7793L33.9093 28.864L33.7991 29.2749L33.6711 29.7089L33.6378 29.8219L31.9095 35.6666L31.6304 36.6039L31.4127 37.3461L31.2719 37.8263L30.1376 41.6012L29.6767 43.1574L29.6127 43.3782L29.4667 43.8661L29.3182 44.3797L29.0365 45.3248L28.5577 46.9451L28.2581 47.9569L27.1827 51.5881L22.3177 68H0.809131C0.593833 67.998 0.388041 67.9108 0.236517 67.7573C0.084992 67.6039 -9.52059e-06 67.3967 7.99813e-10 67.1808L7.99813e-10 37.8186L0.153633 37.305L0.768162 35.1992L2.36338 29.8065L2.49141 29.3725L2.52469 29.2595L3.29286 26.6299L5.54101 19.0287L9.76591 4.76358L18.9762 7.51388L21.1526 8.16358L28.5449 10.3643L29.6127 10.6828L32.2884 11.4788L37.2559 12.9606L38.5054 13.3329Z" fill="#D3DBDD"/>
<path d="M7.44606 65.4603C6.71172 65.226 6.06273 64.7794 5.58049 64.1766C5.09826 63.5738 4.80426 62.8416 4.73539 62.0718C4.66651 61.302 4.82582 60.529 5.19334 59.8497C5.56085 59.1704 6.1202 58.6151 6.80121 58.2534C7.48222 57.8917 8.25457 57.7398 9.02135 57.8167C9.78814 57.8935 10.5152 58.1958 11.1114 58.6855C11.7075 59.1752 12.1462 59.8306 12.3724 60.5694C12.5986 61.3082 12.6022 62.0975 12.3828 62.8384C12.2311 63.3361 11.9829 63.799 11.6525 64.2003C11.322 64.6017 10.9158 64.9337 10.4572 65.1772C9.99855 65.4208 9.49647 65.5712 8.97976 65.6198C8.46304 65.6684 7.94184 65.6142 7.44606 65.4603Z" fill="#608C74"/>
<path d="M17.7572 30.6282C17.0226 30.3944 16.3732 29.9481 15.8906 29.3454C15.408 28.7427 15.1136 28.0105 15.0444 27.2407C14.9752 26.4708 15.1342 25.6976 15.5016 25.0181C15.8689 24.3385 16.4283 23.783 17.1093 23.4211C17.7904 23.0592 18.5628 22.9071 19.3298 22.9839C20.0967 23.0607 20.8239 23.3629 21.4202 23.8527C22.0165 24.3425 22.4552 24.998 22.6814 25.737C22.9075 26.4759 22.911 27.2654 22.6914 28.0063C22.3832 29.0099 21.6904 29.8497 20.7653 30.3413C19.8401 30.8329 18.7582 30.9361 17.7572 30.6282Z" fill="#608C74"/>
<path d="M35.356 15.2153L30.0992 13.6488L22.5942 11.4172L19.414 10.4697L17.2376 9.81997L11.4047 8.08401C11.2491 8.14608 11.0977 8.21813 10.9514 8.29972L6.1453 24.537L5.52309 26.6402L4.42206 30.3586L1.90504 38.8638L0 45.3043V56.2515L0.340552 55.1011L2.0894 49.1947L7.24377 31.7941L8.7801 26.6582L9.77359 23.2967L11.4866 17.4623L12.1651 15.1511C12.465 15.2393 12.773 15.297 13.0844 15.3231C14.9536 15.4798 16.6896 14.4372 17.1966 12.7295L17.614 12.8527L20.7942 13.8003L27.8305 15.8932L27.9688 15.9343C27.7911 16.5704 27.787 17.2427 27.9568 17.881C28.1266 18.5192 28.4641 19.1001 28.9341 19.5629C29.4318 20.0763 30.0471 20.4598 30.7265 20.6799L30.8776 20.7287L29.1287 26.6351L28.7574 27.8857L28.4809 28.8281L28.3503 29.2647L28.189 29.8117L27.0137 33.7766L26.7577 34.6805L24.9653 40.7538L24.6196 41.858L24.3379 42.803L22.9297 47.5666L22.4329 49.2487L20.7097 55.0703L16.8688 68.0103H20.1105L20.8787 65.3807L21.04 64.8337L25.4441 49.9574L25.6797 49.1537L26.0177 48.0135L26.5784 46.1132L26.5963 46.0618L26.8063 45.3582L27.1136 44.313L27.3952 43.368L27.7383 42.1996L29.6536 35.7283L29.9302 34.8012L30.2477 33.7227L31.4204 29.7603L31.5587 29.2955L31.5971 29.1671L31.8531 28.2478L32.3243 26.6608L35.5838 15.6493C35.5223 15.4974 35.446 15.3521 35.356 15.2153Z" fill="#8F9B75"/>
<path d="M22.1232 43.4399C22.0956 43.0424 22.0383 42.6475 21.9516 42.2586C21.9516 42.2047 21.926 42.1508 21.9132 42.0943C21.857 41.8519 21.7877 41.6127 21.7058 41.3778C21.5391 40.8797 21.3265 40.3983 21.0708 39.9397C20.4508 38.8384 19.5914 37.8913 18.5564 37.1689C18.3434 37.0197 18.1229 36.8817 17.8957 36.7554C17.3477 36.4438 16.7662 36.1957 16.1622 36.0159C15.826 35.9168 15.4839 35.8388 15.138 35.7822L14.9844 35.7565C14.6384 35.7055 14.2894 35.6772 13.9397 35.6718H13.8859C13.1076 35.6589 12.3315 35.7584 11.5814 35.9671C11.3534 36.0273 11.1286 36.0993 10.908 36.1828C10.5385 36.3156 10.1798 36.4771 9.83515 36.6656C8.62215 37.3165 7.58802 38.2576 6.82442 39.4053C6.06082 40.5529 5.59133 41.8718 5.45759 43.245C5.32384 44.6182 5.52995 46.0033 6.05766 47.2775C6.58537 48.5517 7.41838 49.6757 8.48284 50.5497C9.5473 51.4238 10.8103 52.021 12.16 52.2884C13.5097 52.5558 14.9043 52.4851 16.2202 52.0827C17.5361 51.6802 18.7327 50.9583 19.7038 49.9811C20.675 49.0039 21.3908 47.8014 21.7878 46.4804C21.7885 46.4692 21.7885 46.4581 21.7878 46.447C21.9798 45.8094 22.0924 45.1504 22.1232 44.485C22.1477 44.1371 22.1477 43.7878 22.1232 43.4399ZM16.1879 47.6719C15.7253 47.7933 15.2403 47.8004 14.7744 47.6924L15.0305 46.5702L15.1892 45.8974C15.6451 45.9933 16.1202 45.9116 16.5182 45.6689C16.7573 45.504 16.927 45.256 16.9944 44.973C17.0519 44.789 17.068 44.5945 17.0414 44.4035C17.0149 44.2126 16.9463 44.0299 16.8408 43.8687C16.7069 43.6859 16.5112 43.5581 16.2903 43.5092C15.9036 43.3937 15.4683 43.5092 14.9537 43.8662C14.5952 44.1692 14.0549 44.598 13.3149 45.1784C12.8678 45.5534 12.3705 45.8637 11.8375 46.1003L11.7479 46.1363C11.2952 46.295 10.8039 46.3058 10.3447 46.1671C9.95248 46.0635 9.59777 45.8501 9.32208 45.5518C9.04638 45.2535 8.86109 44.8826 8.78789 44.4825C8.76313 44.3691 8.74603 44.2541 8.73668 44.1384C8.71141 43.8686 8.72174 43.5966 8.7674 43.3295L7.82512 43.047L8.22201 41.7014L9.15661 41.9736C9.29957 41.6316 9.49291 41.313 9.73017 41.0286C9.9932 40.7226 10.3299 40.4892 10.7083 40.3506C11.0838 40.2109 11.4903 40.1771 11.8836 40.253L11.6045 42.1148C11.2607 42.0492 10.9048 42.1113 10.6033 42.2894C10.3817 42.454 10.2278 42.6942 10.1706 42.9648C10.117 43.1069 10.0979 43.2596 10.1148 43.4106C10.1318 43.5615 10.1842 43.7062 10.2679 43.8328C10.4168 44.0387 10.6321 44.1866 10.8773 44.2514C11.2998 44.3772 11.7888 44.2514 12.3624 43.9047C12.654 43.7087 12.9289 43.4888 13.1843 43.2473C13.5863 42.8903 13.8578 42.6592 13.996 42.5539C14.1937 42.4024 14.4007 42.2634 14.6157 42.1379C14.8395 41.9997 15.0762 41.8836 15.3224 41.7912C15.4895 41.7266 15.6606 41.6725 15.8345 41.6295C16.0862 41.571 16.3458 41.5554 16.6027 41.5832C16.6607 41.5918 16.718 41.6047 16.7742 41.6218C17.0106 41.6844 17.236 41.7831 17.4425 41.9145C17.767 42.1293 18.0314 42.4237 18.2107 42.7696C18.2991 42.9357 18.3654 43.1127 18.4078 43.2961C18.4778 43.6041 18.502 43.9208 18.4795 44.236C18.4795 44.3849 18.4437 44.5518 18.4155 44.7316L19.3476 45.0012L19.3015 45.1527L18.9481 46.3545L17.9854 46.0644C17.8297 46.4101 17.6098 46.723 17.3375 46.9863C17.0206 47.3116 16.6242 47.548 16.1879 47.6719Z" fill="#608C74"/>
<path d="M48.5402 18.1299L43.4754 24.8503L42.126 26.6479L38.636 31.2702L38.0496 32.0406L34.3113 37.0045L33.7275 37.7749L29.6767 43.16L29.5128 43.3782L28.9162 44.1692L28.4502 44.7906L28.335 44.9473L27.5668 45.9514L27.5437 45.9796L27.2288 46.3982L26.0228 47.9955L24.9269 49.4515L20.7097 55.06L13.2022 65.0237L12.9461 65.3704L10.9566 68H0.816813C0.600181 68 0.392421 67.9137 0.239239 67.7601C0.0860568 67.6064 0 67.3981 0 67.1808L0 32.6878L0.481382 32.0483H0.494185L2.16878 29.827L2.49653 29.3931L2.58103 29.2801L4.2377 27.0819L4.56289 26.6505L6.1453 24.537L11.4866 17.4622L13.0844 15.3308L15.691 11.8692L17.2273 9.8148L18.9659 7.50363L24.6401 0L35.5301 8.26118L41.1761 12.5394L44.5534 15.0997L47.7976 17.5598L48.5402 18.1299Z" fill="#E8EEF0"/>
<path d="M23.0603 27.0177C22.4545 26.5399 22.0029 25.8932 21.7621 25.1589C21.5214 24.4247 21.5023 23.6354 21.7072 22.8903C21.9121 22.1451 22.3318 21.4773 22.9138 20.9705C23.4958 20.4637 24.214 20.1406 24.9784 20.0417C25.7428 19.9429 26.5193 20.0726 27.2104 20.4147C27.9015 20.7567 28.4766 21.2959 28.8633 21.9645C29.25 22.6332 29.4312 23.4014 29.3841 24.1729C29.3371 24.9445 29.0638 25.6849 28.5988 26.3012C27.9587 27.1323 27.0159 27.6746 25.9774 27.8089C24.9389 27.9433 23.8897 27.6587 23.0603 27.0177Z" fill="#608C74"/>
<path d="M44.9349 18.7822L44.6405 18.5613L43.1784 17.4622L38.9458 14.2394L38.3646 13.8003L37.2559 12.9606L33.5943 10.1846L25.0037 3.66965C24.8321 3.66965 24.6631 3.69019 24.4916 3.71587L21.1526 8.16361L19.414 10.4748L17.6216 12.8656L9.76078 23.2787L7.22841 26.6402L5.24655 29.2749L4.9905 29.6139L4.42206 30.3638L0.768162 35.1993L0 36.2265V41.3932L1.90504 38.8638L7.24377 31.7838L11.1204 26.6479L20.7942 13.808L22.5865 11.4172L23.2292 10.5647C24.9371 11.8487 27.2288 11.7408 28.5372 10.3644C28.6287 10.2705 28.7142 10.171 28.7933 10.0665L29.6075 10.6828L31.5792 12.1799L37.0485 16.3221L37.5094 16.6739L37.7654 16.8639C37.368 17.3916 37.1298 18.0226 37.0792 18.682C37.0352 19.3921 37.1706 20.1018 37.4727 20.7455C37.7748 21.3892 38.2339 21.946 38.8076 22.3645L35.5915 26.6402L33.9681 28.7896L33.9144 28.8641L33.6071 29.2698L33.3511 29.6011L33.1872 29.8168L30.2579 33.7021L29.5563 34.6317L28.9597 35.4381L24.9422 40.7589L24.2663 41.6552L23.6773 42.4255L22.141 44.4799L21.1168 45.8358L16.472 51.999L11.2894 58.8683L6.8008 64.8234L6.59596 65.0982L6.40135 65.3704L5.21582 66.9446C3.54891 65.6863 1.33404 65.753 0.0128027 67.0422V67.1808C0.0128027 67.3981 0.0988595 67.6065 0.252042 67.7601C0.405224 67.9137 0.612983 68 0.829615 68H8.28847L10.3932 65.2061L10.4675 65.1085L10.6775 64.8337L12.4698 62.4558L22.4303 49.2461L23.3777 47.9903L26.4376 43.9124L27.0265 43.142L27.7512 42.179L31.3999 37.341L31.8634 36.7246L32.0554 36.4678L32.4497 35.9542L36.2701 30.8876L36.5671 30.4922L36.8564 30.107L37.069 29.8271L37.4812 29.2801L39.4631 26.6505L41.9545 23.3455L45.0271 19.2727C45.0081 19.1072 44.9773 18.9433 44.9349 18.7822Z" fill="#759375"/>
<path d="M16.1595 36.0107C15.8233 35.9117 15.4812 35.8336 15.1353 35.7771L14.9817 35.7514C14.8332 35.9619 14.6898 36.1777 14.549 36.3959C14.5499 36.4002 14.5499 36.4045 14.549 36.4088C14.549 36.4088 14.549 36.4088 14.549 36.4216C14.508 36.4832 14.4645 36.5551 14.4235 36.6245C14.3825 36.6938 14.3364 36.7632 14.298 36.8325C14.2596 36.9018 14.2161 36.9686 14.1777 37.0405C14.1393 37.1124 14.1009 37.1817 14.0625 37.2485L14.0061 37.3538L14.042 37.3409L14.1546 37.2999L14.3723 37.2151C14.8665 37.0225 15.1968 36.9018 15.3658 36.8556C15.8523 36.6962 16.3596 36.6097 16.8714 36.5988C17.051 36.5989 17.2306 36.6092 17.4091 36.6296C17.5731 36.6529 17.7343 36.6925 17.8905 36.7477C17.3432 36.4372 16.7625 36.1899 16.1595 36.0107ZM11.4097 36.6476C11.4151 36.677 11.4219 36.7062 11.4302 36.7349C11.4934 36.9822 11.6434 37.1982 11.8527 37.3435C12.01 37.4582 12.1912 37.5355 12.3827 37.5695L11.4097 36.6476ZM16.1595 36.0107C15.8233 35.9117 15.4812 35.8336 15.1353 35.7771L14.9817 35.7514C14.8332 35.9619 14.6898 36.1777 14.549 36.3959C14.5499 36.4002 14.5499 36.4045 14.549 36.4088C14.549 36.4088 14.549 36.4088 14.549 36.4216C14.508 36.4832 14.4645 36.5551 14.4235 36.6245C14.3825 36.6938 14.3364 36.7632 14.298 36.8325C14.2596 36.9018 14.2161 36.9686 14.1777 37.0405C14.1393 37.1124 14.1009 37.1817 14.0625 37.2485L14.0061 37.3538L14.042 37.3409L14.1546 37.2999L14.3723 37.2151C14.8665 37.0225 15.1968 36.9018 15.3658 36.8556C15.8523 36.6962 16.3596 36.6097 16.8714 36.5988C17.051 36.5989 17.2306 36.6092 17.4091 36.6296C17.5731 36.6529 17.7343 36.6925 17.8905 36.7477C17.3432 36.4372 16.7625 36.1899 16.1595 36.0107ZM11.4097 36.6476C11.4151 36.677 11.4219 36.7062 11.4302 36.7349C11.4934 36.9822 11.6434 37.1982 11.8527 37.3435C12.01 37.4582 12.1912 37.5355 12.3827 37.5695L11.4097 36.6476ZM16.1595 36.0107C15.8233 35.9117 15.4812 35.8336 15.1353 35.7771L14.9817 35.7514C14.8332 35.9619 14.6898 36.1777 14.549 36.3959C14.5499 36.4002 14.5499 36.4045 14.549 36.4088C14.549 36.4088 14.549 36.4088 14.549 36.4216C14.508 36.4832 14.4645 36.5551 14.4235 36.6245C14.3825 36.6938 14.3364 36.7632 14.298 36.8325C14.2596 36.9018 14.2161 36.9686 14.1777 37.0405C14.1393 37.1124 14.1009 37.1817 14.0625 37.2485L14.0061 37.3538L14.042 37.3409L14.1546 37.2999L14.3723 37.2151C14.8665 37.0225 15.1968 36.9018 15.3658 36.8556C15.8523 36.6962 16.3596 36.6097 16.8714 36.5988C17.051 36.5989 17.2306 36.6092 17.4091 36.6296C17.5731 36.6529 17.7343 36.6925 17.8905 36.7477C17.3432 36.4372 16.7625 36.1899 16.1595 36.0107ZM11.4097 36.6476C11.4151 36.677 11.4219 36.7062 11.4302 36.7349C11.4934 36.9822 11.6434 37.1982 11.8527 37.3435C12.01 37.4582 12.1912 37.5355 12.3827 37.5695L11.4097 36.6476ZM21.8158 33.8819C21.2825 32.9902 20.5878 32.2064 19.7673 31.5707C19.7429 31.5488 19.7172 31.5282 19.6905 31.5091C19.6562 31.4805 19.6203 31.4539 19.583 31.4295C19.578 31.4277 19.5726 31.4277 19.5676 31.4295C19.2891 31.218 18.9965 31.0258 18.6919 30.8542C18.649 30.8269 18.6045 30.8021 18.5588 30.7798C18.2216 30.5973 17.8725 30.4378 17.5141 30.3021C17.1918 30.1844 16.8625 30.0866 16.5283 30.0094C16.0663 29.9021 15.596 29.8351 15.1225 29.8091C14.8071 29.7885 14.4906 29.7885 14.1751 29.8091C14.0394 29.8091 13.9191 29.8271 13.7731 29.8399C12.2001 30.0058 10.7062 30.6154 9.46453 31.598C8.22288 32.5806 7.28434 33.8961 6.75772 35.3918C6.23109 36.8876 6.13795 38.5024 6.48909 40.0491C6.84022 41.5958 7.62126 43.011 8.74165 44.1307C9.619 45.0052 10.6777 45.675 11.8425 46.0926C13.0766 46.5298 14.3956 46.6711 15.6939 46.5052C16.9923 46.3393 18.2339 45.8708 19.3192 45.1373C19.5241 44.9986 19.7238 44.8497 19.9184 44.6931C20.4397 44.2671 20.9082 43.78 21.3139 43.2422C21.55 42.9265 21.7647 42.5954 21.9566 42.2509C22.0667 42.0583 22.164 41.8606 22.2536 41.6603C22.298 41.5678 22.339 41.4754 22.3765 41.3829C22.461 41.1749 22.5378 40.9644 22.6044 40.7538C22.967 39.6179 23.0841 38.4175 22.9482 37.2326C22.8122 36.0478 22.4262 34.9055 21.8158 33.8819ZM18.6919 42.1585L17.8879 41.5499C17.7565 41.6819 17.6124 41.8006 17.4577 41.9042C17.3638 41.973 17.2645 42.0339 17.1607 42.0866C17.0941 42.1251 17.0276 42.1559 16.961 42.1867C16.5454 42.3809 16.0863 42.4623 15.6295 42.423C15.2777 42.3889 14.9355 42.2887 14.6207 42.1277C14.5096 42.0733 14.4019 42.0124 14.298 41.9453L15.3222 40.4045L15.4682 40.479C15.8277 40.6781 16.2463 40.7418 16.6486 40.6588C16.9302 40.5881 17.1756 40.4151 17.3374 40.1734C17.4504 40.0303 17.5318 39.8647 17.5759 39.6875C17.6201 39.5104 17.626 39.3259 17.5934 39.1462C17.5947 39.1274 17.5947 39.1086 17.5934 39.0897C17.5305 38.8719 17.3926 38.6836 17.2042 38.5582C17.0501 38.4561 16.877 38.3861 16.6953 38.3526C16.5136 38.3191 16.327 38.3226 16.1467 38.363C16.0443 38.3758 15.9393 38.3964 15.8267 38.4221C15.4067 38.5642 14.782 38.7679 13.9524 39.0332L13.8243 39.0718C13.2478 39.2775 12.6434 39.3944 12.0319 39.4184C11.5532 39.4052 11.0905 39.2428 10.7081 38.9536C10.377 38.7186 10.1196 38.3937 9.96633 38.017C9.81301 37.6404 9.77012 37.2276 9.84269 36.8274C9.84269 36.7683 9.86061 36.7118 9.87085 36.6553C9.93819 36.3321 10.0585 36.0223 10.2268 35.7385L9.44068 35.1428L9.73514 34.7499L10.2831 34.0231L11.0513 34.6061C11.3086 34.3374 11.6047 34.1088 11.9295 33.9281C12.2752 33.7368 12.664 33.6378 13.0587 33.6405C13.3342 33.6411 13.6071 33.6942 13.8627 33.7971C13.9774 33.8411 14.088 33.8953 14.193 33.9589L13.9242 34.4417L13.2764 35.5922C12.9783 35.4097 12.624 35.343 12.2803 35.4047C12.0132 35.4774 11.783 35.6478 11.6351 35.8823C11.6146 35.908 11.5992 35.9337 11.5839 35.9568C11.4388 36.1529 11.3746 36.3976 11.4046 36.6399C11.4099 36.6693 11.4168 36.6985 11.4251 36.7272C11.4883 36.9745 11.6383 37.1905 11.8476 37.3358C12.0049 37.4505 12.1861 37.5278 12.3776 37.5618C12.5113 37.5905 12.6482 37.6017 12.7847 37.5952C12.8265 37.599 12.8685 37.599 12.9102 37.5952C13.0609 37.5872 13.2107 37.5674 13.3583 37.5361C13.5738 37.4887 13.786 37.427 13.9933 37.3512L14.0292 37.3384L14.1418 37.2973L14.3595 37.2125C14.8537 37.02 15.184 36.8993 15.353 36.853C15.8395 36.6937 16.3468 36.6071 16.8586 36.5962C17.0382 36.5963 17.2178 36.6066 17.3963 36.6271C17.5603 36.6503 17.7215 36.6899 17.8777 36.7452C18.0257 36.7909 18.1651 36.8612 18.2899 36.9532C18.3809 37.0142 18.4666 37.0829 18.546 37.1586C18.9345 37.5201 19.1807 38.0094 19.2399 38.5376C19.2605 38.6761 19.2656 38.8165 19.2552 38.9562C19.2294 39.2901 19.148 39.6173 19.0145 39.9243C19.0145 39.95 18.9915 39.9783 18.9813 40.0039C18.9172 40.1426 18.8353 40.289 18.7457 40.4482L19.5267 41.0286L18.6919 42.1585ZM11.4097 36.6476C11.4151 36.677 11.4219 36.7062 11.4302 36.7349C11.4934 36.9822 11.6434 37.1982 11.8527 37.3435C12.01 37.4582 12.1912 37.5355 12.3827 37.5695L11.4097 36.6476ZM16.1595 36.0107C15.8233 35.9117 15.4812 35.8336 15.1353 35.7771L14.9817 35.7514C14.8332 35.9619 14.6898 36.1777 14.549 36.3959C14.5499 36.4002 14.5499 36.4045 14.549 36.4088C14.549 36.4088 14.549 36.4088 14.549 36.4216C14.508 36.4832 14.4645 36.5551 14.4235 36.6245C14.3825 36.6938 14.3364 36.7632 14.298 36.8325C14.2596 36.9018 14.2161 36.9686 14.1777 37.0405C14.1393 37.1124 14.1009 37.1817 14.0625 37.2485L14.0061 37.3538L14.042 37.3409L14.1546 37.2999L14.3723 37.2151C14.8665 37.0225 15.1968 36.9018 15.3658 36.8556C15.8523 36.6962 16.3596 36.6097 16.8714 36.5988C17.051 36.5989 17.2306 36.6092 17.4091 36.6296C17.5731 36.6529 17.7343 36.6925 17.8905 36.7477C17.3432 36.4372 16.7625 36.1899 16.1595 36.0107ZM11.4097 36.6476C11.4151 36.677 11.4219 36.7062 11.4302 36.7349C11.4934 36.9822 11.6434 37.1982 11.8527 37.3435C12.01 37.4582 12.1912 37.5355 12.3827 37.5695L11.4097 36.6476ZM16.1595 36.0107C15.8233 35.9117 15.4812 35.8336 15.1353 35.7771L14.9817 35.7514C14.8332 35.9619 14.6898 36.1777 14.549 36.3959C14.5499 36.4002 14.5499 36.4045 14.549 36.4088C14.549 36.4088 14.549 36.4088 14.549 36.4216C14.508 36.4832 14.4645 36.5551 14.4235 36.6245C14.3825 36.6938 14.3364 36.7632 14.298 36.8325C14.2596 36.9018 14.2161 36.9686 14.1777 37.0405C14.1393 37.1124 14.1009 37.1817 14.0625 37.2485L14.0061 37.3538L14.042 37.3409L14.1546 37.2999L14.3723 37.2151C14.8665 37.0225 15.1968 36.9018 15.3658 36.8556C15.8523 36.6962 16.3596 36.6097 16.8714 36.5988C17.051 36.5989 17.2306 36.6092 17.4091 36.6296C17.5731 36.6529 17.7343 36.6925 17.8905 36.7477C17.3432 36.4372 16.7625 36.1899 16.1595 36.0107ZM11.4097 36.6476C11.4151 36.677 11.4219 36.7062 11.4302 36.7349C11.4934 36.9822 11.6434 37.1982 11.8527 37.3435C12.01 37.4582 12.1912 37.5355 12.3827 37.5695L11.4097 36.6476ZM16.1595 36.0107C15.8233 35.9117 15.4812 35.8336 15.1353 35.7771L14.9817 35.7514C14.8332 35.9619 14.6898 36.1777 14.549 36.3959C14.5499 36.4002 14.5499 36.4045 14.549 36.4088C14.549 36.4088 14.549 36.4088 14.549 36.4216C14.508 36.4832 14.4645 36.5551 14.4235 36.6245C14.3825 36.6938 14.3364 36.7632 14.298 36.8325C14.2596 36.9018 14.2161 36.9686 14.1777 37.0405C14.1393 37.1124 14.1009 37.1817 14.0625 37.2485L14.0061 37.3538L14.042 37.3409L14.1546 37.2999L14.3723 37.2151C14.8665 37.0225 15.1968 36.9018 15.3658 36.8556C15.8523 36.6962 16.3596 36.6097 16.8714 36.5988C17.051 36.5989 17.2306 36.6092 17.4091 36.6296C17.5731 36.6529 17.7343 36.6925 17.8905 36.7477C17.3432 36.4372 16.7625 36.1899 16.1595 36.0107ZM11.4097 36.6476C11.4151 36.677 11.4219 36.7062 11.4302 36.7349C11.4934 36.9822 11.6434 37.1982 11.8527 37.3435C12.01 37.4582 12.1912 37.5355 12.3827 37.5695L11.4097 36.6476ZM16.1595 36.0107C15.8233 35.9117 15.4812 35.8336 15.1353 35.7771L14.9817 35.7514C14.8332 35.9619 14.6898 36.1777 14.549 36.3959C14.5499 36.4002 14.5499 36.4045 14.549 36.4088C14.549 36.4088 14.549 36.4088 14.549 36.4216C14.508 36.4832 14.4645 36.5551 14.4235 36.6245C14.3825 36.6938 14.3364 36.7632 14.298 36.8325C14.2596 36.9018 14.2161 36.9686 14.1777 37.0405C14.1393 37.1124 14.1009 37.1817 14.0625 37.2485L14.0061 37.3538L14.042 37.3409L14.1546 37.2999L14.3723 37.2151C14.8665 37.0225 15.1968 36.9018 15.3658 36.8556C15.8523 36.6962 16.3596 36.6097 16.8714 36.5988C17.051 36.5989 17.2306 36.6092 17.4091 36.6296C17.5731 36.6529 17.7343 36.6925 17.8905 36.7477C17.3432 36.4372 16.7625 36.1899 16.1595 36.0107Z" fill="#608C74"/>
<path d="M40.1494 5.52884L57.5381 21.9947C57.6624 22.1145 57.7613 22.2583 57.8288 22.4174C57.8964 22.5764 57.9312 22.7476 57.9312 22.9205C57.9312 23.0934 57.8964 23.2645 57.8288 23.4236C57.7613 23.5827 57.6624 23.7264 57.5381 23.8462L29.3721 51.7986C29.12 52.0514 28.7804 52.1969 28.424 52.2045C28.0676 52.2122 27.722 52.0815 27.4594 51.8397L10.0733 35.3739C9.949 35.2541 9.8501 35.1103 9.78255 34.9512C9.715 34.7921 9.68018 34.621 9.68018 34.4481C9.68018 34.2752 9.715 34.1041 9.78255 33.945C9.8501 33.7859 9.949 33.6422 10.0733 33.5224L38.2393 5.5725C38.4909 5.32009 38.8298 5.17469 39.1856 5.16656C39.5414 5.15843 39.8866 5.28819 40.1494 5.52884Z" fill="#9CB3C1"/>
<g opacity="0.47">
<path opacity="0.47" d="M40.741 33.1911L40.7205 33.1706C40.5336 32.9651 40.339 32.7623 40.1367 32.5671C39.6645 32.1073 39.1633 31.6785 38.6363 31.2831C38.0752 30.8486 37.4858 30.4523 36.872 30.0967L36.5033 29.8913L36.3574 29.8168C36.1602 29.7115 35.963 29.6114 35.7633 29.5189C35.1809 29.2401 34.5824 28.9965 33.9709 28.7896H33.9428C32.2706 28.2263 30.5215 27.9266 28.7577 27.9011C27.4021 27.8791 26.0487 28.0161 24.7248 28.3094C24.5763 28.3428 24.4278 28.3736 24.2844 28.4095C23.584 28.5789 22.8948 28.7916 22.2206 29.0464L22.1592 29.0721C21.7367 29.2339 21.3193 29.4136 20.9096 29.6062H20.8917C20.7483 29.6704 20.6075 29.7423 20.4692 29.8142C20.0621 30.0197 19.6652 30.2456 19.2786 30.4819C19.1941 30.5307 19.1121 30.5846 19.0225 30.6385C18.9329 30.6925 18.8638 30.7387 18.7844 30.7926L18.6922 30.8517L18.4003 31.052C18.0964 31.266 17.7977 31.4885 17.5041 31.7197C17.0603 32.0706 16.6335 32.4447 16.2238 32.8419C15.668 33.3808 15.1488 33.9565 14.6696 34.565C14.5595 34.7114 14.4468 34.8577 14.3418 35.0067C14.1805 35.2198 14.0295 35.4407 13.8835 35.6615C13.7375 35.8823 13.5814 36.1314 13.438 36.3728C13.4021 36.4345 13.3637 36.4987 13.333 36.5603C13.1333 36.8993 12.9515 37.2434 12.785 37.5875C12.7466 37.6697 12.7082 37.7493 12.6724 37.8314L12.8106 37.9624L13.4098 38.5274C13.5097 38.2988 13.6146 38.0677 13.7299 37.8494C13.8092 37.6748 13.8989 37.5053 13.9859 37.3358L14.0423 37.2305C14.0807 37.1638 14.1139 37.0893 14.1575 37.0225C14.201 36.9558 14.2394 36.8813 14.2778 36.8145C14.3162 36.7478 14.3598 36.6759 14.4033 36.6065C14.4468 36.5372 14.4878 36.4653 14.5288 36.4036C14.5288 36.4036 14.5288 36.4036 14.5288 36.3908C14.5297 36.3866 14.5297 36.3822 14.5288 36.378C14.6696 36.1597 14.813 35.944 14.9615 35.7334C15.0178 35.6538 15.0742 35.5742 15.133 35.4972C15.2252 35.3739 15.3174 35.2404 15.4121 35.1274L15.4838 35.0375L15.6733 34.7961C15.7373 34.7165 15.8013 34.6394 15.8705 34.5624C15.9908 34.4186 16.1265 34.2799 16.2443 34.1438C16.3621 34.0077 16.5132 33.8536 16.654 33.715C16.7283 33.6354 16.8076 33.5532 16.887 33.4762C17.0125 33.3503 17.1431 33.2194 17.2711 33.1115C17.3991 33.0037 17.5937 32.8213 17.7627 32.6827L17.8242 32.6287C17.9599 32.5183 18.0982 32.4053 18.2364 32.2975C18.4925 32.0997 18.7485 31.9071 19.0199 31.7248C19.1864 31.6067 19.3579 31.4962 19.5321 31.3884C19.8163 31.2086 20.1056 31.0366 20.4001 30.8748C20.9188 30.5867 21.4541 30.3294 22.003 30.1044C22.012 30.108 22.0221 30.108 22.0311 30.1044C22.1873 30.0351 22.3461 29.9786 22.5074 29.9144C22.6047 29.8759 22.7046 29.8373 22.807 29.804C22.9094 29.7706 22.9401 29.7526 23.0067 29.732C23.337 29.6191 23.6776 29.5163 24.013 29.4239C24.1666 29.3802 24.3126 29.3417 24.4637 29.3058C24.5353 29.2856 24.6079 29.2693 24.6813 29.257C24.776 29.2313 24.8733 29.2108 24.9706 29.1902C26.1115 28.9427 27.2755 28.8188 28.4427 28.8204C29.496 28.8214 30.5466 28.9263 31.5794 29.1337C31.7663 29.1722 31.9532 29.2108 32.1376 29.257C32.537 29.3494 32.9339 29.4624 33.3231 29.5882C33.423 29.6191 33.528 29.6524 33.6278 29.691C33.7277 29.7295 33.8045 29.7475 33.8839 29.7834C34.4471 29.9866 34.9977 30.2233 35.5329 30.4922C35.6788 30.5589 35.8197 30.6334 35.963 30.713C36.0527 30.7618 36.1423 30.8106 36.2191 30.8645L36.3625 30.9441C36.9303 31.2726 37.476 31.638 37.9961 32.0381C38.4852 32.4118 38.9512 32.8148 39.3916 33.245C39.4889 33.3426 39.5888 33.4402 39.6835 33.5429C41.0373 34.934 42.1002 36.5824 42.8099 38.3913L43.5653 37.6414C42.8827 36.0079 41.9276 34.5029 40.741 33.1911Z" fill="#209BBB"/>
<path opacity="0.47" d="M25.1523 29.7885C25.1113 29.6165 25.0653 29.4444 25.0166 29.2749L25.0012 29.2082C24.9552 29.0464 24.9039 28.8795 24.8502 28.7125L24.717 28.3042L24.2766 28.4095C23.5762 28.5789 22.887 28.7916 22.2128 29.0464L22.1514 29.0721C21.7289 29.2338 21.3115 29.4136 20.9018 29.6062H20.8839C20.7405 29.6704 20.5997 29.7423 20.4614 29.8142C20.0543 30.0196 19.6574 30.2456 19.2707 30.4819C19.1863 30.5307 19.1043 30.5846 19.0147 30.6385C18.9251 30.6924 18.8559 30.7387 18.7766 30.7926L18.6844 30.8517L18.3925 31.052C18.0886 31.266 17.7899 31.4885 17.4963 31.7196C17.0525 32.0706 16.6257 32.4447 16.216 32.8418C15.6602 33.3808 15.141 33.9565 14.6618 34.565C14.5517 34.7113 14.439 34.8577 14.334 35.0067C14.1727 35.2198 14.0216 35.4406 13.8757 35.6615C13.7297 35.8823 13.5735 36.1314 13.4302 36.3728C13.3943 36.4344 13.3559 36.4986 13.3252 36.5603C13.1254 36.8992 12.9437 37.2434 12.7772 37.5875C12.7388 37.6696 12.7004 37.7493 12.6646 37.8314L12.8028 37.9624L13.402 38.5273C13.5018 38.2988 13.6068 38.0677 13.7221 37.8494C13.8014 37.6748 13.8911 37.5053 13.9781 37.3358L14.0344 37.2305C14.0728 37.1637 14.1061 37.0893 14.1497 37.0225C14.1932 36.9557 14.2316 36.8813 14.27 36.8145C14.3084 36.7477 14.3519 36.6758 14.3955 36.6065C14.439 36.5372 14.48 36.4653 14.5209 36.4036C14.5219 36.3994 14.5219 36.395 14.5209 36.3908C14.6618 36.1725 14.8052 35.9568 14.9537 35.7462C15.01 35.6666 15.0663 35.587 15.1252 35.51C15.2174 35.3867 15.3096 35.2532 15.4043 35.1402L15.476 35.0503L15.6655 34.8089C15.7346 34.7319 15.8012 34.6574 15.8652 34.5804C15.9856 34.4366 16.1213 34.2953 16.2391 34.1592C16.3569 34.0231 16.5182 33.8613 16.6616 33.7201C16.7358 33.6431 16.8126 33.5686 16.8869 33.4967C17.0149 33.3683 17.1429 33.2399 17.2735 33.132C17.4041 33.0242 17.6013 32.8393 17.7703 32.7032C17.9393 32.5671 18.0878 32.4464 18.2465 32.318C18.5026 32.1202 18.7586 31.9302 19.0147 31.7505C19.1837 31.6323 19.3578 31.5219 19.5268 31.4115C19.7829 31.2369 20.0722 31.0725 20.3513 30.9184H20.3667L20.4332 30.885C20.4332 30.885 20.4486 30.8696 20.4537 30.8696L20.5766 30.8029C20.7559 30.7053 20.9351 30.6154 21.1143 30.5281C21.1143 30.5281 21.1271 30.5281 21.1297 30.5281C21.4062 30.3894 21.6956 30.2559 21.9824 30.1326C21.9914 30.1362 22.0015 30.1362 22.0105 30.1326C22.1667 30.0633 22.3255 30.0068 22.4868 29.9426C22.5841 29.9041 22.6839 29.8656 22.7864 29.8322C22.8888 29.7988 22.9195 29.7808 22.9861 29.7603C23.3164 29.6473 23.657 29.5446 23.9924 29.4521C24.0282 29.5779 24.0641 29.7089 24.0948 29.8322C24.3813 30.9528 24.5343 32.1036 24.5506 33.2604C24.5506 33.5763 24.5506 33.8921 24.5301 34.208C24.4178 36.5309 23.7748 38.7968 22.6507 40.8308C22.5764 40.9746 22.497 41.1107 22.4151 41.2494C22.3818 41.3008 22.3536 41.3547 22.3204 41.406C22.2871 41.4574 22.2128 41.5781 22.159 41.6628C22.0643 41.8118 21.967 41.9633 21.862 42.1097C21.2485 43.0155 20.5394 43.8524 19.747 44.6057L19.8622 44.7162L20.4512 45.2734C21.0355 44.7084 21.5772 44.1006 22.072 43.4553C22.406 43.0264 22.7179 42.5807 23.0066 42.1199C23.0936 41.9813 23.179 41.8426 23.2626 41.7039C23.3471 41.5678 23.4265 41.4266 23.5033 41.2879C24.6729 39.1701 25.3561 36.8171 25.5031 34.4006C25.5236 34.0847 25.5338 33.7638 25.5287 33.4453C25.5513 32.2156 25.4249 30.9877 25.1523 29.7885Z" fill="#209BBB"/>
<path opacity="0.47" d="M38.6771 40.3557C38.3852 40.515 38.0984 40.6896 37.8167 40.8693C35.7083 42.2208 33.9202 44.0185 32.5778 46.1363C32.4933 46.2724 32.4088 46.4085 32.3218 46.5446C32.2347 46.6807 32.1579 46.8245 32.0811 46.9657C31.4551 48.0944 30.9668 49.2946 30.6267 50.5403L32.163 49.0201C32.3888 48.4769 32.6453 47.947 32.9312 47.4331C33.008 47.2867 33.09 47.148 33.1719 47.0119C33.2538 46.8758 33.3383 46.7346 33.4279 46.6011C34.5348 44.8571 35.9646 43.3421 37.64 42.1379C37.9268 41.9325 38.2213 41.7347 38.5209 41.5473C38.8204 41.3598 39.0816 41.2083 39.3684 41.0465L39.5067 40.9721C39.9855 40.7153 40.4797 40.4867 40.9841 40.2761L42.5332 38.7354C41.1865 39.115 39.8914 39.6592 38.6771 40.3557Z" fill="#209BBB"/>
<path opacity="0.47" d="M36.6698 30.5358L36.4163 30.957L33.2284 36.3651L32.7393 37.1997L28.6962 44.046L28.2097 44.8754L25.3009 49.8034L24.584 49.1228L27.3622 44.4183L27.8538 43.5889L31.8943 36.7401L32.3885 35.908L35.5738 30.505L35.8248 30.0813L36.6698 30.5358Z" fill="#209BBB"/>
<path opacity="0.47" d="M33.423 46.5908L34.1937 47.0068L33.4768 47.7181L32.9314 47.4228L32.0864 46.9683L28.2097 44.8754L27.3622 44.4183L23.0605 42.102L22.2104 41.6474L14.0704 37.2588L14.055 37.2511L13.6172 37.0148L14.1139 36.1879L14.539 36.4165L14.5415 36.4216L14.562 36.4242L22.702 40.8154L23.5521 41.2725L27.8538 43.5888L28.6962 44.0459L32.578 46.1337L33.423 46.5908Z" fill="#209BBB"/>
<path opacity="0.47" d="M39.3632 41.0466L39.3325 41.0158C39.1225 40.7923 38.8972 40.5715 38.677 40.3558C37.3497 39.0859 35.8903 37.9624 34.3241 37.0046C33.9682 36.7863 33.6071 36.5732 33.2359 36.3677C33.1027 36.283 32.9593 36.2085 32.8159 36.1289C32.6725 36.0493 32.5752 36.0005 32.46 35.944L32.3934 35.9106L31.9044 35.6538C31.2566 35.3354 30.6036 35.0401 29.9507 34.773C29.8252 34.7217 29.6946 34.6729 29.5666 34.6241C28.7287 34.2956 27.874 34.0118 27.0061 33.7741C26.5264 33.6405 26.0501 33.5233 25.5773 33.4223C25.2495 33.3529 24.9243 33.2836 24.6017 33.2374C23.4672 33.0372 22.3174 32.9366 21.1655 32.9369C19.9944 32.9329 18.828 33.0832 17.6959 33.3837C17.4655 33.4454 17.2402 33.5173 17.0251 33.5943C16.9124 33.6328 16.8049 33.6713 16.6948 33.7176H16.6794C16.0308 33.9712 15.422 34.3171 14.8717 34.7448L14.7359 34.8526C14.6386 34.9322 14.549 35.0144 14.4594 35.1094C14.2776 35.2837 14.1066 35.4689 13.9473 35.6641C13.7593 35.8881 13.5881 36.1259 13.4352 36.3754C13.3993 36.4371 13.3609 36.5013 13.3302 36.5629C13.1538 36.8895 13.0122 37.2338 12.9077 37.5901C12.8693 37.7159 12.836 37.8469 12.8079 37.9701L13.407 38.5351L13.6631 38.7739C13.7082 38.2762 13.8327 37.7889 14.0318 37.3307C14.0422 37.3027 14.0542 37.2752 14.0676 37.2485L14.1675 37.0303C14.2059 36.9584 14.2494 36.889 14.2879 36.8223C14.3263 36.7555 14.3698 36.6836 14.4133 36.6142L14.5593 36.4139C14.7319 36.1808 14.9256 35.9642 15.138 35.7668L15.3633 35.5717C15.3777 35.5584 15.3931 35.5464 15.4094 35.5357C15.6965 35.3022 16.0052 35.0967 16.3312 34.922C17.7676 34.1387 19.6599 33.7972 21.8133 33.8716C22.7426 33.9097 23.6678 34.017 24.5812 34.1926C24.9013 34.2491 25.2239 34.3108 25.5517 34.3852C25.9434 34.4751 26.3403 34.5778 26.7398 34.6857C27.4721 34.8963 28.2172 35.1428 28.9598 35.4278C29.1953 35.5177 29.4335 35.6102 29.6665 35.7078C30.3168 35.9646 30.9698 36.2753 31.6176 36.5988L31.8737 36.7247L31.9069 36.7426C32.0452 36.8094 32.1886 36.8839 32.3294 36.9635C32.4703 37.0431 32.6188 37.115 32.7468 37.1972C33.0899 37.3872 33.4177 37.5798 33.7428 37.7801C35.2052 38.6652 36.5737 39.6978 37.8269 40.8617C38.0343 41.044 38.2289 41.2315 38.4158 41.4266C38.4542 41.4626 38.4901 41.5011 38.5259 41.5396C38.7205 41.7374 38.9151 41.9402 39.0969 42.1431L39.7729 41.4729C39.6347 41.3445 39.5015 41.1904 39.3632 41.0466Z" fill="#209BBB"/>
</g>
<path d="M29.3233 46.7372C29.3146 46.7046 29.2968 46.6752 29.272 46.6524L29.1901 46.7372L29.1645 46.7141C29.1479 46.6994 29.1299 46.6865 29.1107 46.6755C29.0889 46.6646 29.0656 46.6568 29.0416 46.6524C29.0317 46.6475 29.0207 46.6449 29.0096 46.6449C28.9985 46.6449 28.9875 46.6475 28.9776 46.6524L28.6345 46.9914L28.5653 46.9298L27.559 45.9719L27.1698 45.6021C27.1579 45.5909 27.1438 45.5821 27.1284 45.5763C27.113 45.5706 27.0966 45.568 27.0802 45.5688C27.0354 45.5738 26.9941 45.5958 26.965 45.6304L26.8805 45.7126C26.8242 45.7691 26.7755 45.8256 26.7269 45.8718C26.69 45.9153 26.6566 45.9617 26.627 46.0104C26.6256 46.0189 26.6256 46.0276 26.627 46.0361L26.6091 46.0875C26.6065 46.1036 26.6065 46.1201 26.6091 46.1363C26.6191 46.182 26.6433 46.2234 26.6782 46.2544C26.701 46.2762 26.7294 46.2913 26.7602 46.2981C26.7897 46.3044 26.8202 46.3044 26.8498 46.2981C26.882 46.2881 26.913 46.2743 26.942 46.257C26.9746 46.2366 27.0055 46.2134 27.0341 46.1876L27.2543 46.3956L27.3004 46.4393L28.276 47.3689L27.9098 47.7053C27.8894 47.7242 27.8729 47.7468 27.8612 47.7721C27.8444 47.7952 27.8354 47.8231 27.8356 47.8517C27.8294 47.8796 27.8294 47.9085 27.8356 47.9364C27.8464 47.9665 27.8639 47.9937 27.8868 48.016C27.9114 48.0385 27.9401 48.0559 27.9713 48.0674C28.0008 48.0738 28.0314 48.0738 28.0609 48.0674C28.09 48.0643 28.118 48.0546 28.1428 48.0391C28.1663 48.0249 28.1879 48.0076 28.2069 47.9878L28.2401 47.9544L29.249 46.9555C29.2632 46.9368 29.2761 46.917 29.2874 46.8964C29.2997 46.8723 29.3075 46.8462 29.3105 46.8194C29.3226 46.7938 29.327 46.7652 29.3233 46.7372Z" fill="#666666"/>
<path d="M31.2616 44.8112C31.2495 44.7797 31.2302 44.7516 31.2053 44.729C31.1786 44.7087 31.1481 44.6939 31.1157 44.6853C31.0854 44.6776 31.0537 44.6776 31.0235 44.6853C30.9936 44.6913 30.965 44.7026 30.939 44.7187C30.9102 44.7349 30.8842 44.7557 30.8622 44.7804L30.5831 45.0551L29.9583 45.6843L29.7893 45.5225C29.7282 45.4706 29.677 45.4079 29.6382 45.3376C29.6275 45.312 29.6219 45.2845 29.6219 45.2567C29.6219 45.2289 29.6275 45.2014 29.6382 45.1758C29.6656 45.1075 29.7065 45.0454 29.7586 44.9935C29.8334 44.9038 29.9129 44.8181 29.9967 44.7367C30.0907 44.6433 30.1763 44.5419 30.2528 44.4337C30.3055 44.3493 30.3363 44.2531 30.3424 44.1538C30.3445 44.0633 30.3205 43.9741 30.2733 43.897C30.2104 43.7915 30.1318 43.6962 30.0403 43.6145C29.9558 43.5331 29.8579 43.467 29.7509 43.4193C29.7136 43.4057 29.675 43.3962 29.6357 43.3911C29.6026 43.386 29.5689 43.386 29.5358 43.3911C29.5112 43.3875 29.4862 43.3875 29.4616 43.3911C29.3448 43.4117 29.2344 43.4592 29.1389 43.5297C29.0688 43.5762 29.002 43.6277 28.9392 43.6838C28.8779 43.7341 28.8198 43.7882 28.7651 43.8456C28.7139 43.897 28.6652 43.9458 28.6192 43.9971C28.5731 44.0485 28.5526 44.0716 28.5244 44.1075C28.4581 44.1822 28.3989 44.2631 28.3477 44.3489C28.3099 44.4147 28.2847 44.487 28.2735 44.5621C28.2677 44.5906 28.2692 44.6201 28.2777 44.6479C28.2862 44.6757 28.3014 44.7009 28.3221 44.7213C28.362 44.7607 28.4147 44.7844 28.4706 44.7881C28.5273 44.7867 28.5813 44.7638 28.6217 44.7239C28.6559 44.6923 28.683 44.6538 28.7011 44.6109C28.716 44.5685 28.7357 44.528 28.76 44.4902C28.7847 44.433 28.8184 44.3801 28.8598 44.3335C28.8952 44.2896 28.9328 44.2476 28.9725 44.2077C28.9891 44.1876 29.0071 44.1687 29.0263 44.1512C29.0924 44.0843 29.1634 44.0225 29.2388 43.9663C29.2881 43.9293 29.3436 43.9014 29.4027 43.8841C29.4239 43.8814 29.4454 43.8814 29.4667 43.8841C29.4918 43.8836 29.5165 43.8898 29.5384 43.9021C29.5888 43.9279 29.6354 43.9608 29.6767 43.9997C29.7167 44.0328 29.7505 44.0728 29.7765 44.1178C29.7973 44.1517 29.808 44.191 29.8072 44.2308C29.8004 44.2706 29.7865 44.3089 29.7663 44.3438C29.7339 44.3909 29.697 44.4348 29.6562 44.4748L29.5922 44.539L29.395 44.7444C29.3131 44.8266 29.2409 44.9179 29.1799 45.0166C29.1297 45.0943 29.0965 45.1819 29.0826 45.2734C29.08 45.2982 29.08 45.3231 29.0826 45.3479C29.0882 45.416 29.1074 45.4824 29.1389 45.543C29.1919 45.6487 29.265 45.7429 29.354 45.8204L29.7304 46.1773C29.7511 46.1994 29.7762 46.2169 29.8039 46.2288C29.8317 46.2407 29.8616 46.2468 29.8917 46.2467C29.9698 46.2313 30.0403 46.1896 30.0915 46.1285L30.2451 45.9745L30.9595 45.2657L31.1567 45.0705C31.1817 45.0463 31.2032 45.0186 31.2207 44.9884C31.2369 44.9612 31.249 44.9318 31.2565 44.901C31.2655 44.872 31.2672 44.8411 31.2616 44.8112Z" fill="#666666"/>
<path d="M33.0309 42.6926C32.968 42.5827 32.8875 42.4838 32.7928 42.3999C32.7376 42.3451 32.6786 42.2945 32.6161 42.2484C32.5717 42.2174 32.5256 42.1891 32.4778 42.1636C32.4432 42.1488 32.4072 42.1376 32.3703 42.1302C32.3415 42.1252 32.312 42.1252 32.2832 42.1302C32.2804 42.0957 32.2753 42.0614 32.2679 42.0275C32.2576 41.9879 32.2421 41.9499 32.2218 41.9145C32.1944 41.8709 32.1644 41.8288 32.1321 41.7887C32.0889 41.7372 32.0427 41.6884 31.9939 41.6423C31.9055 41.5558 31.8034 41.4847 31.6917 41.4317C31.6018 41.3942 31.5026 41.3853 31.4075 41.4061C31.2955 41.4341 31.1908 41.4857 31.1002 41.5576C30.969 41.6526 30.8457 41.7582 30.7315 41.8734C30.6391 41.9673 30.5536 42.0677 30.4755 42.1739C30.4176 42.2478 30.3694 42.329 30.3321 42.4153C30.3093 42.4767 30.3006 42.5426 30.3065 42.6079C30.3155 42.6629 30.3394 42.7144 30.3756 42.7568C30.3949 42.7744 30.4176 42.7878 30.4422 42.7962C30.4669 42.8046 30.493 42.8078 30.519 42.8056C30.5787 42.801 30.6348 42.7755 30.6778 42.7337V42.7183C30.7093 42.686 30.7353 42.6487 30.7546 42.6079C30.7609 42.5885 30.766 42.5688 30.7699 42.5488C30.7747 42.5265 30.7825 42.5049 30.793 42.4846C30.8115 42.4253 30.843 42.3709 30.8852 42.3254C30.9297 42.2663 30.9785 42.2105 31.0311 42.1585L31.049 42.1431C31.1099 42.0804 31.1759 42.0228 31.2462 41.971C31.2902 41.939 31.3411 41.9179 31.3947 41.9094C31.4408 41.9041 31.4873 41.916 31.5253 41.9428C31.5717 41.975 31.6154 42.0111 31.6559 42.0506C31.6929 42.084 31.7256 42.122 31.7532 42.1636C31.7728 42.1907 31.7843 42.2227 31.7865 42.2561C31.7889 42.2858 31.7817 42.3155 31.766 42.3408C31.7479 42.372 31.7255 42.4006 31.6994 42.4255L31.3281 42.7928C31.2853 42.8349 31.2551 42.8883 31.2411 42.9468C31.2347 42.9775 31.2374 43.0094 31.2488 43.0385C31.2601 43.0677 31.2797 43.093 31.3051 43.1112C31.3286 43.1374 31.3587 43.1569 31.3922 43.1677C31.4201 43.1729 31.4487 43.1729 31.4766 43.1677C31.5046 43.1606 31.5314 43.1493 31.556 43.1343C31.5802 43.116 31.6033 43.0963 31.6252 43.0752L32.022 42.69C32.0418 42.6638 32.068 42.6432 32.098 42.6301C32.1281 42.6171 32.161 42.6121 32.1936 42.6156C32.2766 42.6413 32.3509 42.6892 32.4087 42.7542C32.4522 42.792 32.4886 42.8372 32.5162 42.8878C32.5416 42.9283 32.5524 42.9763 32.547 43.0239C32.5381 43.08 32.5171 43.1334 32.4855 43.1805C32.4365 43.2509 32.3817 43.317 32.3216 43.3783L32.296 43.4014C32.245 43.4549 32.1903 43.5047 32.1321 43.5503C32.099 43.58 32.0639 43.6075 32.0272 43.6325C32.0023 43.6492 31.9757 43.663 31.9478 43.6736C31.9263 43.682 31.904 43.688 31.8812 43.6916H31.8402H31.7993L31.7455 43.7172L31.6815 43.7737C31.6412 43.8123 31.6166 43.8644 31.6124 43.9201C31.6095 43.9496 31.6136 43.9794 31.6243 44.007C31.6349 44.0347 31.6519 44.0594 31.6738 44.0793C31.714 44.1152 31.7639 44.1385 31.8172 44.1461C31.8698 44.1521 31.923 44.1469 31.9734 44.1307C32.03 44.1114 32.0841 44.0855 32.1347 44.0536C32.1901 44.0196 32.2431 43.9818 32.2935 43.9407C32.3472 43.8996 32.3959 43.8585 32.4445 43.8148C32.4932 43.7712 32.5316 43.7275 32.5674 43.6916L32.5905 43.6659C32.7175 43.5464 32.8316 43.4138 32.931 43.2704C33.0037 43.1755 33.0529 43.0646 33.0744 42.9468C33.0861 42.8596 33.0709 42.7709 33.0309 42.6926Z" fill="#666666"/>
<path d="M35.0795 41.026C35.0692 41.0048 35.0563 40.985 35.0411 40.9669L34.4138 40.3763L34.4727 40.3146C34.5163 40.2714 34.5458 40.2159 34.5572 40.1554C34.5594 40.1248 34.5548 40.0941 34.5436 40.0656C34.5324 40.037 34.5151 40.0114 34.4927 39.9904C34.4704 39.9695 34.4436 39.9538 34.4145 39.9446C34.3853 39.9354 34.3545 39.9329 34.3242 39.9371C34.2632 39.9526 34.208 39.9856 34.1654 40.0322L34.1245 40.081L33.4638 39.4595C33.443 39.4399 33.4184 39.4248 33.3916 39.4151C33.3647 39.4054 33.3362 39.4013 33.3077 39.403C33.2361 39.4109 33.1702 39.4458 33.1233 39.5006C33.0973 39.5215 33.0759 39.5476 33.0605 39.5772C33.0451 39.6068 33.0359 39.6393 33.0337 39.6726C33.0334 39.7008 33.0392 39.7287 33.0507 39.7544C33.0622 39.7801 33.0791 39.8031 33.1003 39.8216L33.7557 40.4456L33.2949 40.9027L32.647 40.2864C32.6254 40.2645 32.5994 40.2475 32.5707 40.2364C32.542 40.2253 32.5113 40.2205 32.4806 40.2222C32.409 40.2301 32.3432 40.265 32.2962 40.3198C32.2659 40.3464 32.2422 40.3798 32.2271 40.4174C32.2225 40.448 32.2225 40.4792 32.2271 40.5098C32.2294 40.5382 32.2363 40.5659 32.2476 40.592C32.2617 40.6149 32.278 40.6364 32.2962 40.6562L33.1489 41.46C33.1739 41.4871 33.2073 41.5052 33.2436 41.5113C33.2692 41.5113 33.3051 41.4882 33.3512 41.442L34.0656 40.7358L34.6929 41.329C34.7116 41.3444 34.7323 41.3574 34.7544 41.3675C34.7814 41.3727 34.8092 41.3727 34.8363 41.3675C34.8698 41.3676 34.903 41.3606 34.9336 41.347C34.969 41.3305 35.0018 41.3089 35.0309 41.2828C35.0597 41.2528 35.083 41.218 35.1 41.1801C35.1121 41.1508 35.1182 41.1193 35.1179 41.0876C35.107 41.0659 35.0942 41.0453 35.0795 41.026Z" fill="#666666"/>
<path d="M38.3697 37.3846C38.3088 37.2754 38.2301 37.1773 38.1367 37.0944C38.0504 37.0076 37.9531 36.9324 37.8473 36.871C37.7703 36.8241 37.6813 36.8009 37.5913 36.8042C37.4999 36.809 37.4115 36.8383 37.3352 36.889C37.2309 36.9544 37.1346 37.032 37.0484 37.1201L36.5645 37.6029L36.1036 37.1561L36.8308 36.4345C36.859 36.4088 36.8846 36.3805 36.9102 36.3523C36.9314 36.3292 36.948 36.3022 36.9588 36.2727C36.9679 36.2434 36.9679 36.2121 36.9588 36.1828C36.9425 36.1472 36.9209 36.1143 36.8948 36.0852C36.8826 36.0703 36.8674 36.0583 36.8502 36.0499C36.8329 36.0414 36.8141 36.0369 36.7949 36.0364C36.7623 36.0273 36.7277 36.0273 36.6951 36.0364C36.6628 36.0466 36.6325 36.0622 36.6055 36.0826C36.5795 36.1006 36.5554 36.1212 36.5338 36.1443L36.4544 36.2187L36.3084 36.3677C36.2495 36.4216 36.1881 36.4858 36.1215 36.5526L35.9295 36.7477C35.868 36.8068 35.8117 36.8659 35.763 36.9147C35.7144 36.9635 35.676 36.9994 35.6504 37.0225C35.5875 37.0714 35.5447 37.1418 35.53 37.2202C35.5317 37.2498 35.5394 37.2787 35.5526 37.3052C35.5658 37.3317 35.5843 37.3552 35.6068 37.3743L36.3008 38.0317C36.3376 38.0681 36.3779 38.1008 36.4211 38.1293C36.4522 38.15 36.4888 38.1607 36.5261 38.1601C36.5632 38.1525 36.5982 38.1367 36.6285 38.1139C36.6772 38.0778 36.7226 38.0374 36.7642 37.9932L37.389 37.3769C37.4089 37.3503 37.4356 37.3296 37.4662 37.317C37.4968 37.3043 37.5303 37.3002 37.5631 37.305C37.644 37.332 37.7164 37.3798 37.7731 37.4437C37.8156 37.4811 37.8527 37.5243 37.8832 37.5721C37.9078 37.6128 37.9178 37.6609 37.9113 37.7082C37.9062 37.7644 37.8849 37.818 37.8499 37.8622C37.805 37.9349 37.7507 38.0014 37.6886 38.06C37.6143 38.1319 37.5529 38.1909 37.5042 38.232C37.4637 38.265 37.4209 38.295 37.3762 38.3219C37.3498 38.3401 37.3203 38.3532 37.2891 38.3604L37.2174 38.3784C37.1924 38.3846 37.1683 38.3941 37.1457 38.4067C37.1121 38.4258 37.0804 38.4482 37.051 38.4734C37.0113 38.5132 36.9876 38.5662 36.9844 38.6224C36.9812 38.6505 36.9849 38.679 36.9952 38.7054C37.0055 38.7318 37.022 38.7553 37.0433 38.7739C37.0709 38.7996 37.1037 38.8189 37.1396 38.8305C37.1754 38.842 37.2134 38.8455 37.2507 38.8406C37.3291 38.8342 37.4052 38.8106 37.4735 38.7713C37.5515 38.7272 37.6245 38.6747 37.6911 38.6147L37.8832 38.44L37.96 38.3604C38.0857 38.2406 38.1997 38.109 38.3005 37.9675C38.3706 37.873 38.4195 37.7644 38.4439 37.6491C38.4492 37.5551 38.423 37.462 38.3697 37.3846Z" fill="#666666"/>
<path d="M40.3669 35.3482C40.3115 35.2478 40.2406 35.1568 40.1569 35.0785C40.0728 34.9964 39.977 34.9272 39.8727 34.8731C39.7829 34.825 39.6826 34.8002 39.5808 34.8012C39.4737 34.8056 39.3693 34.8355 39.2761 34.8885C39.1514 34.9569 39.0375 35.0434 38.9381 35.1453C38.8804 35.1987 38.8257 35.2553 38.7742 35.3148C38.7076 35.3816 38.6385 35.4637 38.5591 35.5716L37.96 34.9964C37.9392 34.9766 37.9146 34.9612 37.8878 34.951C37.861 34.9409 37.8324 34.9362 37.8038 34.9373C37.734 34.945 37.6694 34.9778 37.622 35.0298C37.5915 35.0579 37.5671 35.092 37.5503 35.1299C37.5378 35.1592 37.5308 35.1905 37.5298 35.2224C37.5297 35.2496 37.5349 35.2767 37.5452 35.302C37.5578 35.3244 37.5733 35.3451 37.5912 35.3636L38.8075 36.514C38.89 36.5985 38.992 36.6611 39.1045 36.6964C39.2038 36.7208 39.3074 36.7208 39.4067 36.6964C39.5166 36.6732 39.621 36.6287 39.7139 36.5654C39.8253 36.4902 39.9291 36.4042 40.0238 36.3086C40.137 36.1982 40.2359 36.074 40.3182 35.9388C40.3785 35.8424 40.4161 35.7335 40.4283 35.6204C40.4318 35.5258 40.4106 35.432 40.3669 35.3482ZM39.8701 35.8618C39.8253 35.9191 39.7766 35.9732 39.7242 36.0236C39.6721 36.0786 39.6126 36.1262 39.5475 36.1648C39.5024 36.1947 39.4504 36.2124 39.3964 36.2162C39.3451 36.2186 39.294 36.208 39.2479 36.1853C39.1948 36.1548 39.1458 36.1177 39.102 36.0749L38.8459 35.8489C38.869 35.8207 38.8843 35.795 38.8997 35.777C38.9152 35.753 38.9332 35.7306 38.9534 35.7103L39.0303 35.6307C39.0661 35.5973 39.1071 35.5536 39.1583 35.4997C39.2142 35.4448 39.2741 35.3941 39.3375 35.3482C39.3801 35.3144 39.4302 35.2915 39.4835 35.2814C39.5303 35.2752 39.5779 35.2842 39.6192 35.3071C39.6771 35.3359 39.7299 35.374 39.7754 35.4201C39.8253 35.4645 39.8669 35.5176 39.8983 35.5767C39.921 35.6219 39.9299 35.6729 39.9239 35.7231C39.9153 35.7741 39.8971 35.8229 39.8701 35.8669V35.8618Z" fill="#666666"/>
<path d="M42.1951 33.8536L40.7356 32.4721C40.694 32.4314 40.6475 32.396 40.5973 32.3668C40.5607 32.3434 40.5176 32.3326 40.4744 32.336C40.4244 32.3415 40.3767 32.3601 40.3361 32.3899C40.2747 32.4354 40.2173 32.4861 40.1646 32.5414L40.1364 32.5671L39.445 33.2579L39.2274 33.4736C39.1823 33.5147 39.1526 33.5699 39.1429 33.6302C39.1376 33.6594 39.14 33.6894 39.1499 33.7174C39.1598 33.7453 39.1768 33.7702 39.1992 33.7894C39.2203 33.8132 39.2473 33.831 39.2774 33.8409C39.3075 33.8509 39.3398 33.8526 39.3708 33.8459C39.4321 33.8322 39.4881 33.801 39.5321 33.7561L39.7369 33.5558L40.4155 32.8804L40.7202 33.1706L40.7407 33.1911L41.8289 34.2183C41.8501 34.2395 41.8753 34.2563 41.9029 34.2678C41.9306 34.2792 41.9603 34.2851 41.9902 34.2851C42.061 34.277 42.1261 34.2421 42.172 34.1875C42.2228 34.143 42.2541 34.0803 42.2591 34.0129C42.261 33.9832 42.2563 33.9535 42.2452 33.9259C42.2341 33.8984 42.217 33.8737 42.1951 33.8536Z" fill="#666666"/>
<path d="M44.0796 31.7196C44.0176 31.6113 43.938 31.5141 43.844 31.432C43.7557 31.3468 43.6587 31.2711 43.5547 31.2061C43.4767 31.1619 43.3882 31.1397 43.2987 31.1419C43.2073 31.1467 43.1189 31.1759 43.0426 31.2266C42.9393 31.2923 42.8439 31.3699 42.7584 31.4577L42.2719 31.9431L41.8007 31.4962L42.5305 30.7721L42.6073 30.6925C42.6278 30.6678 42.6442 30.6401 42.656 30.6103C42.665 30.5819 42.665 30.5514 42.656 30.523C42.6392 30.4871 42.6167 30.4541 42.5894 30.4254C42.5645 30.3966 42.5298 30.3783 42.4921 30.374C42.4578 30.364 42.4214 30.364 42.3871 30.374C42.3556 30.3849 42.3255 30.3995 42.2975 30.4177L42.2283 30.4767L42.1515 30.5538L42.0005 30.7027C41.9441 30.7592 41.8801 30.8209 41.8161 30.8902L41.6215 31.0854L41.4551 31.2471L41.345 31.3601C41.2829 31.4098 41.2403 31.4798 41.2246 31.5579C41.2257 31.5872 41.2332 31.6159 41.2464 31.6421C41.2597 31.6682 41.2785 31.6912 41.3014 31.7094L41.9953 32.3693C42.0315 32.4058 42.0719 32.4377 42.1157 32.4644C42.1447 32.4873 42.1813 32.4983 42.2181 32.4952C42.2561 32.4894 42.2922 32.4744 42.3231 32.4515C42.3712 32.4147 42.4166 32.3743 42.4588 32.3308L43.0836 31.7119C43.104 31.686 43.1307 31.6657 43.1612 31.6531C43.1917 31.6405 43.2249 31.636 43.2577 31.64C43.3383 31.6691 43.4111 31.7165 43.4702 31.7787C43.5114 31.817 43.5468 31.8611 43.5752 31.9097C43.5999 31.9496 43.6115 31.9963 43.6085 32.0432C43.6016 32.1003 43.5795 32.1544 43.5445 32.1999C43.4994 32.2717 43.4452 32.3373 43.3831 32.395C43.3254 32.4564 43.2629 32.513 43.1962 32.5645C43.157 32.6005 43.114 32.6324 43.0682 32.6595C43.0415 32.6772 43.0121 32.6902 42.9811 32.698C42.9586 32.7014 42.9363 32.7065 42.9146 32.7135C42.8889 32.7213 42.864 32.7316 42.8403 32.7443C42.8046 32.76 42.7724 32.7827 42.7456 32.811C42.7043 32.8499 42.6795 32.9033 42.6764 32.96C42.673 32.9879 42.6763 33.0163 42.6861 33.0427C42.6959 33.0691 42.7119 33.0927 42.7328 33.1115C42.7615 33.1362 42.7949 33.1548 42.831 33.1663C42.867 33.1778 42.9051 33.1818 42.9427 33.1783C43.0217 33.1711 43.098 33.1456 43.1655 33.1038C43.2436 33.0619 43.3167 33.011 43.3831 32.9523C43.4497 32.8881 43.5163 32.8316 43.5726 32.7751L43.652 32.6955C43.7769 32.5758 43.8908 32.4451 43.9926 32.3051C44.0627 32.211 44.1109 32.1021 44.1334 31.9867C44.1443 31.8942 44.1255 31.8006 44.0796 31.7196Z" fill="#666666"/>
<path d="M47.4135 28.4069C47.3586 28.3242 47.2941 28.2484 47.2214 28.181C47.1497 28.1142 47.0883 28.0577 47.0447 28.0217C47.0056 27.9867 46.9579 27.9628 46.9065 27.9524C46.8565 27.9366 46.8029 27.9366 46.7528 27.9524C46.6759 27.9734 46.6006 28 46.5275 28.032C46.5605 27.9647 46.5887 27.8952 46.612 27.824C46.6262 27.7763 46.6262 27.7254 46.612 27.6776C46.596 27.625 46.5669 27.5773 46.5275 27.539C46.484 27.4927 46.4251 27.4337 46.3457 27.3592C46.2642 27.2785 46.1688 27.2133 46.0641 27.1666C45.9744 27.1317 45.8768 27.1228 45.7824 27.1409C45.6713 27.1648 45.5666 27.2121 45.4751 27.2796C45.3467 27.3695 45.2267 27.4709 45.1167 27.5826C45.005 27.689 44.9038 27.806 44.8145 27.9319C44.7502 28.0197 44.7056 28.1204 44.6839 28.2272C44.6673 28.3194 44.6798 28.4146 44.7198 28.4994C44.7755 28.6017 44.8483 28.6938 44.9349 28.7716C45.0117 28.8461 45.0783 28.9026 45.1269 28.9436C45.1661 28.9796 45.2136 29.0052 45.2652 29.0181C45.3161 29.0333 45.3704 29.0333 45.4214 29.0181C45.4972 28.9925 45.5708 28.9607 45.6416 28.9231C45.6057 29.0233 45.5827 29.1054 45.5673 29.1645C45.5625 29.2011 45.5625 29.2383 45.5673 29.2749C45.5662 29.2903 45.5662 29.3058 45.5673 29.3211C45.5832 29.368 45.6075 29.4115 45.639 29.4495C45.6774 29.4906 45.7286 29.5394 45.7926 29.5985C45.8623 29.666 45.9407 29.7238 46.0257 29.7705C46.071 29.796 46.1204 29.8134 46.1716 29.8219C46.2099 29.8258 46.2485 29.8258 46.2868 29.8219H46.3073C46.4132 29.8059 46.515 29.7693 46.6069 29.714C46.7528 29.6261 46.8862 29.519 47.0038 29.3956L47.1036 29.2929C47.1933 29.1982 47.2747 29.0959 47.3469 28.9873C47.4098 28.8923 47.4509 28.7844 47.4672 28.6714C47.4768 28.5798 47.458 28.4875 47.4135 28.4069ZM45.5392 28.543C45.5012 28.5461 45.4633 28.5361 45.4316 28.5148C45.4009 28.4917 45.3599 28.4583 45.3113 28.4146C45.2707 28.3751 45.237 28.3291 45.2114 28.2785C45.1998 28.2392 45.1998 28.1972 45.2114 28.1578C45.2278 28.1086 45.2539 28.0632 45.2882 28.0243C45.3339 27.9702 45.3827 27.9188 45.4342 27.8702C45.4793 27.8221 45.5272 27.7767 45.5776 27.7341C45.6184 27.6994 45.6641 27.6708 45.7133 27.6494C45.7503 27.6301 45.7926 27.6238 45.8336 27.6314C45.8802 27.6425 45.9228 27.6666 45.9565 27.7007C46.0051 27.7436 46.0505 27.7899 46.0922 27.8394C46.1185 27.871 46.1322 27.9113 46.1306 27.9524C46.1256 28.0042 46.109 28.0543 46.082 28.0988C46.0382 28.1808 45.9904 28.2605 45.9386 28.3376L45.6825 28.4865C45.6374 28.5115 45.5892 28.5305 45.5392 28.543ZM46.3944 29.3134C46.3553 29.3264 46.3131 29.3264 46.274 29.3134C46.2541 29.3033 46.2353 29.2913 46.2177 29.2775L46.1639 29.2364C46.1536 29.2216 46.1442 29.2061 46.1358 29.1902C46.1188 29.1557 46.1092 29.1181 46.1076 29.0798C46.1037 29.0178 46.108 28.9556 46.1204 28.8949C46.1414 28.7979 46.1741 28.7039 46.2177 28.6149C46.3048 28.5677 46.3978 28.5323 46.4942 28.5097C46.5569 28.4931 46.6215 28.4854 46.6863 28.4865C46.7237 28.4866 46.7609 28.4926 46.7964 28.5045L46.8271 28.5199L46.8655 28.5559C46.897 28.5837 46.9223 28.6178 46.9398 28.656C46.9512 28.6928 46.9512 28.7322 46.9398 28.769C46.9278 28.8192 46.9041 28.8659 46.8706 28.9051C46.8256 28.9647 46.7768 29.0213 46.7247 29.0746C46.6504 29.1465 46.5839 29.203 46.5326 29.2441L46.4814 29.2801C46.4534 29.2929 46.4242 29.3032 46.3944 29.3109V29.3134Z" fill="#666666"/>
<path d="M49.5849 26.6402C49.574 26.6173 49.5593 26.5964 49.5414 26.5786L48.3251 25.423C48.2419 25.3394 48.1401 25.2769 48.0281 25.2406C47.929 25.2149 47.825 25.2149 47.726 25.2406C47.617 25.2643 47.5135 25.3088 47.4213 25.3716C47.1797 25.5342 46.974 25.7449 46.817 25.9905C46.753 26.0862 46.7143 26.1967 46.7043 26.3115C46.6976 26.4124 46.7198 26.5131 46.7683 26.6017L46.7965 26.6505C46.8463 26.7316 46.9075 26.8051 46.9783 26.8687C47.063 26.9504 47.1577 27.0212 47.2599 27.0793C47.3491 27.1241 47.447 27.1487 47.5467 27.1512C47.6517 27.1484 47.7545 27.1202 47.8463 27.069C47.9686 26.9994 48.0807 26.913 48.1792 26.8122L48.2278 26.7635C48.2673 26.7269 48.3049 26.6883 48.3405 26.6479L48.4173 26.5683L48.5786 26.3808L48.8628 26.6376L49.1778 26.9381C49.2184 26.977 49.2727 26.9982 49.3289 26.9971C49.3637 26.9954 49.3977 26.9865 49.429 26.971C49.4603 26.9555 49.488 26.9339 49.5107 26.9073C49.541 26.88 49.5654 26.8468 49.5823 26.8097C49.5954 26.7805 49.6032 26.7492 49.6054 26.7172C49.6052 26.6902 49.5981 26.6637 49.5849 26.6402ZM47.6338 26.6402C47.6034 26.6466 47.572 26.6466 47.5416 26.6402C47.5255 26.635 47.5101 26.6281 47.4955 26.6196C47.382 26.5595 47.2859 26.4711 47.2164 26.3628C47.194 26.3185 47.1859 26.2682 47.1934 26.219C47.2051 26.1669 47.2278 26.1179 47.2599 26.0752C47.3035 26.0185 47.3524 25.966 47.4059 25.9186C47.4566 25.8623 47.5152 25.8139 47.58 25.7748C47.6269 25.7467 47.6793 25.7292 47.7336 25.7234C47.7851 25.7221 47.8362 25.7336 47.8822 25.7568C47.9362 25.786 47.9862 25.8222 48.0307 25.8647L48.2688 26.0932C48.2369 26.1283 48.207 26.1652 48.1792 26.2036C48.1459 26.2396 48.1152 26.273 48.0896 26.3064L48.0127 26.3808L47.9667 26.4296C47.9108 26.4852 47.8518 26.5375 47.79 26.5863C47.7534 26.612 47.7127 26.6311 47.6696 26.6428L47.6338 26.6402Z" fill="#666666"/>
<path d="M51.4284 24.4856C51.3859 24.3771 51.3194 24.2796 51.2338 24.2006L50.3479 23.3686C50.2762 23.2966 50.1884 23.2429 50.0918 23.2119C49.9942 23.1888 49.8925 23.1888 49.7948 23.2119C49.6829 23.2364 49.5762 23.2807 49.4799 23.3429C49.3663 23.4173 49.2607 23.5033 49.1649 23.5997C48.9725 23.7692 48.8322 23.9901 48.7603 24.2365C48.7401 24.3332 48.7465 24.4336 48.779 24.5268C48.8115 24.62 48.8688 24.7026 48.9447 24.7655L49.8486 25.6258C49.9244 25.7024 50.0175 25.7596 50.12 25.7927C50.2175 25.8171 50.3195 25.8171 50.417 25.7927C50.5259 25.7649 50.6296 25.7198 50.7243 25.6592C50.8394 25.5847 50.9466 25.4986 51.0443 25.4024C51.1385 25.3056 51.2242 25.2007 51.3004 25.0891C51.3645 24.9961 51.4121 24.8927 51.4412 24.7835C51.4628 24.6848 51.4584 24.5821 51.4284 24.4856ZM50.9342 24.8118C50.8893 24.9238 50.8192 25.024 50.7294 25.1045C50.6482 25.1935 50.5486 25.2636 50.4375 25.3099C50.3953 25.3214 50.3507 25.3211 50.3087 25.3088C50.2667 25.2966 50.2289 25.273 50.1994 25.2406L49.3109 24.3958C49.2812 24.3694 49.2595 24.3352 49.2481 24.2971C49.2368 24.2589 49.2364 24.2184 49.2468 24.18C49.2839 24.0644 49.3521 23.9613 49.444 23.8822C49.5267 23.7873 49.6339 23.7171 49.7538 23.6793C49.7963 23.6689 49.8407 23.6696 49.8828 23.6812C49.925 23.6929 49.9634 23.7152 49.9945 23.7461L50.8651 24.5729C50.8998 24.6007 50.9251 24.6386 50.9374 24.6814C50.9498 24.7241 50.9487 24.7697 50.9342 24.8118Z" fill="#666666"/>
<path d="M53.4847 22.7677C53.4767 22.7348 53.4589 22.7052 53.4335 22.6829L53.3439 22.7702L53.3183 22.7471L53.2645 22.7086C53.2423 22.6986 53.2191 22.6909 53.1954 22.6855C53.1843 22.6827 53.1726 22.6827 53.1615 22.6854C53.1504 22.6881 53.14 22.6934 53.1314 22.7009L52.7883 23.0373L51.3211 21.6454C51.2962 21.6238 51.2644 21.6119 51.2314 21.6121C51.1861 21.6194 51.1445 21.6421 51.1137 21.6763L51.0317 21.7584C50.9754 21.8149 50.9242 21.8689 50.8807 21.9177C50.8413 21.9588 50.8069 22.0045 50.7782 22.0538C50.7564 22.092 50.7457 22.1356 50.7475 22.1796C50.758 22.2257 50.7832 22.2672 50.8192 22.2977C50.8408 22.3216 50.8696 22.3378 50.9011 22.3439C50.9307 22.3504 50.9612 22.3504 50.9908 22.3439C51.0231 22.3331 51.054 22.3184 51.0829 22.3003C51.1161 22.2804 51.1478 22.2581 51.1777 22.2335L52.417 23.4122L52.0815 23.7435C52.0606 23.7618 52.044 23.7846 52.0329 23.8103C52.016 23.8335 52.0063 23.8612 52.0047 23.8899C51.9997 23.917 51.9997 23.9449 52.0047 23.972C52.0165 24.0037 52.0358 24.0319 52.0611 24.0542C52.0842 24.078 52.1134 24.0949 52.1456 24.103C52.1741 24.1107 52.2041 24.1107 52.2326 24.103C52.2615 24.1006 52.289 24.0899 52.312 24.0722C52.3373 24.0595 52.3599 24.0421 52.3786 24.0208L53.4181 22.9936C53.4345 22.976 53.4483 22.9561 53.4591 22.9346C53.4714 22.9105 53.4792 22.8844 53.4822 22.8575C53.4898 22.8282 53.4907 22.7974 53.4847 22.7677Z" fill="#666666"/>
<path d="M16.3874 34.3852C16.3714 34.3371 16.3526 34.2899 16.3311 34.244C16.3215 34.214 16.3038 34.1873 16.2799 34.1669L16.2645 34.1541C16.2474 34.1417 16.2284 34.1321 16.2082 34.1258C16.177 34.1194 16.1447 34.1194 16.1135 34.1258C16.0808 34.128 16.0487 34.1358 16.0187 34.149C15.9874 34.1648 15.9589 34.1856 15.9342 34.2106C15.8894 34.2497 15.8595 34.3033 15.8497 34.3621C15.8388 34.4124 15.8451 34.4648 15.8677 34.511L15.8881 34.5829C15.8923 34.6153 15.8923 34.6481 15.8881 34.6805C15.8879 34.7202 15.8801 34.7594 15.8651 34.7961C15.849 34.8396 15.8237 34.879 15.7908 34.9116C15.745 34.9559 15.6923 34.9924 15.6347 35.0195C15.5905 35.0428 15.5411 35.0543 15.4913 35.0529C15.4674 35.0555 15.4434 35.0555 15.4196 35.0529C15.3167 35.0372 15.2177 35.0024 15.1277 34.9502C15.0293 34.8957 14.9374 34.8302 14.8537 34.755L14.7436 34.6548L14.718 34.6292L14.6565 34.5675C14.5085 34.4327 14.3989 34.2607 14.339 34.0694C14.3166 33.9987 14.3141 33.9231 14.3317 33.8511C14.3493 33.7791 14.3864 33.7133 14.4389 33.661C14.4761 33.6216 14.5228 33.5924 14.5746 33.5763C14.6168 33.5633 14.6611 33.5581 14.7052 33.5609C14.714 33.591 14.7288 33.6189 14.7487 33.6431L14.8562 33.7407C14.8727 33.7572 14.8931 33.7694 14.9154 33.7761C14.9378 33.7828 14.9614 33.7839 14.9843 33.7792C15.0318 33.7685 15.0753 33.7444 15.1097 33.7098L15.3274 33.4967C15.3454 33.4828 15.3603 33.4653 15.3711 33.4453C15.382 33.4253 15.3886 33.4032 15.3906 33.3805C15.3925 33.3578 15.3897 33.335 15.3823 33.3134C15.375 33.2919 15.3632 33.2721 15.3479 33.2553L15.3197 33.2271C15.3134 33.2181 15.3056 33.2103 15.2967 33.2039V33.1911C15.2815 33.1754 15.2653 33.1608 15.248 33.1475C15.2257 33.1356 15.2026 33.1254 15.1789 33.1166C15.1528 33.1105 15.1256 33.1105 15.0995 33.1166C15.0306 33.0861 14.957 33.0679 14.8819 33.0627C14.796 33.0545 14.7093 33.0614 14.6258 33.0833C14.5365 33.1016 14.4502 33.1328 14.3697 33.1757C14.2823 33.224 14.2021 33.2846 14.1316 33.3555C14.0292 33.4564 13.9467 33.5757 13.8884 33.7073C13.8884 33.7355 13.8653 33.7638 13.8576 33.7894C13.8297 33.894 13.821 34.0028 13.832 34.1104C13.8427 34.2224 13.8721 34.3318 13.9191 34.434C13.9345 34.47 13.9549 34.5059 13.9729 34.5444C14.0678 34.7198 14.1916 34.8778 14.339 35.0118C14.3738 35.0465 14.4105 35.079 14.4491 35.1094C14.6479 35.2962 14.8872 35.4343 15.1481 35.5125C15.1944 35.5246 15.2415 35.5332 15.289 35.5382C15.3265 35.5407 15.3641 35.5407 15.4016 35.5382C15.5348 35.5341 15.6659 35.5032 15.7869 35.4471C15.9078 35.3911 16.0163 35.3111 16.1058 35.2121C16.1932 35.1285 16.2667 35.0314 16.3234 34.9245C16.3304 34.913 16.3364 34.901 16.3414 34.8885C16.3775 34.7975 16.3991 34.7013 16.4054 34.6035C16.4114 34.5302 16.4054 34.4565 16.3874 34.3852Z" fill="#666666"/>
<path d="M18.6408 32.4387L18.6101 32.4104L18.5461 32.3539C18.5237 32.3378 18.4997 32.324 18.4744 32.3128C18.4501 32.3063 18.4245 32.3063 18.4002 32.3128C18.3709 32.3171 18.343 32.3276 18.3182 32.3436H18.2798H18.2619L17.4476 32.0997L17.463 32.0509C17.4786 32.0038 17.4914 31.9557 17.5014 31.9071C17.5117 31.8502 17.5117 31.7919 17.5014 31.735C17.4899 31.6672 17.4683 31.6014 17.4374 31.5399C17.3942 31.4636 17.3399 31.3944 17.2761 31.3344C17.1888 31.2469 17.0788 31.1855 16.9586 31.1572C16.8527 31.1303 16.7418 31.1303 16.6359 31.1572C16.5217 31.1911 16.4137 31.2431 16.3159 31.3113C16.2096 31.3871 16.111 31.4731 16.0214 31.5681L15.5349 32.0535C15.5094 32.0704 15.4897 32.0947 15.4782 32.1231C15.4668 32.1515 15.4643 32.1828 15.4709 32.2127C15.4903 32.2654 15.523 32.3123 15.5656 32.3488C15.5958 32.3764 15.6284 32.4013 15.6629 32.4233C15.68 32.4305 15.6982 32.4342 15.7167 32.4342C15.7352 32.4342 15.7535 32.4305 15.7705 32.4233L16.2263 32.8547L16.9099 33.5018L17.0149 33.602L17.0431 33.6276C17.0372 33.6459 17.0353 33.6652 17.0375 33.6842C17.0397 33.7033 17.046 33.7217 17.0559 33.7381C17.0768 33.7687 17.1009 33.7971 17.1276 33.8228C17.1598 33.855 17.197 33.8819 17.2377 33.9024C17.2669 33.9113 17.2981 33.9113 17.3273 33.9024C17.3666 33.8875 17.403 33.8658 17.4348 33.8382C17.4845 33.7958 17.5315 33.7503 17.5757 33.7021C17.6078 33.6837 17.6386 33.6631 17.6678 33.6405C17.6873 33.6138 17.7045 33.5854 17.7191 33.5557C17.724 33.5286 17.724 33.5007 17.7191 33.4736C17.7154 33.4475 17.7038 33.4233 17.6858 33.4042V33.3914L17.632 33.3426C17.6047 33.3159 17.5737 33.2934 17.5398 33.2758C17.5226 33.2656 17.5036 33.259 17.4838 33.2563C17.464 33.2537 17.4438 33.2551 17.4246 33.2604L17.3042 33.15L16.8997 32.752L17.1404 32.4952L17.7907 32.6878H17.8061L17.9649 32.734C17.9586 32.7514 17.9586 32.7705 17.9649 32.7879C17.9713 32.8057 17.9808 32.8222 17.993 32.8367C18.0301 32.8743 18.0704 32.9087 18.1134 32.9394C18.1273 32.9506 18.1433 32.9588 18.1604 32.9637C18.1776 32.9685 18.1956 32.9699 18.2132 32.9677C18.2583 32.9596 18.3006 32.9402 18.3361 32.9112C18.3797 32.8752 18.4386 32.8239 18.5103 32.752C18.5392 32.726 18.565 32.6967 18.5871 32.6646C18.6107 32.6395 18.629 32.6098 18.6408 32.5773C18.6557 32.5517 18.662 32.522 18.6588 32.4926C18.6563 32.4736 18.6502 32.4553 18.6408 32.4387ZM16.1315 32.0381L16.4004 31.7813C16.4697 31.6983 16.5674 31.6442 16.6744 31.6297C16.714 31.6259 16.7541 31.6309 16.7917 31.6442C16.8292 31.6575 16.8635 31.6788 16.892 31.7068C16.9249 31.7339 16.9515 31.768 16.9696 31.8066C16.9878 31.8453 16.9971 31.8875 16.997 31.9302C16.9801 32.0365 16.9256 32.1332 16.8433 32.2024L16.5873 32.4592L16.1315 32.0381Z" fill="#666666"/>
<path d="M20.5279 30.5589L20.492 30.5204C20.4772 30.5098 20.4635 30.4978 20.4511 30.4845L20.4152 30.4511C20.3909 30.4326 20.363 30.4194 20.3333 30.4126C20.3199 30.4068 20.3055 30.4039 20.291 30.4039C20.2765 30.4039 20.2621 30.4068 20.2488 30.4126C20.2132 30.423 20.1801 30.4404 20.1515 30.4639L20.0849 30.5281L20.0209 30.5974C20.0065 30.6133 19.9936 30.6305 19.9825 30.6488C19.9644 30.6807 19.958 30.718 19.9645 30.7541L19.4217 31.2908L18.9096 30.7952L18.8942 30.7798L19.0402 30.6385L19.1657 30.5127C19.1926 30.519 19.2206 30.519 19.2476 30.5127C19.262 30.5074 19.2757 30.5005 19.2886 30.4922L19.3244 30.4665L19.3654 30.4254C19.4038 30.3843 19.4371 30.3509 19.4652 30.3175C19.4885 30.2914 19.5044 30.2595 19.5113 30.2251C19.5178 30.1915 19.5114 30.1566 19.4934 30.1275C19.4659 30.0798 19.4304 30.0372 19.3884 30.0017C19.3606 29.9737 19.3306 29.948 19.2988 29.9246C19.2747 29.9039 19.2455 29.8897 19.2143 29.8836C19.1877 29.8745 19.1589 29.8745 19.1324 29.8836C19.0987 29.8942 19.068 29.9127 19.0428 29.9375L18.9762 30.0017C18.9434 30.0358 18.9126 30.0718 18.884 30.1095C18.8712 30.1266 18.8623 30.1462 18.8579 30.167C18.8535 30.1879 18.8536 30.2095 18.8584 30.2302L18.587 30.487L18.1363 30.0607L18.3924 29.8039L18.674 29.5215C18.6961 29.5267 18.7191 29.5269 18.7413 29.522C18.7634 29.5171 18.7842 29.5073 18.8021 29.4932C18.8426 29.4662 18.8803 29.4352 18.9147 29.4008C18.9455 29.37 18.9659 29.3417 18.9941 29.316L19.0248 29.2672C19.0298 29.2573 19.034 29.247 19.0376 29.2364C19.0438 29.212 19.0438 29.1864 19.0376 29.1619C19.0299 29.1338 19.0138 29.1088 18.9915 29.09L18.8635 28.9668C18.7867 28.8949 18.7022 28.9 18.6075 28.9899L18.2567 29.3366L18.2387 29.3545L17.532 30.0582C17.5075 30.0817 17.4876 30.1096 17.4731 30.1403C17.467 30.1657 17.467 30.1921 17.4731 30.2174C17.4794 30.2433 17.4907 30.2678 17.5064 30.2893L17.5218 30.3073C17.535 30.3231 17.5496 30.3377 17.5653 30.3509C17.5931 30.3774 17.6231 30.4014 17.6549 30.4228C17.6878 30.4408 17.7256 30.4471 17.7625 30.4408L18.0185 30.6976L18.4001 31.0571L19.0428 31.6657C19.035 31.6917 19.035 31.7194 19.0428 31.7453C19.0507 31.76 19.0601 31.7738 19.0709 31.7864L19.158 31.866C19.1833 31.8888 19.2129 31.9062 19.245 31.9174C19.2729 31.9288 19.3042 31.9288 19.3321 31.9174C19.369 31.9064 19.4025 31.886 19.4294 31.8583L19.7443 31.545L20.3794 30.9159L20.4075 30.8851L20.4664 30.8234C20.493 30.7945 20.5162 30.7626 20.5355 30.7284C20.5528 30.7036 20.5617 30.6739 20.5612 30.6437C20.5608 30.6123 20.5489 30.5821 20.5279 30.5589Z" fill="#666666"/>
<path d="M22.1795 28.5045C22.1536 28.4 22.1149 28.299 22.0642 28.2041C22.0131 28.1043 21.9513 28.0104 21.8799 27.9241C21.8138 27.8325 21.7401 27.7466 21.6597 27.6674C21.5539 27.5674 21.4361 27.4811 21.3089 27.4106C21.1771 27.3416 21.034 27.2973 20.8864 27.2796C20.7298 27.2649 20.572 27.2832 20.4229 27.3335C20.2436 27.4034 20.0818 27.5121 19.9492 27.6519L19.4807 28.1167C19.4449 28.1499 19.4214 28.1943 19.4141 28.2426C19.4129 28.2632 19.4159 28.2839 19.4229 28.3033C19.43 28.3228 19.4409 28.3405 19.4551 28.3556L19.4858 28.389L19.5114 28.4121C19.5412 28.4383 19.5729 28.4623 19.6061 28.484C19.6239 28.4917 19.6431 28.4958 19.6625 28.4958C19.6818 28.4958 19.701 28.4917 19.7188 28.484L20.5279 29.2544L20.8838 29.5933L20.9837 29.6884C20.9766 29.705 20.9729 29.7229 20.9729 29.741C20.9729 29.7591 20.9766 29.777 20.9837 29.7936C21.0045 29.8205 21.0267 29.8462 21.0503 29.8707C21.0945 29.9151 21.149 29.9478 21.209 29.9657C21.2311 29.9691 21.2537 29.968 21.2752 29.9622C21.2968 29.9565 21.317 29.9463 21.3345 29.9323H21.355V29.9169L21.8671 29.4033C21.9585 29.3172 22.0339 29.2155 22.0898 29.1029C22.1003 29.0819 22.1097 29.0605 22.118 29.0387C22.1481 28.956 22.1671 28.8696 22.1743 28.7819C22.1902 28.6902 22.192 28.5967 22.1795 28.5045ZM20.0849 28.127L20.213 27.9986C20.2772 27.9258 20.356 27.8674 20.4442 27.8272C20.5325 27.7869 20.6282 27.7657 20.7251 27.7649C20.946 27.7942 21.1488 27.9028 21.2961 28.0705C21.4117 28.1733 21.5125 28.2917 21.5957 28.4223C21.6603 28.5113 21.7032 28.6142 21.7211 28.7228C21.7387 28.8084 21.7325 28.8972 21.7032 28.9796C21.6684 29.0613 21.6169 29.1347 21.5521 29.1953L21.3934 29.3571L20.0849 28.127Z" fill="#666666"/>
<path d="M23.6415 27.4774L23.5877 27.426C23.5585 27.3998 23.5268 27.3766 23.493 27.3567C23.4569 27.3421 23.4165 27.3421 23.3803 27.3567L22.8836 26.8867L22.8529 26.861L22.6378 26.6582L22.5815 26.6042L22.5354 26.5606L22.118 26.1677C22.1255 26.1407 22.1257 26.1121 22.1185 26.085C22.1113 26.0579 22.097 26.0333 22.077 26.0136L21.9285 25.8749C21.8943 25.8628 21.8571 25.8617 21.8222 25.8719C21.7873 25.882 21.7564 25.9028 21.7339 25.9314L21.5086 26.1548C21.4708 26.1879 21.4463 26.2335 21.4395 26.2832C21.4401 26.3266 21.4575 26.3681 21.4881 26.3988L21.5419 26.4527C21.5702 26.4807 21.6021 26.5049 21.6366 26.5246C21.672 26.5388 21.7114 26.5388 21.7467 26.5246L21.8824 26.653L22.8221 27.5441L23.0244 27.7342C23.0155 27.764 23.0161 27.7959 23.0262 27.8254C23.0363 27.8549 23.0554 27.8805 23.0808 27.8985C23.0869 27.906 23.0938 27.9129 23.1012 27.919L23.1192 27.9396C23.1488 27.9713 23.1845 27.9966 23.2241 28.0141C23.254 28.0246 23.2865 28.0246 23.3163 28.0141C23.3545 27.9988 23.3894 27.9761 23.4187 27.9473C23.4667 27.9065 23.512 27.8628 23.5545 27.8163C23.5828 27.7909 23.6094 27.7634 23.6338 27.7342C23.6553 27.7069 23.6741 27.6776 23.6902 27.6468C23.6937 27.6196 23.6937 27.5919 23.6902 27.5647C23.6837 27.5311 23.6667 27.5005 23.6415 27.4774Z" fill="#666666"/>
<path d="M25.1316 25.9982L25.0855 25.9545C25.0574 25.9256 25.0256 25.9005 24.9908 25.8801C24.9723 25.8717 24.9522 25.8674 24.9319 25.8674C24.9116 25.8674 24.8915 25.8717 24.873 25.8801L23.5927 24.6577L23.7387 24.5139C23.7599 24.5181 23.7816 24.518 23.8027 24.5135C23.8239 24.5091 23.8439 24.5005 23.8616 24.4882C23.9018 24.4589 23.9395 24.4263 23.9743 24.3906C24.0247 24.3452 24.0656 24.2902 24.0946 24.2289C24.1056 24.2039 24.1081 24.176 24.1016 24.1495C24.0951 24.123 24.08 24.0995 24.0588 24.0825L24.0383 24.0645C24.0383 24.0645 24.0178 24.0465 24.0152 24.0388L23.9973 24.0183H23.9794L23.9512 23.9926L23.9307 23.9746C23.915 23.9583 23.8957 23.9458 23.8744 23.9383C23.8531 23.9307 23.8303 23.9282 23.8078 23.931C23.7577 23.9349 23.711 23.9579 23.6772 23.9952L22.5148 25.1508C22.4944 25.1693 22.4771 25.1909 22.4636 25.215C22.4573 25.2287 22.4541 25.2436 22.4541 25.2586C22.4541 25.2737 22.4573 25.2886 22.4636 25.3023C22.4771 25.3473 22.5008 25.3885 22.5327 25.423L22.566 25.4563L22.6172 25.5026C22.6353 25.5239 22.6598 25.5387 22.6871 25.5447C22.7144 25.5508 22.7429 25.5477 22.7683 25.536C22.8271 25.5064 22.8807 25.4673 22.927 25.4204C22.9614 25.3861 22.9931 25.3492 23.0218 25.31C23.0362 25.2893 23.0457 25.2656 23.0497 25.2407C23.0537 25.2158 23.052 25.1903 23.0448 25.1662L23.201 25.0121L24.4813 26.2319C24.4693 26.2677 24.4693 26.3065 24.4813 26.3423C24.5081 26.3837 24.5419 26.4202 24.5811 26.4502C24.6126 26.4844 24.651 26.5115 24.6938 26.5298C24.7243 26.5414 24.758 26.5414 24.7885 26.5298C24.8273 26.5169 24.8624 26.4948 24.8909 26.4656L25.0292 26.3372C25.0574 26.3063 25.083 26.2807 25.106 26.2524C25.1269 26.2247 25.1457 26.1956 25.1624 26.1651C25.1683 26.138 25.1683 26.11 25.1624 26.0829C25.1616 26.0521 25.1508 26.0223 25.1316 25.9982Z" fill="#666666"/>
<path d="M28.5218 22.3414C28.5013 22.2772 28.4808 22.231 28.468 22.2002C28.4577 22.1718 28.4421 22.1456 28.4219 22.1231C28.3994 22.1023 28.3722 22.0873 28.3425 22.0795C28.313 22.073 28.2825 22.073 28.2529 22.0795C28.2187 22.0801 28.1848 22.0871 28.1531 22.1C28.1227 22.1183 28.0943 22.1398 28.0686 22.1642C28.0257 22.2039 27.9962 22.2559 27.9841 22.3131C27.972 22.3628 27.9794 22.4151 28.0046 22.4595C28.0144 22.4845 28.0221 22.5103 28.0276 22.5366C28.0342 22.5696 28.0342 22.6036 28.0276 22.6367C28.0286 22.6756 28.0207 22.7143 28.0046 22.7497C27.9881 22.7929 27.9618 22.8316 27.9277 22.8627C27.8825 22.9072 27.8306 22.9444 27.7741 22.9731C27.7071 23.0047 27.6324 23.0163 27.559 23.0065C27.4561 22.9912 27.357 22.9564 27.2671 22.9038C27.1287 22.827 27.0005 22.7329 26.8856 22.6239L26.8574 22.5982C26.6815 22.4507 26.5502 22.2568 26.4785 22.0384C26.4569 21.9674 26.4551 21.8919 26.4732 21.82C26.4912 21.748 26.5284 21.6824 26.5809 21.6301C26.6189 21.5903 26.6665 21.5611 26.7192 21.5453C26.7602 21.5308 26.8039 21.5256 26.8472 21.5299C26.8538 21.5614 26.8699 21.5901 26.8933 21.6121L26.9983 21.7097C27.014 21.7264 27.034 21.7386 27.0561 21.7449C27.0782 21.7512 27.1015 21.7515 27.1237 21.7456C27.171 21.7357 27.2145 21.7125 27.2492 21.6789L27.4668 21.4657C27.5488 21.3784 27.5539 21.2962 27.4873 21.2243L27.4566 21.1986C27.4513 21.1897 27.4443 21.1819 27.4361 21.1755H27.4207C27.4062 21.1592 27.3899 21.1446 27.3721 21.1319C27.3512 21.1179 27.3277 21.1083 27.303 21.1036C27.275 21.0983 27.2464 21.0983 27.2185 21.1036C27.1482 21.0751 27.0739 21.0578 26.9983 21.0523C26.9124 21.0453 26.8259 21.0522 26.7422 21.0728C26.6524 21.0909 26.5661 21.123 26.4861 21.1678C26.3978 21.2149 26.3167 21.2746 26.2455 21.345C26.1429 21.4453 26.0611 21.5648 26.0048 21.6968C25.9518 21.8242 25.9316 21.9628 25.9459 22.1C25.9632 22.2535 26.0111 22.402 26.0867 22.5366C26.1845 22.7062 26.3081 22.8595 26.4529 22.9911C26.7054 23.2651 27.0395 23.4498 27.4054 23.5175C27.557 23.5309 27.7096 23.5089 27.8514 23.4532C27.9931 23.3975 28.12 23.3096 28.2222 23.1965C28.3183 23.1048 28.3964 22.996 28.4527 22.8755C28.4926 22.7846 28.5161 22.6872 28.5218 22.5879C28.5372 22.5065 28.5372 22.4228 28.5218 22.3414Z" fill="#666666"/>
<path d="M30.8699 20.4257C30.8639 20.4092 30.8543 20.3942 30.8417 20.382C30.8302 20.3672 30.8174 20.3534 30.8033 20.3409C30.8033 20.3255 30.7828 20.3178 30.7803 20.3127C30.7498 20.2836 30.7163 20.2578 30.6804 20.2357C30.6603 20.2266 30.6385 20.2219 30.6164 20.2219C30.5943 20.2219 30.5725 20.2266 30.5524 20.2357L28.9341 19.5628L28.7319 19.4807C28.7258 19.4544 28.7125 19.4304 28.6934 19.4113C28.6774 19.39 28.6594 19.3702 28.6397 19.3523C28.6123 19.3257 28.5812 19.3033 28.5475 19.2855C28.5187 19.2739 28.4866 19.2739 28.4579 19.2855C28.4208 19.2946 28.3859 19.3112 28.3555 19.3343C28.3105 19.3702 28.2677 19.4088 28.2274 19.4499L28.1813 19.4986L28.1224 19.5603C28.0878 19.5908 28.0651 19.6327 28.0584 19.6784C28.057 19.6997 28.0602 19.721 28.0677 19.7409C28.0752 19.7609 28.0869 19.7789 28.102 19.794L28.1609 19.8453C28.1772 19.865 28.1961 19.8823 28.2172 19.8967C28.2371 19.9118 28.2597 19.9232 28.2838 19.9301L29.1134 21.6635C29.1005 21.7 29.1005 21.7399 29.1134 21.7764C29.1314 21.815 29.1576 21.8492 29.1902 21.8766C29.2178 21.9036 29.2488 21.9269 29.2824 21.9459C29.3089 21.9607 29.3395 21.9661 29.3694 21.9613C29.403 21.9539 29.4345 21.939 29.4616 21.9177C29.5028 21.8867 29.5413 21.8524 29.5768 21.815L29.628 21.7636C29.6485 21.7456 29.6639 21.7276 29.6844 21.7071L29.7151 21.6763C29.774 21.6198 29.7945 21.5659 29.7791 21.5196C29.7583 21.4676 29.7259 21.4211 29.6844 21.3835C29.666 21.3658 29.6463 21.3495 29.6255 21.3347C29.6006 21.3125 29.5691 21.299 29.5359 21.2962L29.3822 21.0215L29.8943 20.5233L30.1914 20.6491C30.1919 20.6852 30.2056 20.7199 30.2298 20.7467L30.2631 20.7775C30.29 20.8046 30.3192 20.8295 30.3501 20.852C30.3747 20.8703 30.404 20.881 30.4346 20.8828C30.4708 20.8814 30.5061 20.8708 30.537 20.852C30.5858 20.8168 30.6321 20.7782 30.6753 20.7364C30.6911 20.718 30.7082 20.7009 30.7265 20.6851L30.7803 20.6286L30.8085 20.6029C30.847 20.5668 30.87 20.517 30.8725 20.4642C30.8725 20.4642 30.8776 20.4411 30.8699 20.4257ZM29.1671 20.6311L28.865 20.0559L29.4719 20.3281L29.1671 20.6311Z" fill="#666666"/>
<path d="M32.8416 18.3507L32.8109 18.3199C32.7913 18.3 32.7699 18.2819 32.7469 18.266C32.7273 18.2472 32.7036 18.2331 32.6777 18.2249C32.6526 18.2183 32.6261 18.2183 32.6009 18.2249C32.5734 18.222 32.5455 18.2246 32.519 18.2326L31.6484 17.9912L31.6663 17.9373C31.6828 17.8913 31.6956 17.8441 31.7047 17.7961C31.7137 17.7391 31.7137 17.681 31.7047 17.624C31.6946 17.5546 31.6721 17.4876 31.6382 17.4263C31.5969 17.3488 31.5423 17.2792 31.4768 17.2208C31.3897 17.1343 31.2809 17.0731 31.1619 17.0436C31.055 17.018 30.9436 17.018 30.8367 17.0436C30.7232 17.076 30.6159 17.1272 30.5192 17.1952C30.4137 17.2719 30.3151 17.3578 30.2247 17.4519L29.7357 17.9347C29.6768 17.9938 29.6563 18.0477 29.6717 18.0939C29.6943 18.1464 29.7274 18.1936 29.769 18.2326C29.7972 18.2608 29.829 18.285 29.8637 18.3045C29.881 18.3124 29.8998 18.3165 29.9188 18.3165C29.9377 18.3165 29.9565 18.3124 29.9738 18.3045L31.2541 19.5166C31.2455 19.5337 31.2411 19.5526 31.2411 19.5718C31.2411 19.591 31.2455 19.6099 31.2541 19.627C31.2741 19.6576 31.2973 19.686 31.3232 19.7118C31.3562 19.7431 31.3933 19.7699 31.4333 19.7914C31.4632 19.8016 31.4956 19.8016 31.5255 19.7914C31.5642 19.7781 31.5999 19.7571 31.6305 19.7297C31.6689 19.6964 31.715 19.6501 31.7739 19.5936L31.8507 19.5115C31.87 19.4846 31.8871 19.4563 31.9019 19.4267C31.9123 19.4005 31.9184 19.3727 31.9198 19.3445C31.9132 19.3131 31.8971 19.2844 31.8737 19.2624L31.8225 19.2136C31.7949 19.1854 31.7629 19.162 31.7278 19.1442C31.6914 19.1311 31.6515 19.1311 31.6151 19.1442L31.0851 18.6307L31.3232 18.3918L32.1477 18.6486C32.1436 18.6664 32.1436 18.6848 32.1477 18.7026C32.156 18.7208 32.1663 18.738 32.1784 18.7539C32.2152 18.7901 32.2546 18.8236 32.2962 18.8541C32.3248 18.8761 32.36 18.8878 32.3961 18.8874C32.4407 18.8781 32.4827 18.8588 32.519 18.831C32.5625 18.7924 32.624 18.7411 32.6931 18.6692C32.7222 18.6426 32.7488 18.6134 32.7725 18.5819C32.7948 18.5552 32.8137 18.5259 32.8288 18.4945C32.8423 18.4685 32.8476 18.439 32.8442 18.4098C32.8475 18.3902 32.8466 18.37 32.8416 18.3507ZM31.0492 18.1068L30.7932 18.3636L30.3451 17.9424L30.6011 17.6856C30.6713 17.6042 30.7687 17.5512 30.8751 17.5367C30.9144 17.5327 30.9541 17.5371 30.9916 17.5494C31.0291 17.5618 31.0635 17.582 31.0928 17.6086C31.126 17.6367 31.1529 17.6716 31.1714 17.7111C31.19 17.7505 31.1998 17.7935 31.2003 17.8371C31.1829 17.9402 31.1326 18.0348 31.0569 18.1068H31.0492Z" fill="#666666"/>
<path d="M34.4341 16.3452C34.4062 16.2409 34.3667 16.1401 34.3163 16.0447C34.2645 15.9454 34.2027 15.8516 34.1319 15.7648C34.0643 15.6737 33.9898 15.5879 33.9092 15.508C33.8051 15.4072 33.688 15.3208 33.5609 15.2512C33.4299 15.18 33.2865 15.1347 33.1384 15.1177C32.9815 15.1022 32.8231 15.1224 32.675 15.1768C32.4948 15.244 32.332 15.3511 32.1987 15.49L31.7301 15.9549C31.6944 15.988 31.6709 16.0324 31.6636 16.0807C31.6633 16.1233 31.6788 16.1645 31.7071 16.1962L31.7378 16.2271L31.7634 16.2502C31.7908 16.2797 31.8239 16.3033 31.8607 16.3195C31.8763 16.3301 31.8942 16.3368 31.9129 16.3391C31.9317 16.3413 31.9506 16.339 31.9683 16.3323L33.2485 17.5419C33.2425 17.5589 33.2408 17.5772 33.2434 17.5951C33.2461 17.6131 33.2531 17.63 33.2639 17.6446C33.2815 17.6747 33.3031 17.7023 33.3279 17.7268C33.3722 17.7705 33.4268 17.8023 33.4867 17.8192C33.5162 17.8229 33.5461 17.8193 33.5738 17.8085C33.6015 17.7977 33.6261 17.7802 33.6454 17.7576L34.1575 17.244C34.2481 17.1561 34.3233 17.0537 34.3803 16.941C34.4265 16.8423 34.4551 16.7362 34.4648 16.6277C34.4673 16.5325 34.457 16.4375 34.4341 16.3452ZM33.9425 16.8203C33.9087 16.9019 33.8581 16.9754 33.7939 17.036L33.6352 17.1978L32.3344 15.9677L32.465 15.8393C32.5295 15.7668 32.6083 15.7085 32.6965 15.6683C32.7847 15.628 32.8803 15.6067 32.9771 15.6056C33.1975 15.6392 33.3984 15.7514 33.543 15.9215C33.6586 16.0243 33.7594 16.1427 33.8426 16.2733C33.9047 16.3637 33.9474 16.466 33.9681 16.5737C33.9825 16.6567 33.9736 16.7421 33.9425 16.8203Z" fill="#666666"/>
<path d="M43.757 13.1634C44.0061 13.4031 44.2042 13.6908 44.3395 14.0092C44.4749 14.3275 44.5446 14.6701 44.5446 15.0162C44.5446 15.3623 44.4749 15.7049 44.3395 16.0233C44.2042 16.3417 44.0061 16.6294 43.757 16.869L41.3885 19.2238C40.8859 19.7299 40.2081 20.0222 39.4961 20.0399C38.7841 20.0576 38.0927 19.7993 37.5657 19.3189C37.3167 19.0792 37.1185 18.7915 36.9832 18.4731C36.8478 18.1547 36.7781 17.8122 36.7781 17.4661C36.7781 17.1199 36.8478 16.7774 36.9832 16.459C37.1185 16.1406 37.3167 15.8529 37.5657 15.6133L39.9444 13.2559C40.4469 12.7503 41.1245 12.4586 41.8361 12.4414C42.5477 12.4242 43.2385 12.6828 43.7647 13.1634H43.757Z" fill="#F2FAFC"/>
<path d="M48.7834 18.1479C49.034 18.3864 49.2335 18.6735 49.3699 18.9918C49.5062 19.3101 49.5766 19.6529 49.5766 19.9994C49.5766 20.3458 49.5062 20.6887 49.3699 21.007C49.2335 21.3253 49.034 21.6124 48.7834 21.8509L46.4124 24.2083C45.9098 24.7136 45.2326 25.0054 44.5212 25.0231C43.8098 25.0408 43.1189 24.783 42.592 24.3033C42.343 24.0637 42.1449 23.776 42.0096 23.4576C41.8742 23.1392 41.8044 22.7966 41.8044 22.4505C41.8044 22.1044 41.8742 21.7619 42.0096 21.4435C42.1449 21.1251 42.343 20.8374 42.592 20.5977L44.9631 18.2326C45.4653 17.7267 46.1427 17.4345 46.8543 17.4168C47.5658 17.3991 48.2568 17.6573 48.7834 18.1376V18.1479Z" fill="#F0B713"/>
<g style="mix-blend-mode:multiply" opacity="0.4">
<path d="M18.9762 7.51388L17.2376 9.81993L15.691 11.8692L13.0844 15.3308L11.4866 17.452L6.1453 24.537L4.56289 26.6402H3.30566L7.50495 19.9455L14.3902 8.97249L15.883 6.59198L18.9762 7.51388Z" fill="#999999"/>
</g>
<g style="mix-blend-mode:multiply" opacity="0.58">
<path d="M35.5301 8.26117L33.5944 10.1846L32.2885 11.4686L31.5844 12.1696L30.0992 13.6385L27.8332 15.8906L22.8862 20.8006C22.6978 20.9531 22.5261 21.1252 22.3741 21.3142L20.4255 23.2453L17.0046 26.6402H15.7244L18.8994 22.9372L25.5133 15.2127L27.5131 12.8784L29.4463 10.6314L29.6179 10.6828L29.4873 10.5852L31.3155 8.4512L33.0771 6.39682L35.5301 8.26117Z" fill="#7D7D7D"/>
</g>
<path d="M56.3319 27.4594V67.1808C56.3312 67.3979 56.245 67.6058 56.0919 67.7593C55.9389 67.9128 55.7315 67.9993 55.5151 68H0.816813C0.600181 68 0.392421 67.9137 0.239239 67.7601C0.0860568 67.6064 0 67.3981 0 67.1808L0 27.4594C0 27.2421 0.0860568 27.0337 0.239239 26.8801C0.392421 26.7265 0.600181 26.6402 0.816813 26.6402H55.5049C55.613 26.6388 55.7203 26.659 55.8206 26.6996C55.9209 26.7401 56.0121 26.8002 56.0891 26.8764C56.166 26.9526 56.2271 27.0434 56.2688 27.1435C56.3105 27.2435 56.3319 27.3509 56.3319 27.4594Z" fill="url(#paint0_linear)"/>
<g opacity="0.48">
<path opacity="0.48" d="M3.05473 29.2749H0.857781C0.790016 29.2815 0.727126 29.3132 0.681367 29.3637C0.635608 29.4143 0.610259 29.4801 0.610259 29.5484C0.610259 29.6167 0.635608 29.6825 0.681367 29.7331C0.727126 29.7836 0.790016 29.8153 0.857781 29.8219H3.05473C3.09276 29.8256 3.13114 29.8213 3.16741 29.8092C3.20368 29.7971 3.23703 29.7776 3.26532 29.7519C3.29362 29.7261 3.31622 29.6947 3.3317 29.6597C3.34717 29.6246 3.35516 29.5867 3.35516 29.5484C3.35516 29.5101 3.34717 29.4722 3.3317 29.4371C3.31622 29.4021 3.29362 29.3707 3.26532 29.3449C3.23703 29.3192 3.20368 29.2996 3.16741 29.2876C3.13114 29.2755 3.09276 29.2712 3.05473 29.2749ZM7.45118 29.2749H5.24655C5.17704 29.2782 5.11152 29.3084 5.06377 29.3592C5.01602 29.41 4.98975 29.4773 4.9905 29.5471C4.98798 29.5693 4.98798 29.5917 4.9905 29.6139C5.00412 29.6721 5.03667 29.7242 5.08302 29.7618C5.12938 29.7995 5.18691 29.8206 5.24655 29.8219H7.45118C7.51894 29.8153 7.58183 29.7836 7.62759 29.7331C7.67335 29.6825 7.6987 29.6167 7.6987 29.5484C7.6987 29.4801 7.67335 29.4143 7.62759 29.3637C7.58183 29.3132 7.51894 29.2815 7.45118 29.2749ZM11.8476 29.2749H9.64812C9.61009 29.2712 9.57171 29.2755 9.53544 29.2876C9.49917 29.2996 9.46582 29.3192 9.43752 29.3449C9.40923 29.3707 9.38662 29.4021 9.37115 29.4371C9.35568 29.4722 9.34769 29.5101 9.34769 29.5484C9.34769 29.5867 9.35568 29.6246 9.37115 29.6597C9.38662 29.6947 9.40923 29.7261 9.43752 29.7519C9.46582 29.7776 9.49917 29.7971 9.53544 29.8092C9.57171 29.8213 9.61009 29.8256 9.64812 29.8219H11.8476C11.9154 29.8153 11.9783 29.7836 12.024 29.7331C12.0698 29.6825 12.0951 29.6167 12.0951 29.5484C12.0951 29.4801 12.0698 29.4143 12.024 29.3637C11.9783 29.3132 11.9154 29.2815 11.8476 29.2749ZM16.2415 29.2749H14.042C13.9728 29.2754 13.9063 29.3022 13.856 29.3498C13.8056 29.3974 13.7751 29.4624 13.7706 29.5317C13.7719 29.6037 13.8008 29.6725 13.8514 29.7237C13.9019 29.7748 13.9702 29.8045 14.042 29.8065H16.2415C16.2499 29.8089 16.2588 29.8089 16.2671 29.8065C16.3338 29.8028 16.3968 29.7745 16.4441 29.7272C16.4913 29.6798 16.5195 29.6166 16.5232 29.5497C16.5232 29.5129 16.5159 29.4766 16.5016 29.4427C16.4874 29.4089 16.4665 29.3782 16.4402 29.3526C16.414 29.327 16.3829 29.3069 16.3487 29.2936C16.3146 29.2802 16.2781 29.2739 16.2415 29.2749ZM20.6354 29.2749H18.4359C18.368 29.2743 18.3023 29.299 18.2515 29.3442L18.2336 29.3622C18.1975 29.4112 18.1785 29.4708 18.1798 29.5317C18.1812 29.5919 18.2027 29.6498 18.2407 29.6964C18.2788 29.7429 18.3313 29.7753 18.3898 29.7885C18.4102 29.7912 18.4309 29.7912 18.4513 29.7885H20.6482C20.7064 29.7874 20.7627 29.7676 20.8088 29.732C20.8549 29.6964 20.8884 29.6469 20.9043 29.5908C20.9048 29.5831 20.9048 29.5754 20.9043 29.5677C20.9058 29.5497 20.9058 29.5317 20.9043 29.5137C20.8956 29.4481 20.8637 29.3878 20.8143 29.344C20.7649 29.3001 20.7014 29.2756 20.6354 29.2749ZM25.0319 29.2749H22.8349C22.7651 29.2741 22.6976 29.3004 22.6466 29.3482C22.5956 29.3961 22.5649 29.4618 22.5609 29.5317C22.5608 29.6016 22.5872 29.6689 22.6347 29.7199C22.6823 29.771 22.7475 29.8019 22.817 29.8065H25.0191C25.0557 29.8072 25.0921 29.8006 25.1263 29.7872C25.1604 29.7737 25.1915 29.7537 25.2179 29.7281C25.2443 29.7026 25.2654 29.6721 25.2801 29.6384C25.2947 29.6047 25.3026 29.5685 25.3033 29.5317C25.2987 29.4624 25.2682 29.3974 25.2179 29.3498C25.1675 29.3022 25.1011 29.2754 25.0319 29.2749ZM29.4257 29.2749H27.2288C27.1908 29.2712 27.1524 29.2755 27.1161 29.2876C27.0798 29.2996 27.0465 29.3192 27.0182 29.3449C26.9899 29.3707 26.9673 29.4021 26.9518 29.4371C26.9364 29.4722 26.9284 29.5101 26.9284 29.5484C26.9284 29.5867 26.9364 29.6246 26.9518 29.6597C26.9673 29.6947 26.9899 29.7261 27.0182 29.7519C27.0465 29.7776 27.0798 29.7971 27.1161 29.8092C27.1524 29.8213 27.1908 29.8256 27.2288 29.8219H29.4257C29.4638 29.8256 29.5022 29.8213 29.5384 29.8092C29.5747 29.7971 29.608 29.7776 29.6363 29.7519C29.6646 29.7261 29.6872 29.6947 29.7027 29.6597C29.7182 29.6246 29.7262 29.5867 29.7262 29.5484C29.7262 29.5101 29.7182 29.4722 29.7027 29.4371C29.6872 29.4021 29.6646 29.3707 29.6363 29.3449C29.608 29.3192 29.5747 29.2996 29.5384 29.2876C29.5022 29.2755 29.4638 29.2712 29.4257 29.2749ZM33.8222 29.2749H31.6227H31.5715C31.5112 29.2865 31.4567 29.3181 31.4167 29.3648C31.3767 29.4114 31.3537 29.4702 31.3513 29.5317C31.3522 29.6057 31.3815 29.6766 31.4332 29.7294C31.4842 29.7785 31.552 29.806 31.6227 29.8065H33.8222C33.8572 29.8049 33.8917 29.7979 33.9246 29.7859C33.9772 29.7589 34.0195 29.7154 34.0452 29.6621C34.0709 29.6087 34.0785 29.5484 34.067 29.4903C34.0554 29.4322 34.0252 29.3795 33.981 29.3402C33.9369 29.3008 33.8811 29.277 33.8222 29.2723V29.2749ZM38.2161 29.2749H36.0191C35.9512 29.2749 35.8861 29.302 35.8381 29.3501C35.7901 29.3983 35.7631 29.4636 35.7631 29.5317C35.7607 29.5392 35.7607 29.5473 35.7631 29.5548C35.7631 29.6277 35.792 29.6976 35.8433 29.7491C35.8947 29.8006 35.9644 29.8296 36.0371 29.8296H38.234C38.3018 29.823 38.3647 29.7913 38.4104 29.7408C38.4562 29.6902 38.4815 29.6244 38.4815 29.5561C38.4815 29.4878 38.4562 29.422 38.4104 29.3714C38.3647 29.3209 38.3018 29.2892 38.234 29.2826L38.2161 29.2749ZM42.6125 29.2749H40.4156C40.3776 29.2712 40.3392 29.2755 40.3029 29.2876C40.2666 29.2996 40.2333 29.3192 40.205 29.3449C40.1767 29.3707 40.1541 29.4021 40.1386 29.4371C40.1231 29.4722 40.1152 29.5101 40.1152 29.5484C40.1152 29.5867 40.1231 29.6246 40.1386 29.6597C40.1541 29.6947 40.1767 29.7261 40.205 29.7519C40.2333 29.7776 40.2666 29.7971 40.3029 29.8092C40.3392 29.8213 40.3776 29.8256 40.4156 29.8219H42.6125C42.6803 29.8153 42.7432 29.7836 42.7889 29.7331C42.8347 29.6825 42.8601 29.6167 42.8601 29.5484C42.8601 29.4801 42.8347 29.4143 42.7889 29.3637C42.7432 29.3132 42.6803 29.2815 42.6125 29.2749ZM47.1063 29.2929C47.0745 29.2803 47.0406 29.2742 47.0064 29.2749H44.8095C44.7417 29.2815 44.6788 29.3132 44.6331 29.3637C44.5873 29.4143 44.562 29.4801 44.562 29.5484C44.562 29.6167 44.5873 29.6825 44.6331 29.7331C44.6788 29.7836 44.7417 29.8153 44.8095 29.8219H47.009C47.0721 29.821 47.133 29.7982 47.1813 29.7574C47.2296 29.7167 47.2624 29.6605 47.2742 29.5983C47.2859 29.536 47.2759 29.4717 47.2457 29.416C47.2156 29.3604 47.1673 29.3169 47.1088 29.2929H47.1063ZM51.4029 29.2749H49.2034C49.1356 29.2815 49.0727 29.3132 49.027 29.3637C48.9812 29.4143 48.9558 29.4801 48.9558 29.5484C48.9558 29.6167 48.9812 29.6825 49.027 29.7331C49.0727 29.7836 49.1356 29.8153 49.2034 29.8219H51.4029C51.4706 29.8153 51.5335 29.7836 51.5793 29.7331C51.625 29.6825 51.6504 29.6167 51.6504 29.5484C51.6504 29.4801 51.625 29.4143 51.5793 29.3637C51.5335 29.3132 51.4706 29.2815 51.4029 29.2749ZM53.2311 29.9734C53.1584 29.9754 53.0894 30.0058 53.0387 30.0581C52.988 30.1103 52.9597 30.1804 52.9597 30.2533V32.4566C52.9663 32.5246 52.9978 32.5877 53.0482 32.6336C53.0987 32.6794 53.1643 32.7049 53.2324 32.7049C53.3005 32.7049 53.3661 32.6794 53.4165 32.6336C53.4669 32.5877 53.4985 32.5246 53.5051 32.4566V30.2456C53.5061 30.2091 53.4998 30.1728 53.4864 30.1388C53.473 30.1049 53.4529 30.074 53.4273 30.0481C53.4017 30.0221 53.3711 30.0017 53.3374 29.988C53.3036 29.9743 53.2675 29.9675 53.2311 29.9683V29.9734ZM53.2311 34.3877C53.1591 34.3877 53.0901 34.4164 53.0392 34.4675C52.9883 34.5185 52.9597 34.5878 52.9597 34.66V36.8633C52.956 36.9014 52.9603 36.9399 52.9723 36.9763C52.9844 37.0127 53.0038 37.0461 53.0295 37.0745C53.0552 37.1029 53.0865 37.1255 53.1214 37.1411C53.1564 37.1566 53.1942 37.1646 53.2324 37.1646C53.2706 37.1646 53.3084 37.1566 53.3433 37.1411C53.3783 37.1255 53.4096 37.1029 53.4352 37.0745C53.4609 37.0461 53.4804 37.0127 53.4924 36.9763C53.5045 36.9399 53.5088 36.9014 53.5051 36.8633V34.6677C53.5068 34.6306 53.501 34.5936 53.488 34.5589C53.475 34.5242 53.455 34.4926 53.4294 34.4659C53.4037 34.4392 53.3729 34.418 53.3388 34.4037C53.3047 34.3894 53.2681 34.3822 53.2311 34.3826V34.3877ZM53.2311 38.7944C53.1593 38.7951 53.0907 38.824 53.0399 38.8749C52.9892 38.9258 52.9604 38.9946 52.9597 39.0666V41.2725C52.9663 41.3405 52.9978 41.4035 53.0482 41.4494C53.0987 41.4953 53.1643 41.5207 53.2324 41.5207C53.3005 41.5207 53.3661 41.4953 53.4165 41.4494C53.4669 41.4035 53.4985 41.3405 53.5051 41.2725V39.0666C53.5058 39.0302 53.4992 38.994 53.4857 38.9603C53.4722 38.9265 53.4521 38.8957 53.4265 38.8699C53.401 38.844 53.3705 38.8236 53.337 38.8097C53.3034 38.7959 53.2674 38.7889 53.2311 38.7893V38.7944ZM53.2311 43.201C53.1589 43.2017 53.0898 43.231 53.039 43.2824C52.9882 43.3339 52.9597 43.4034 52.9597 43.4758V45.6817C52.9663 45.7497 52.9978 45.8127 53.0482 45.8586C53.0987 45.9045 53.1643 45.9299 53.2324 45.9299C53.3005 45.9299 53.3661 45.9045 53.4165 45.8586C53.4669 45.8127 53.4985 45.7497 53.5051 45.6817V43.4758C53.5061 43.4392 53.4998 43.4028 53.4864 43.3687C53.4731 43.3346 53.453 43.3035 53.4275 43.2774C53.4019 43.2513 53.3713 43.2306 53.3376 43.2166C53.3038 43.2026 53.2676 43.1955 53.2311 43.1959V43.201ZM53.2311 47.6103C53.1589 47.6109 53.0898 47.6402 53.039 47.6916C52.9882 47.7431 52.9597 47.8126 52.9597 47.885V50.0755C52.956 50.1137 52.9603 50.1522 52.9723 50.1885C52.9844 50.2249 53.0038 50.2583 53.0295 50.2867C53.0552 50.3151 53.0865 50.3378 53.1214 50.3533C53.1564 50.3688 53.1942 50.3768 53.2324 50.3768C53.2706 50.3768 53.3084 50.3688 53.3433 50.3533C53.3783 50.3378 53.4096 50.3151 53.4352 50.2867C53.4609 50.2583 53.4804 50.2249 53.4924 50.1885C53.5045 50.1522 53.5088 50.1137 53.5051 50.0755V47.8748C53.5047 47.839 53.4974 47.8037 53.4834 47.7708C53.4695 47.7379 53.4492 47.7081 53.4238 47.683C53.3983 47.658 53.3682 47.6382 53.3352 47.6249C53.3021 47.6115 53.2667 47.6048 53.2311 47.6051V47.6103ZM53.2311 52.0195C53.1591 52.0195 53.0901 52.0482 53.0392 52.0992C52.9883 52.1502 52.9597 52.2195 52.9597 52.2917V54.495C52.956 54.5331 52.9603 54.5716 52.9723 54.608C52.9844 54.6444 53.0038 54.6778 53.0295 54.7062C53.0552 54.7346 53.0865 54.7573 53.1214 54.7728C53.1564 54.7883 53.1942 54.7963 53.2324 54.7963C53.2706 54.7963 53.3084 54.7883 53.3433 54.7728C53.3783 54.7573 53.4096 54.7346 53.4352 54.7062C53.4609 54.6778 53.4804 54.6444 53.4924 54.608C53.5045 54.5716 53.5088 54.5331 53.5051 54.495V52.2917C53.5058 52.2553 53.4992 52.2191 53.4857 52.1853C53.4722 52.1515 53.4521 52.1208 53.4265 52.0949C53.401 52.0691 53.3705 52.0486 53.337 52.0348C53.3034 52.0209 53.2674 52.014 53.2311 52.0143V52.0195ZM53.2311 56.4261C53.1591 56.4261 53.0901 56.4548 53.0392 56.5058C52.9883 56.5569 52.9597 56.6261 52.9597 56.6983V58.9042C52.9663 58.9722 52.9978 59.0353 53.0482 59.0811C53.0987 59.127 53.1643 59.1525 53.2324 59.1525C53.3005 59.1525 53.3661 59.127 53.4165 59.0811C53.4669 59.0353 53.4985 58.9722 53.5051 58.9042V56.6983C53.5058 56.6619 53.4992 56.6258 53.4857 56.592C53.4722 56.5582 53.4521 56.5275 53.4265 56.5016C53.401 56.4757 53.3705 56.4553 53.337 56.4414C53.3034 56.4276 53.2674 56.4206 53.2311 56.421V56.4261ZM53.2311 60.8328C53.1589 60.8334 53.0898 60.8627 53.039 60.9142C52.9882 60.9656 52.9597 61.0351 52.9597 61.1075V63.3109C52.9663 63.3788 52.9978 63.4419 53.0482 63.4878C53.0987 63.5337 53.1643 63.5591 53.2324 63.5591C53.3005 63.5591 53.3661 63.5337 53.4165 63.4878C53.4669 63.4419 53.4985 63.3788 53.5051 63.3109V61.1075C53.5061 61.0709 53.4998 61.0345 53.4864 61.0004C53.4731 60.9663 53.453 60.9353 53.4275 60.9091C53.4019 60.883 53.3713 60.8623 53.3376 60.8483C53.3038 60.8343 53.2676 60.8273 53.2311 60.8276V60.8328ZM0 64.9852V65.2086C0.016631 65.1742 0.0253793 65.1364 0.0256054 65.0982C0.0250219 65.0591 0.0162999 65.0206 0 64.9852H0ZM4.14808 64.8234H1.95113C1.88337 64.83 1.82048 64.8617 1.77472 64.9122C1.72896 64.9628 1.70361 65.0286 1.70361 65.0969C1.70361 65.1652 1.72896 65.231 1.77472 65.2816C1.82048 65.3321 1.88337 65.3638 1.95113 65.3704H4.14808C4.21584 65.3638 4.27873 65.3321 4.32449 65.2816C4.37025 65.231 4.3956 65.1652 4.3956 65.0969C4.3956 65.0286 4.37025 64.9628 4.32449 64.9122C4.27873 64.8617 4.21584 64.83 4.14808 64.8234ZM8.54453 64.8234H6.34758C6.30281 64.8238 6.25883 64.8352 6.21956 64.8568C6.17438 64.8783 6.13648 64.9127 6.11054 64.9556C6.0846 64.9985 6.07176 65.048 6.0736 65.0982C6.0736 65.1341 6.08071 65.1698 6.09451 65.2029C6.10831 65.2361 6.12853 65.2663 6.154 65.2916C6.17948 65.3169 6.2097 65.3369 6.24293 65.3504C6.27616 65.3639 6.31173 65.3707 6.34758 65.3704H8.54453C8.61229 65.3638 8.67518 65.3321 8.72094 65.2816C8.7667 65.231 8.79205 65.1652 8.79205 65.0969C8.79205 65.0286 8.7667 64.9628 8.72094 64.9122C8.67518 64.8617 8.61229 64.83 8.54453 64.8234ZM13.2022 65.0237C13.1863 64.9673 13.153 64.9174 13.1069 64.8814C13.0608 64.8454 13.0045 64.8251 12.9461 64.8234H10.7389C10.7186 64.8195 10.6978 64.8195 10.6775 64.8234C10.6189 64.8366 10.5664 64.869 10.5284 64.9155C10.4903 64.9621 10.4689 65.02 10.4675 65.0802C10.4648 65.0981 10.4648 65.1163 10.4675 65.1341C10.4824 65.1915 10.5153 65.2425 10.5615 65.2795C10.6076 65.3165 10.6645 65.3376 10.7235 65.3396H12.9231C12.9953 65.3396 13.0646 65.311 13.1159 65.26C13.1672 65.209 13.1964 65.1398 13.197 65.0674C13.2001 65.053 13.2018 65.0384 13.2022 65.0237ZM17.3323 64.8234H15.1354C15.0676 64.83 15.0047 64.8617 14.9589 64.9122C14.9132 64.9628 14.8878 65.0286 14.8878 65.0969C14.8878 65.1652 14.9132 65.231 14.9589 65.2816C15.0047 65.3321 15.0676 65.3638 15.1354 65.3704H17.3323C17.4001 65.3638 17.463 65.3321 17.5087 65.2816C17.5545 65.231 17.5798 65.1652 17.5798 65.0969C17.5798 65.0286 17.5545 64.9628 17.5087 64.9122C17.463 64.8617 17.4001 64.83 17.3323 64.8234ZM21.7288 64.8234H19.5318C19.4938 64.8197 19.4554 64.824 19.4191 64.8361C19.3829 64.8481 19.3495 64.8677 19.3212 64.8934C19.2929 64.9192 19.2703 64.9506 19.2548 64.9856C19.2394 65.0207 19.2314 65.0586 19.2314 65.0969C19.2314 65.1352 19.2394 65.1731 19.2548 65.2082C19.2703 65.2432 19.2929 65.2746 19.3212 65.3004C19.3495 65.3261 19.3829 65.3456 19.4191 65.3577C19.4554 65.3698 19.4938 65.3741 19.5318 65.3704H21.7288C21.7965 65.3638 21.8594 65.3321 21.9052 65.2816C21.9509 65.231 21.9763 65.1652 21.9763 65.0969C21.9763 65.0286 21.9509 64.9628 21.9052 64.9122C21.8594 64.8617 21.7965 64.83 21.7288 64.8234ZM26.1226 64.8234H23.9283C23.8902 64.8197 23.8518 64.824 23.8156 64.8361C23.7793 64.8481 23.746 64.8677 23.7177 64.8934C23.6894 64.9192 23.6668 64.9506 23.6513 64.9856C23.6358 65.0207 23.6278 65.0586 23.6278 65.0969C23.6278 65.1352 23.6358 65.1731 23.6513 65.2082C23.6668 65.2432 23.6894 65.2746 23.7177 65.3004C23.746 65.3261 23.7793 65.3456 23.8156 65.3577C23.8518 65.3698 23.8902 65.3741 23.9283 65.3704H26.1175C26.1556 65.3741 26.1939 65.3698 26.2302 65.3577C26.2665 65.3456 26.2998 65.3261 26.3281 65.3004C26.3564 65.2746 26.379 65.2432 26.3945 65.2082C26.41 65.1731 26.418 65.1352 26.418 65.0969C26.418 65.0586 26.41 65.0207 26.3945 64.9856C26.379 64.9506 26.3564 64.9192 26.3281 64.8934C26.2998 64.8677 26.2665 64.8481 26.2302 64.8361C26.1939 64.824 26.1556 64.8197 26.1175 64.8234H26.1226ZM30.5191 64.8234H28.3196C28.2518 64.83 28.1889 64.8617 28.1432 64.9122C28.0974 64.9628 28.0721 65.0286 28.0721 65.0969C28.0721 65.1652 28.0974 65.231 28.1432 65.2816C28.1889 65.3321 28.2518 65.3638 28.3196 65.3704H30.5191C30.5571 65.3741 30.5955 65.3698 30.6318 65.3577C30.668 65.3456 30.7014 65.3261 30.7297 65.3004C30.758 65.2746 30.7806 65.2432 30.7961 65.2082C30.8115 65.1731 30.8195 65.1352 30.8195 65.0969C30.8195 65.0586 30.8115 65.0207 30.7961 64.9856C30.7806 64.9506 30.758 64.9192 30.7297 64.8934C30.7014 64.8677 30.668 64.8481 30.6318 64.8361C30.5955 64.824 30.5571 64.8197 30.5191 64.8234ZM34.913 64.8234H32.716C32.6483 64.83 32.5854 64.8617 32.5396 64.9122C32.4939 64.9628 32.4685 65.0286 32.4685 65.0969C32.4685 65.1652 32.4939 65.231 32.5396 65.2816C32.5854 65.3321 32.6483 65.3638 32.716 65.3704H34.913C34.9808 65.3638 35.0436 65.3321 35.0894 65.2816C35.1352 65.231 35.1605 65.1652 35.1605 65.0969C35.1605 65.0286 35.1352 64.9628 35.0894 64.9122C35.0436 64.8617 34.9808 64.83 34.913 64.8234ZM39.3094 64.8234H37.1125C37.0745 64.8197 37.0361 64.824 36.9998 64.8361C36.9635 64.8481 36.9302 64.8677 36.9019 64.8934C36.8736 64.9192 36.851 64.9506 36.8355 64.9856C36.82 65.0207 36.8121 65.0586 36.8121 65.0969C36.8121 65.1352 36.82 65.1731 36.8355 65.2082C36.851 65.2432 36.8736 65.2746 36.9019 65.3004C36.9302 65.3261 36.9635 65.3456 36.9998 65.3577C37.0361 65.3698 37.0745 65.3741 37.1125 65.3704H39.3094C39.3772 65.3638 39.4401 65.3321 39.4858 65.2816C39.5316 65.231 39.557 65.1652 39.557 65.0969C39.557 65.0286 39.5316 64.9628 39.4858 64.9122C39.4401 64.8617 39.3772 64.83 39.3094 64.8234ZM43.7033 64.8234H41.5038C41.4361 64.83 41.3732 64.8617 41.3274 64.9122C41.2816 64.9628 41.2563 65.0286 41.2563 65.0969C41.2563 65.1652 41.2816 65.231 41.3274 65.2816C41.3732 65.3321 41.4361 65.3638 41.5038 65.3704H43.7033C43.7414 65.3741 43.7797 65.3698 43.816 65.3577C43.8523 65.3456 43.8856 65.3261 43.9139 65.3004C43.9422 65.2746 43.9648 65.2432 43.9803 65.2082C43.9958 65.1731 44.0038 65.1352 44.0038 65.0969C44.0038 65.0586 43.9958 65.0207 43.9803 64.9856C43.9648 64.9506 43.9422 64.9192 43.9139 64.8934C43.8856 64.8677 43.8523 64.8481 43.816 64.8361C43.7797 64.824 43.7414 64.8197 43.7033 64.8234ZM48.0998 64.8234H45.9003C45.8325 64.83 45.7696 64.8617 45.7239 64.9122C45.6781 64.9628 45.6527 65.0286 45.6527 65.0969C45.6527 65.1652 45.6781 65.231 45.7239 65.2816C45.7696 65.3321 45.8325 65.3638 45.9003 65.3704H48.0998C48.1675 65.3638 48.2304 65.3321 48.2762 65.2816C48.3219 65.231 48.3473 65.1652 48.3473 65.0969C48.3473 65.0286 48.3219 64.9628 48.2762 64.9122C48.2304 64.8617 48.1675 64.83 48.0998 64.8234ZM52.4681 64.8234H50.2967C50.2587 64.8197 50.2203 64.824 50.184 64.8361C50.1478 64.8481 50.1144 64.8677 50.0861 64.8934C50.0578 64.9192 50.0352 64.9506 50.0197 64.9856C50.0043 65.0207 49.9963 65.0586 49.9963 65.0969C49.9963 65.1352 50.0043 65.1731 50.0197 65.2082C50.0352 65.2432 50.0578 65.2746 50.0861 65.3004C50.1144 65.3261 50.1478 65.3456 50.184 65.3577C50.2203 65.3698 50.2587 65.3741 50.2967 65.3704H52.3964H52.5193C52.5913 65.3636 52.6576 65.3284 52.7037 65.2725C52.7498 65.2166 52.7719 65.1447 52.7651 65.0725C52.7583 65.0003 52.7232 64.9338 52.6675 64.8875C52.6118 64.8413 52.54 64.8192 52.4681 64.826V64.8234Z" fill="#FFFFAB"/>
</g>
<path d="M59 44.1692V50.453C59.0049 51.2207 58.7402 51.9656 58.2524 52.5572C57.7645 53.1488 57.0847 53.5494 56.3319 53.6887C56.1369 53.7259 55.9389 53.7448 55.7404 53.7452H40.2005C39.469 53.7456 38.7586 53.4999 38.1829 53.0473C37.6073 52.5947 37.1997 51.9615 37.0254 51.2491C37.0126 51.2054 37.0024 51.1618 36.9947 51.1207V51.0822C36.9556 50.8782 36.9359 50.671 36.9358 50.4633V44.1692C36.9385 43.3019 37.2834 42.4709 37.8951 41.8579C38.5069 41.2449 39.3357 40.8996 40.2005 40.8976H55.7327C55.9312 40.898 56.1292 40.9169 56.3242 40.9541C57.0743 41.0925 57.7524 41.4898 58.2411 42.077C58.7298 42.6642 58.9982 43.4043 59 44.1692Z" fill="#C07139"/>
<g style="mix-blend-mode:multiply" opacity="0.58">
<path d="M57.3178 53.2932C57.3178 53.3112 57.2948 53.3343 57.282 53.3522C56.9814 53.514 56.6574 53.6275 56.3217 53.6886V54.3897C55.7766 54.771 55.1275 54.9745 54.4628 54.9726H38.9203C38.0524 54.9726 37.2201 54.6269 36.6064 54.0114C35.9927 53.3959 35.648 52.5612 35.648 51.6908V45.4044C35.6473 44.8204 35.8024 44.2469 36.0974 43.7434C36.3923 43.24 36.8162 42.8248 37.3251 42.5411C37.0502 43.03 36.9064 43.5821 36.9077 44.1435V50.4299C36.9077 50.649 36.93 50.8676 36.9743 51.0822V51.1207C36.9743 51.1618 36.9922 51.2054 37.005 51.2491C37.1874 51.9581 37.6011 52.5854 38.1802 53.0313C38.7593 53.4771 39.4705 53.7158 40.2006 53.7092H55.7354C55.9365 53.709 56.1372 53.6892 56.3345 53.6501C56.6798 53.5869 57.0122 53.4662 57.3178 53.2932Z" fill="#999999"/>
</g>
<path d="M47.9641 47.3201C47.9641 48.2119 47.7003 49.0838 47.2063 49.8253C46.7122 50.5669 46.01 51.1449 45.1884 51.4862C44.3668 51.8275 43.4628 51.9168 42.5906 51.7428C41.7184 51.5688 40.9172 51.1393 40.2884 50.5087C39.6596 49.878 39.2313 49.0745 39.0578 48.1998C38.8843 47.3251 38.9734 46.4184 39.3137 45.5944C39.654 44.7704 40.2303 44.0662 40.9697 43.5707C41.7091 43.0752 42.5785 42.8107 43.4677 42.8107C44.6602 42.8107 45.8039 43.2858 46.6471 44.1315C47.4903 44.9771 47.9641 46.1241 47.9641 47.3201Z" fill="#FECA62"/>
<g style="mix-blend-mode:multiply" opacity="0.58">
<path d="M46.274 50.8459C45.877 51.3371 45.3814 51.7391 44.8195 52.0258C44.2575 52.3125 43.6417 52.4774 43.0121 52.5099C42.3825 52.5424 41.753 52.4417 41.1647 52.2145C40.5764 51.9872 40.0423 51.6383 39.5971 51.1906C39.1519 50.7428 38.8056 50.2062 38.5806 49.6155C38.3557 49.0248 38.2571 48.3933 38.2913 47.7619C38.3255 47.1306 38.4917 46.5134 38.7791 45.9507C39.0666 45.3879 39.4688 44.8921 39.9597 44.4953C39.2605 45.3604 38.9053 46.4544 38.9624 47.5665C39.0194 48.6786 39.4848 49.7302 40.2688 50.5188C41.0529 51.3073 42.1001 51.777 43.2089 51.8374C44.3176 51.8978 45.4094 51.5447 46.274 50.8459Z" fill="#999999"/>
</g>
<path opacity="0.46" d="M47.964 47.1018L43.2474 51.8294C42.4414 51.7888 41.6611 51.5313 40.9884 51.084C40.3158 50.6366 39.7756 50.016 39.4246 49.2871L45.429 43.2678C46.1563 43.6192 46.7756 44.1608 47.2217 44.8355C47.6678 45.5103 47.9242 46.2932 47.964 47.1018Z" fill="white"/>
</g>
<defs>
<linearGradient id="paint0_linear" x1="4.00981" y1="71.5412" x2="52.4519" y2="23.2394" gradientUnits="userSpaceOnUse">
<stop stop-color="#BB7241"/>
<stop offset="0.77" stop-color="#9F5F39"/>
<stop offset="1" stop-color="#965936"/>
</linearGradient>
<clipPath id="clip0">
<rect width="59" height="68" fill="white"/>
</clipPath>
</defs>
</svg>
